<?xml version="1.0" encoding="utf-8"?>
<!-- Generator: Adobe Illustrator 17.0.0, SVG Export Plug-In . SVG Version: 6.00 Build 0)  -->
<!DOCTYPE svg PUBLIC "-//W3C//DTD SVG 1.0//EN" "http://www.w3.org/TR/2001/REC-SVG-20010904/DTD/svg10.dtd">
<svg version="1.0" id="Layer_1" xmlns="http://www.w3.org/2000/svg" xmlns:xlink="http://www.w3.org/1999/xlink" x="0px" y="0px"
	 width="1240px" height="790px" viewBox="0 0 1240 790" enable-background="new 0 0 1240 790" xml:space="preserve">
<g>
	<g>
		<path d="M132.769,164.455c0.132,15.288,3.216,30.243,6.683,45.072c3.77,16.126,6.907,32.003,9.064,48.433
			c4.182,31.848,7.621,63.853,9.651,95.911c2.047,32.328,2.178,64.61,2.841,96.974c0.673,32.809,4.725,65.454,4.824,98.286
			c0.048,16.2-1.283,32.384-1.512,48.587c-0.23,16.256,0.045,32.517,0.482,48.767c0.437,16.227,1.087,32.447,1.68,48.668
			c0.268,7.323,0.518,14.645,0.706,21.97c0.1,3.889,0.586,7.993,2.693,11.348c4.733,7.534,17.472,5.67,24.763,5.67
			c16.217,0,32.434,0.057,48.651-0.018c15.775-0.074,31.43-2.059,47.165-0.832c15.166,1.183,29.862-0.11,44.971-1.651
			c32.025-3.267,63.855-5.737,96.027-7.025c31.212-1.249,62.795-2.664,94.002-0.664c15.957,1.023,31.072,4.264,46.45,8.422
			c6.695,1.811,13.393,3.33,20.345,3.33c8.364,0,16.728,0,25.092,0c7.016,0,14.032,0,21.048,0c7.275,0,14.323-2.069,21.382-3.562
			c7.595-1.606,15.733-2.015,23.45-2.982c8.275-1.037,16.579-1.833,24.893-2.489c31.714-2.502,63.604-1.862,95.385-2.87
			c15.693-0.498,31.382-0.495,47.077-0.798c15.851-0.307,31.701-0.787,47.551-0.194c15.677,0.586,31.324,2.039,46.983,2.968
			c16.132,0.958,32.093,0.589,48.223,0.547c15.612-0.041,31.207-1.079,46.812-1.449c6.465-0.153,12.813-0.045,19.252,0.538
			c6.362,0.577,12.987,1.341,19.334,0.217c1.391-0.246,2.719-0.551,4.073-0.954c3.083-0.916,1.769-5.742-1.329-4.821
			c-6.159,1.83-12.609,1.352-18.931,0.838c-6.894-0.56-13.622-0.969-20.547-0.856c-15.619,0.256-31.214,1.282-46.835,1.473
			c-16.103,0.196-32.052,0.457-48.153-0.425c-15.679-0.859-31.327-2.218-47.011-2.996c-15.825-0.785-31.696-0.258-47.525,0.075
			c-15.69,0.329-31.376,0.299-47.064,0.777c-31.784,0.969-63.663,0.494-95.389,2.786c-15.465,1.117-31.052,2.772-46.398,4.925
			c-7.283,1.022-14.32,3.315-21.64,4.09c-7.435,0.787-15.236,0.161-22.71,0.161c-7.721,0-15.441,0-23.162,0
			c-8.605,0-16.343-1.385-24.634-3.627c-14.63-3.957-29.039-6.799-44.177-7.994c-31.093-2.456-62.791-0.745-93.909,0.456
			c-32.178,1.242-64.045,3.563-96.069,6.905c-15.083,1.574-29.988,3.19-45.142,1.985c-15.726-1.25-31.22,0.528-46.971,0.681
			c-16.203,0.157-32.412,0.032-48.615,0.032c-5.96,0-12.303,0.599-18.166-0.726c-4.516-1.02-5.678-4.73-6.102-8.902
			c-1.53-15.052-1.083-30.596-1.635-45.724c-0.592-16.258-1.11-32.52-1.343-48.787c-0.466-32.525,2.341-64.997,0.959-97.495
			c-1.309-30.782-4.321-61.388-4.429-92.224c-0.107-30.382-1.259-60.763-3.354-91.071c-2.081-30.104-5.547-60.181-9.518-90.09
			c-1.983-14.936-4.824-29.42-8.3-44.075c-3.558-15.002-6.806-30.11-6.941-45.594C137.741,161.232,132.741,161.229,132.769,164.455
			L132.769,164.455z"/>
	</g>
</g>
<g>
	<g>
		<path d="M130.34,164.819c-6.204,4.972-8.187,12.465-10.018,19.853c-0.776,3.13,4.046,4.458,4.821,1.329
			c1.635-6.598,3.176-13.194,8.732-17.647C136.391,166.338,132.829,162.824,130.34,164.819L130.34,164.819z"/>
	</g>
</g>
<g>
	<g>
		<path d="M132.313,171.479c2.372-3,11.838,6.026,13.652,7.812c2.298,2.264,5.835-1.27,3.536-3.536
			c-3.864-3.806-15.383-14.567-20.723-7.812C126.8,170.444,130.314,174.008,132.313,171.479L132.313,171.479z"/>
	</g>
</g>
<g>
	<g>
		<path d="M1079.647,720.426c-6.052-1.597-11.555-4.366-16.084-8.732c-2.321-2.237-5.861,1.294-3.536,3.536
			c5.133,4.948,11.422,8.205,18.291,10.018C1081.439,726.071,1082.762,721.248,1079.647,720.426L1079.647,720.426z"/>
	</g>
</g>
<g>
	<g>
		<path d="M1081.141,727.825c-5.62-9.602-18.948,8.184-22.677,11.994c-2.256,2.305,1.277,5.843,3.536,3.536
			c1.602-1.637,13.696-14.932,14.823-13.006C1078.451,733.129,1082.773,730.614,1081.141,727.825L1081.141,727.825z"/>
	</g>
</g>
<g>
	<g>
		<path d="M1103.045,699.399c-0.484,8.593-11.437,19.115-3.905,27.462c5.457,6.047,15.162,4.345,21.729,1.259
			c2.917-1.37,0.376-5.68-2.524-4.317c-4.627,2.174-14.118,4.31-16.389-2.078c-1.375-3.868,1.38-8.148,2.973-11.523
			c1.641-3.477,2.898-6.939,3.115-10.803C1108.226,696.176,1103.225,696.194,1103.045,699.399L1103.045,699.399z"/>
	</g>
</g>
<g>
	<g>
		<path d="M1099.959,714.31c5.17-1.69,10.455-2.998,15.625-4.688c3.051-0.997,1.745-5.826-1.329-4.821
			c-5.17,1.69-10.455,2.998-15.625,4.688C1095.58,710.485,1096.886,715.314,1099.959,714.31L1099.959,714.31z"/>
	</g>
</g>
<g>
	<g>
		<path fill="#69BD45" d="M159.932,349.995c25.389-18.104,51.624-34.549,78.928-49.598c25.014-13.787,52.666-22.171,81.416-20.312
			c14.744,0.953,26.112,11.539,39.292,17.037c14.315,5.971,27.848,13.086,40.992,21.325c12.554,7.87,24.589,16.545,36.536,25.298
			c12.181,8.925,25.032,16.908,37.545,25.351c12.908,8.71,25.352,17.782,36.324,28.877c10.318,10.434,19.869,21.519,30.923,31.214
			c4.84,4.246,9.993,9.706,15.521,12.995c6.619,3.938,13.391,7.602,20.136,11.316c13.083,7.204,25.104,15.894,38.002,23.359
			c13.555,7.846,27.254,15.44,41.36,22.256c13.952,6.741,27.243,14.164,40.539,22.123c6.122,3.665,12.169,7.475,18.817,10.092
			c7.953,3.13,15.786,6.557,23.635,9.933c13.23,5.69,26.603,11.332,40.445,15.375c21.6,6.308,44.511,7.344,66.658,10.74
			c22.992,3.525,45.715,8.838,69.129,8.052c11.155-0.374,21.983-1.473,32.959-3.531c11.755-2.204,23.467-5.274,35.403-6.333
			c12.318-1.093,24.777-0.423,37.128-1.341c4.666-0.347,9.333-3.011,13.923-2.908c5.413,0.122,10.637,1.266,15.979-0.131
			c3.117-0.815,1.793-5.638-1.329-4.821c-6.676,1.746-13.422-1.204-20.013,0.925c-7.654,2.473-15.988,2.675-23.977,2.853
			c-7.908,0.176-15.793-0.102-23.684,0.599c-7.565,0.671-15.098,2.39-22.531,3.892c-15.296,3.091-30.156,5.337-45.768,5.861
			c-16.027,0.538-31.977-2.111-47.707-4.85c-14.528-2.529-29.066-4.676-43.697-6.521c-14.982-1.889-29.989-3.859-44.468-8.303
			c-14.628-4.49-28.701-10.772-42.736-16.804c-6.565-2.822-13.151-5.592-19.801-8.209c-7.776-3.06-15.075-8.423-22.22-12.714
			c-13.34-8.013-27.089-14.699-40.983-21.652c-13.958-6.985-27.493-14.79-40.978-22.638c-6.127-3.566-11.716-7.918-17.746-11.662
			c-6.533-4.056-13.324-7.692-20.062-11.389c-6.742-3.7-13.174-7.325-19.111-12.25c-5.732-4.754-11.405-9.567-16.803-14.701
			c-10.67-10.148-20.032-21.575-30.849-31.581c-10.928-10.109-23.716-18.358-36.076-26.581
			c-12.436-8.274-24.853-16.49-36.935-25.279c-12.082-8.79-24.368-17.304-37.154-25.043c-9.787-5.925-19.936-11.244-30.453-15.754
			c-9.88-4.237-18.83-9.636-28.384-14.509c-9.579-4.886-19.489-5.336-30.067-5.134c-11.104,0.212-21.841,2.014-32.571,4.908
			c-20.082,5.415-37.762,15.669-55.8,25.668c-21.6,11.975-42.118,25.855-62.211,40.183
			C154.807,347.533,157.3,351.872,159.932,349.995L159.932,349.995z"/>
	</g>
</g>
<g>
	<g>
		<path fill="#ED1F24" d="M1055.545,660.962c-8.396,0.107-17.666,2.772-25.974,1.376c-7.781-1.307-15.516-2.545-23.412-2.877
			c-9.509-0.4-19.048-0.04-28.565-0.411c-9.919-0.387-19.659-1.607-29.436-3.273c-18.155-3.093-36.555-3.467-54.761-5.917
			c-8.957-1.205-17.964,1.538-26.915,1.726c-8.845,0.186-17.715,0-26.562,0c-3.224,0-3.224,5,0,5c3.646,0,7.292,0,10.938,0
			c0-1.667,0-3.333,0-5c-14.778,0.139-29.062,2.176-43.869,0.623c-16.079-1.686-31.573-2.386-47.741-1.531
			c-31.805,1.682-63.498,5.444-95.01-1.208c-13.926-2.939-27.404-7.698-40.548-13.093c-13.362-5.485-25.837-12.845-38.917-18.963
			c-13.323-6.232-27.795-10.147-41.444-15.653c-14.238-5.744-28.505-11.415-42.516-17.7c-13.515-6.063-26.211-13.232-39.041-20.585
			c-12.968-7.432-26.193-14.404-39.156-21.846c-12.941-7.429-26.088-15.276-37.513-24.934c-9.442-7.983-16.535-18.305-23.271-28.556
			c-13.525-20.581-26.691-40.625-50.915-49.271c-6.814-2.432-13.22-4.344-19.082-8.705c-5.557-4.134-11.648-9.42-18.207-11.78
			c-5.53-1.989-11.975-1.644-17.737-1.463c-7.074,0.223-13.999,0.12-20.851,2.109c-7.051,2.047-13.596,5.899-19.704,9.869
			c-6.668,4.333-13.576,8.3-20.579,12.062c-6.059,3.255-11.177,6.787-16.438,11.227c-5.562,4.693-11.113,9.214-17.786,12.239
			c-2.933,1.33-0.389,5.638,2.524,4.317c12.275-5.564,20.807-16.462,32.67-22.644c13.581-7.077,26.045-17.392,40.643-22.249
			c6.724-2.237,14.164-1.761,21.171-1.982c3.216-0.101,6.417-0.041,9.621,0.251c4.758,0.433,8.326,2.768,12.222,5.33
			c5.63,3.702,10.81,8.706,16.971,11.43c6.71,2.966,13.883,4.706,20.579,7.718c23.136,10.404,34.593,36.555,48.738,55.941
			c16.126,22.102,40.353,35.612,63.815,48.724c25.93,14.491,51.371,29.708,78.7,41.459c13.34,5.736,26.866,11.029,40.319,16.493
			c6.832,2.776,13.787,5.116,20.762,7.504c7.446,2.549,14.289,6.501,21.628,9.11c6.587,2.342,12.464,6.515,18.62,9.753
			c6.134,3.227,12.839,5.671,19.283,8.202c13.232,5.197,26.862,9.291,40.856,11.832c30.933,5.617,62.37,1.403,93.467-0.136
			c15.466-0.765,30.33,0.31,45.694,1.921c14.147,1.483,27.922-0.682,42.044-0.815c3.223-0.03,3.225-5,0-5c-3.646,0-7.292,0-10.938,0
			c-3.224,0-3.224,5,0,5c8.854,0,17.708,0,26.562,0c9.517,0,18.558-2.358,28.125-1.562c18.572,1.544,37.218,2.893,55.585,6.161
			c18.579,3.305,37.195,2.803,55.965,3.277c4.22,0.107,8.432,0.563,12.609,1.152c3.781,0.534,7.972,1.951,11.778,1.91
			c8.365-0.09,16.64-1.456,25-1.562C1058.767,665.921,1058.771,660.921,1055.545,660.962L1055.545,660.962z"/>
	</g>
</g>
<g>
	<g>
		<path d="M615.516,444.411c8.967-16.077,22.542-28.612,32.812-43.75c1.816-2.677-2.519-5.175-4.317-2.524
			c-10.273,15.143-23.839,27.661-32.812,43.75C609.627,444.706,613.946,447.227,615.516,444.411L615.516,444.411z"/>
	</g>
</g>
<g>
	<g>
		<path d="M612.391,441.887c-1.736-3.57-2.951-7.366-4.688-10.938c-1.41-2.899-5.721-0.363-4.317,2.524
			c1.736,3.57,2.951,7.366,4.688,10.938C609.484,447.31,613.795,444.774,612.391,441.887L612.391,441.887z"/>
	</g>
</g>
<g>
	<g>
		<path d="M611.494,446.87c5.174-3.225,11.476-4.259,17.488-4.346c3.221-0.047,3.226-5.047,0-5
			c-6.867,0.1-14.106,1.348-20.012,5.029C606.242,444.254,608.75,448.581,611.494,446.87L611.494,446.87z"/>
	</g>
</g>
<g>
	<g>
		<path d="M651.572,351.859c-4.658,18.945,5.767,36.822,7.723,55.352c0.335,3.172,5.338,3.205,5,0
			c-1.881-17.822-12.354-35.917-7.902-54.023C657.163,350.058,652.341,348.73,651.572,351.859L651.572,351.859z"/>
	</g>
</g>
<g>
	<g>
		<path d="M658.045,388.462c-0.418-3.298-0.441-6.839,2.691-8.804c3.736-2.344,8.517,1.24,11.02,3.707
			c5.113,5.041,6.762,13.026,7.941,19.824c0.55,3.173,5.368,1.823,4.821-1.329c-1.656-9.551-5.402-23.086-15.809-26.746
			c-9.8-3.447-16.926,3.398-15.665,13.348C653.445,391.615,658.45,391.654,658.045,388.462L658.045,388.462z"/>
	</g>
</g>
<g>
	<g>
		<path d="M681.21,398.685c3.053-1.217,5.597-3.119,7.58-5.764c1.764-2.352,4.482-6.645,3.541-9.812
			c-1.738-5.844-7.134-10.173-12.231-4.756c-4.474,4.754-5.723,11.663-1.992,17.115c3.47,5.072,9.991,8.186,15.836,9.467
			c3.143,0.688,4.478-4.132,1.329-4.821c-5.544-1.214-12.75-4.406-14.398-10.378c-0.68-2.466,3.127-11.361,5.612-7.862
			c3.015,4.245-2.887,10.507-6.606,11.99C676.923,395.042,678.212,399.88,681.21,398.685L681.21,398.685z"/>
	</g>
</g>
<g>
	<g>
		<path d="M712.391,377.825c-3.202-4.751-8.245-5.953-12.613-1.882c-4.08,3.802-3.729,10.412-1.695,15.116
			c1.669,3.86,6.224,6.081,10.277,5.44c5.27-0.834,8.203-5.564,8.97-10.499c-1.637-0.222-3.274-0.443-4.911-0.665
			c0.136,4.229,1.427,8.279,1.562,12.5c0.103,3.216,5.104,3.226,5,0c-0.136-4.229-1.427-8.279-1.562-12.5
			c-0.087-2.702-4.462-3.552-4.911-0.665c-0.67,4.313-4.531,9.709-9.009,5.499c-1.747-1.643-2.179-5.24-1.825-7.482
			c0.571-3.612,4.013-5.88,6.398-2.341C709.865,383.006,714.199,380.507,712.391,377.825L712.391,377.825z"/>
	</g>
</g>
<g>
	<g>
		<path d="M719.011,347.536c6.907,11.062,5.87,25.966,7.56,38.465c0.43,3.183,5.247,1.822,4.821-1.329
			c-1.761-13.027-0.848-28.101-8.065-39.66C721.626,342.285,717.298,344.792,719.011,347.536L719.011,347.536z"/>
	</g>
</g>
<g>
	<g>
		<path d="M737.509,343.814c3.087,15.779,4.568,31.791,6.161,47.773c0.317,3.177,5.32,3.208,5,0
			c-1.637-16.424-3.167-32.886-6.339-49.102C741.712,339.322,736.893,340.664,737.509,343.814L737.509,343.814z"/>
	</g>
</g>
<g>
	<g>
		<path d="M736.494,370.308c5.041-3.193,10.865-4.564,16.59-5.998c3.126-0.783,1.8-5.605-1.329-4.821
			c-6.135,1.536-12.385,3.082-17.785,6.502C731.255,367.71,733.762,372.039,736.494,370.308L736.494,370.308z"/>
	</g>
</g>
<g>
	<g>
		<path d="M749.92,343.149c0.075,12.051,1.36,24.635,6.591,35.637c1.104,2.322,4.657,1.098,4.659-1.262
			c0.003-3.667,0.046-7.311,0.842-10.906c0.923-4.167,5.319-9.396,9.777-5.678c5.306,4.425,4.69,15.059,4.693,21.272
			c0.002,3.224,5.002,3.224,5,0c-0.004-8.246,0.177-23.418-9.458-26.898c-13.572-4.902-15.849,13.51-15.855,22.21
			c1.553-0.421,3.106-0.841,4.659-1.262c-4.838-10.173-5.839-21.994-5.909-33.113C754.9,339.926,749.9,339.924,749.92,343.149
			L749.92,343.149z"/>
	</g>
</g>
<g>
	<g>
		<path d="M784.295,357.212c0.002,6.049,0.249,11.944,1.652,17.852c0.745,3.136,5.566,1.806,4.821-1.329
			c-1.301-5.477-1.471-10.92-1.473-16.523C789.294,353.987,784.294,353.987,784.295,357.212L784.295,357.212z"/>
	</g>
</g>
<g>
	<g>
		<path d="M793.943,375.247c12.564,3.053,18.775-20.17,6.56-21.156c-8.545-0.69-10.083,10.052-8.871,16.167
			c1.754,8.852,15.589,9.619,22.39,8.115c3.148-0.696,1.813-5.516-1.329-4.821c-4.028,0.891-14.363,1.115-16.076-3.992
			c-1.141-3.401-0.846-10.34,3.886-10.468c2.867-0.077,1.478,12.965-5.231,11.335C792.139,369.665,790.811,374.486,793.943,375.247
			L793.943,375.247z"/>
	</g>
</g>
<g>
	<g>
		<path d="M820.204,376.262c-1.851-3.784-3.451-7.8-3.614-12.057c-0.2-5.199,3.844-7.068,8.37-7.708
			c3.182-0.45,1.823-5.267-1.329-4.821c-15.168,2.144-12.901,16.564-7.744,27.11C817.303,381.682,821.614,379.147,820.204,376.262
			L820.204,376.262z"/>
	</g>
</g>
<g>
	<g>
		<path d="M775.652,335.542c0.576,0.609,0.927,1.351,1.302,2.098c0.478,0.952,1.089,1.815,1.823,2.589
			c2.22,2.346,5.75-1.196,3.536-3.536c-0.576-0.609-0.927-1.351-1.302-2.098c-0.478-0.952-1.089-1.815-1.823-2.589
			C776.967,329.66,773.438,333.202,775.652,335.542L775.652,335.542z"/>
	</g>
</g>
<g>
	<g>
		<path d="M207.732,549.399c0.268,13.304,5.982,25.778,6.25,39.062c0.065,3.22,5.065,3.226,5,0
			c-0.268-13.304-5.982-25.778-6.25-39.062C212.668,546.179,207.667,546.173,207.732,549.399L207.732,549.399z"/>
	</g>
</g>
<g>
	<g>
		<path d="M227.625,580.854c4.181-4.615,7.525-13.754,3.125-19.161c-0.553-0.68-1.634-0.848-2.432-0.643
			c-16.638,4.282-5.157,26.604,8.477,25.223c3.176-0.322,3.207-5.325,0-5c-7.828,0.793-18.021-12.604-7.148-15.402
			c-0.811-0.214-1.622-0.429-2.432-0.643c2.369,2.911-1.081,9.834-3.125,12.089C221.931,579.702,225.456,583.248,227.625,580.854
			L227.625,580.854z"/>
	</g>
</g>
<g>
	<g>
		<path d="M247.732,557.837c-4.19,0.12-9.421,1.782-6.904,7.003c0.822,1.704,1.377,3.57,2.295,5.189
			c0.553,0.976,1.434,1.656,1.873,2.723c1.357,3.302-2.387,5.957-4.776,7.302c-2.809,1.581-0.29,5.901,2.524,4.317
			c4.987-2.807,9.167-7.855,6.724-13.8c-0.374-0.909-0.914-1.671-1.53-2.431c-0.738-0.91-0.66-1.846-1.172-2.814
			c-0.434-0.822-0.902-1.624-1.346-2.441c-0.19-0.752-0.356-0.681-0.498,0.213c0.926-0.207,1.862-0.294,2.81-0.261
			C250.95,562.744,250.959,557.744,247.732,557.837L247.732,557.837z"/>
	</g>
</g>
<g>
	<g>
		<path d="M262,555.444c-0.521-0.521-1.042-1.042-1.562-1.562c-1.743-1.744-4.91,0.007-4.178,2.432
			c0.825,2.734,2.48,4.957,4.161,7.222c0.881,1.188,1.851,2.429,2.408,3.812c0.719,1.784-0.922,2.578-2.295,3.33
			c-2.828,1.549-0.306,5.866,2.524,4.317c3.515-1.924,5.822-4.855,4.593-8.977c-1.245-4.175-5.314-6.871-6.569-11.034
			c-1.393,0.811-2.786,1.622-4.178,2.432c0.521,0.521,1.042,1.042,1.562,1.562C260.746,561.261,264.282,557.726,262,555.444
			L262,555.444z"/>
	</g>
</g>
<g>
	<g>
		<path d="M221.795,600.962c0.167,10.326,2.611,20.752,6.339,30.352c0.99,2.549,4.848,2.303,4.911-0.665
			c0.056-2.646,0.518-5.249,1.142-7.815c0.883-3.627,2.432-7.165,5.422-2.929c3.372,4.778,4.063,11.208,7.918,15.637
			c2.121,2.436,5.642-1.115,3.536-3.536c-4.547-5.223-4.766-18.572-13.56-19.414c-7.933-0.76-9.341,12.591-9.457,18.057
			c1.637-0.222,3.274-0.443,4.911-0.665c-3.569-9.192-6.001-19.136-6.161-29.023C226.743,597.741,221.743,597.736,221.795,600.962
			L221.795,600.962z"/>
	</g>
</g>
<g>
	<g>
		<path d="M251.522,617.435c6.246-0.863,7.649-9.314,4.228-13.553c-0.539-0.668-1.648-0.868-2.432-0.643
			c-14.799,4.241-4.007,21.119,6.25,23.571c3.134,0.749,4.464-4.072,1.329-4.821c-5.131-1.227-15.498-11.278-6.25-13.929
			c-0.811-0.214-1.622-0.429-2.432-0.643c1.389,1.721,0.062,4.909-2.022,5.197C247.011,613.053,248.37,617.87,251.522,617.435
			L251.522,617.435z"/>
	</g>
</g>
<g>
	<g>
		<path d="M272.732,600.024c-5.539,0.32-15.084,6.817-10.951,13.388c1.528,2.429,4.228,5.601,7.422,3.774
			c1.213-0.694,2.067-1.765,3.178-2.582c0.851-0.626,4.079,5.646,4.443,6.37c1.448,2.882,5.761,0.349,4.317-2.524
			c-2.056-4.091-6.336-11.802-11.77-7.806c-0.807,0.594-1.454,1.368-2.247,1.97c-0.011,0.008-1.168-2.471-0.975-3.185
			c0.65-2.404,4.308-4.273,6.583-4.405C275.937,604.839,275.955,599.838,272.732,600.024L272.732,600.024z"/>
	</g>
</g>
<g>
	<g>
		<path d="M278.134,590.689c1.663,8.316,3.278,16.637,4.688,25c0.535,3.174,5.353,1.824,4.821-1.329
			c-1.409-8.363-3.025-16.684-4.688-25C282.324,586.199,277.505,587.54,278.134,590.689L278.134,590.689z"/>
	</g>
</g>
<g>
	<g>
		<path d="M288.152,582.417c6.063,6.464,8.543,15.418,10.295,23.897c0.652,3.157,5.471,1.817,4.821-1.329
			c-1.933-9.36-4.907-18.989-11.58-26.103C289.478,576.525,285.949,580.068,288.152,582.417L288.152,582.417z"/>
	</g>
</g>
<g>
	<g>
		<path d="M292.744,598.433c5.272-2.514,10.973-3.093,16.59-4.435c3.135-0.749,1.805-5.57-1.329-4.821
			c-6.087,1.454-12.072,2.215-17.785,4.94C287.311,595.503,289.85,599.813,292.744,598.433L292.744,598.433z"/>
	</g>
</g>
<g>
	<g>
		<path d="M304.607,571.274c0.124,8.062,1.575,15.818,5.029,23.137c0.757,1.603,3.583,1.669,4.317,0
			c1.029-2.338,1.525-5.432,3.791-6.916c-1.01-0.13-2.02-0.261-3.03-0.391c2.643,3.111,2.906,7.612,4.045,11.397
			c0.926,3.079,5.753,1.766,4.821-1.329c-1.458-4.848-1.956-9.631-5.33-13.603c-0.694-0.816-2.151-0.966-3.03-0.391
			c-3.375,2.21-4.03,5.179-5.584,8.709c1.439,0,2.878,0,4.317,0c-3.066-6.497-4.236-13.466-4.346-20.613
			C309.558,568.053,304.558,568.048,304.607,571.274L304.607,571.274z"/>
	</g>
</g>
<g>
	<g>
		<path d="M325.261,580.95c-2.064,4.688-1.858,9.941,3.514,11.988c5.518,2.104,9.573-4.014,10.431-8.5
			c-1.224,0.498-2.448,0.996-3.673,1.494c5.02,3.716,12.352,15.686,5.494,20.4c-5.32,3.657-12.876,3.321-18.96,4.718
			c-3.142,0.722-1.809,5.542,1.329,4.821c7.599-1.745,19.226-1.271,23.981-8.794c5.064-8.012-2.792-20.629-9.321-25.463
			c-1.248-0.924-3.388,0.009-3.673,1.494c-0.39,2.038-1.076,4.879-3.608,5.1c-2.689,0.234-1.767-3.441-1.197-4.736
			C330.865,580.552,326.558,578.004,325.261,580.95L325.261,580.95z"/>
	</g>
</g>
<g>
	<g>
		<path d="M343.943,622.122c7.175,1.45,13.93-2.862,19.313-7.143c7.326-5.828,13.643-12.788,19.69-19.903
			c2.19-2.577,3.982-4.845,6.846-6.676c3.843-2.457,7.768-4.778,11.576-7.29c5.5-3.629,13.949-8.749,14.49-16.086
			c0.089-1.202-0.853-1.996-1.835-2.411c-6.993-2.95-14.781-0.714-21.642,1.562c-3.045,1.01-1.74,5.84,1.329,4.821
			c6.075-2.016,12.776-4.181,18.983-1.562c-0.612-0.804-1.224-1.607-1.835-2.411c-0.43,5.835-10.884,11.076-15.113,13.781
			c-5.451,3.486-10.865,6.209-15.041,11.2c-5.103,6.099-10.413,12.031-16.261,17.43c-4.62,4.264-12.219,11.271-19.171,9.866
			C342.124,616.665,340.784,621.484,343.943,622.122L343.943,622.122z"/>
	</g>
</g>
<g>
	<g>
		<path d="M408.005,572.122c3.951,1.234,1.27,9.435,0.068,11.953c-1.381,2.894,2.929,5.432,4.317,2.524
			c2.763-5.788,5.026-16.773-3.057-19.297C406.248,566.337,404.938,571.164,408.005,572.122L408.005,572.122z"/>
	</g>
</g>
<g>
	<g>
		<path fill="#231F20" d="M51.992,119.751c-3.204,15.704-2.899,32.061-2.014,47.987c0.178,3.206,5.179,3.223,5,0
			c-0.859-15.454-1.274-31.418,1.835-46.658C57.456,117.933,52.636,116.593,51.992,119.751L51.992,119.751z"/>
	</g>
</g>
<g>
	<g>
		<path fill="#231F20" d="M54.252,123.688c4.469-2.866,9.077,2.212,10.614,6.135c2.797,7.14-3.874,8.398-9.593,7.487
			c-3.153-0.502-4.507,4.315-1.329,4.821c4.828,0.769,10.481,1.077,14.227-2.657c2.758-2.75,2.771-7.056,1.674-10.533
			c-2.26-7.164-10.629-14.372-18.117-9.571C49.024,121.104,51.529,125.434,54.252,123.688L54.252,123.688z"/>
	</g>
</g>
<g>
	<g>
		<path fill="#231F20" d="M78.312,139.794c-4.094-6.887-1.611-14.665,6.158-17.247c3.044-1.012,1.739-5.842-1.329-4.821
			c-10.772,3.581-14.956,14.818-9.146,24.592C75.64,145.085,79.963,142.572,78.312,139.794L78.312,139.794z"/>
	</g>
</g>
<g>
	<g>
		<path fill="#231F20" d="M93.502,125.241c-4.7-0.321-8.749,3.992-9.452,8.405c-0.695,4.367,2.943,9.239,7.683,8.349
			c3.605-0.677,5.214-4.594,5.419-7.86c0.276-4.393-2.678-8.03-6.76-9.264c-3.095-0.935-4.407,3.891-1.329,4.821
			c1.789,0.541,2.941,1.81,3.085,3.705c0.101,1.325-0.344,3.077-1.297,3.671c-0.13,0.081-0.363,0.041-0.926-0.31
			c-0.815-0.509-1.131-1.299-0.98-2.244c0.347-2.178,2.236-4.432,4.557-4.273C96.722,130.461,96.701,125.46,93.502,125.241
			L93.502,125.241z"/>
	</g>
</g>
<g>
	<g>
		<path fill="#231F20" d="M112.731,129.383c-12.114-14.343-25.675,17.677-9.5,18.796c15.233,1.054,9.117-32.051,6.47-39.99
			c-1.014-3.043-5.844-1.738-4.821,1.329c2.968,8.903,4.324,21.036,1.98,30.159c-1.417,5.513-6.787,3.554-6.018-1.647
			c0.651-4.402,4.352-9.851,8.354-5.112C111.279,135.385,114.798,131.829,112.731,129.383L112.731,129.383z"/>
	</g>
</g>
<g>
	<g>
		<path fill="#231F20" d="M114.844,131.251c-2.406,5.767,0.499,17.238,8.575,15.533c7.972-1.683,8.094-12.97,6.929-19.375
			c-0.576-3.169-5.395-1.823-4.821,1.329c0.579,3.184,1.062,10.641-1.962,12.832c-4.351,3.152-4.785-6.867-3.899-8.989
			C120.907,129.605,116.067,128.321,114.844,131.251L114.844,131.251z"/>
	</g>
</g>
<g>
	<g>
		<path fill="#231F20" d="M139.566,124.912c-5.293,2.648-7.355,7.897-3.497,12.758c3.455,4.353,10.071,5.168,14.855,2.917
			c2.916-1.372,0.376-5.682-2.524-4.317c-2.717,1.278-6.052,0.474-8.209-1.508c-2.535-2.329-0.573-4.295,1.899-5.532
			C144.974,127.786,142.441,123.474,139.566,124.912L139.566,124.912z"/>
	</g>
</g>
<g>
	<g>
		<path fill="#231F20" d="M157.15,108.794c0.018,10.708-0.095,21.416-0.076,32.124c0.006,3.224,5.006,3.225,5,0
			c-0.018-10.708,0.095-21.416,0.076-32.124C162.144,105.57,157.144,105.57,157.15,108.794L157.15,108.794z"/>
	</g>
</g>
<g>
	<g>
		<path fill="#231F20" d="M149.992,133.086c4.957-1.878,9.464-5.082,14.765-5.916c3.178-0.5,1.824-5.318-1.329-4.821
			c-5.345,0.841-9.786,4.03-14.765,5.916C145.678,129.395,146.971,134.23,149.992,133.086L149.992,133.086z"/>
	</g>
</g>
<g>
	<g>
		<path fill="#231F20" d="M168.038,124.257c0.672,5.633,1.1,11.292,1.772,16.925c0.377,3.161,5.381,3.197,5,0
			c-0.672-5.633-1.1-11.292-1.772-16.925C172.661,121.096,167.656,121.06,168.038,124.257L168.038,124.257z"/>
	</g>
</g>
<g>
	<g>
		<path fill="#231F20" d="M174.133,118.197c3.224,0,3.224-5,0-5C170.908,113.197,170.908,118.197,174.133,118.197L174.133,118.197z"
			/>
	</g>
</g>
<g>
	<g>
		<path fill="#231F20" d="M180.158,129.587c-0.409,3.742-0.285,7.666,1.21,11.174c1.238,2.904,3.921,6.891,7.522,5.68
			c6.239-2.098,5.309-10.619,7.406-15.481c1.262-2.928-3.044-5.477-4.317-2.524c-0.985,2.284-1.388,4.702-1.924,7.119
			c-0.454,2.05-0.98,5.839-3.464,6.319c0.642,0.084,1.284,0.168,1.926,0.252c-3.853-2.81-3.826-8.269-3.359-12.539
			C185.509,126.384,180.505,126.418,180.158,129.587L180.158,129.587z"/>
	</g>
</g>
<g>
	<g>
		<path fill="#231F20" d="M200.907,126.969c-0.403,4.176,0.4,8.29,1.219,12.37c0.635,3.16,5.454,1.819,4.821-1.329
			c-0.737-3.671-1.403-7.284-1.041-11.041C206.216,123.76,201.214,123.79,200.907,126.969L200.907,126.969z"/>
	</g>
</g>
<g>
	<g>
		<path fill="#231F20" d="M202.893,112.698c3.224,0,3.224-5,0-5C199.668,107.698,199.668,112.698,202.893,112.698L202.893,112.698z"
			/>
	</g>
</g>
<g>
	<g>
		<path fill="#231F20" d="M211.473,100.371c3.457,3.664,1.389,10.572,1.768,15.15c0.506,6.121,1.473,12.038,0.89,18.198
			c-0.303,3.21,4.699,3.181,5,0c0.729-7.717-1.927-15.509-1.026-23.086c0.587-4.931,0.476-10.011-3.097-13.798
			C212.792,94.486,209.263,98.028,211.473,100.371L211.473,100.371z"/>
	</g>
</g>
<g>
	<g>
		<path fill="#231F20" d="M207.358,123.353c4.898-1.684,9.928-2.492,15.051-3.141c3.154-0.399,3.193-5.404,0-5
			c-5.561,0.704-11.058,1.489-16.38,3.319C202.999,119.574,204.3,124.404,207.358,123.353L207.358,123.353z"/>
	</g>
</g>
<g>
	<g>
		<path fill="#231F20" d="M219.69,119.581c-2.423,8.821,7.575,17.298,15.098,10.724c1.894-1.655,1.461-3.123,3.802-0.93
			c1.734,1.625,3.011,3.359,4.175,5.437c2.522,4.504,4.727,11.345,2.308,16.297c-2.06,4.216-9.741,3.852-13.585,3.987
			c-5.806,0.204-11.627-0.172-17.427-0.38c-14.161-0.508-28.65,3.463-42.518,5.894c-3.172,0.556-1.823,5.374,1.329,4.821
			c14.768-2.589,29.524-6.189,44.584-5.585c8.926,0.358,23.296,2.664,30.451-4.191c6.842-6.555,1.826-19.612-2.469-26.062
			c-1.868-2.805-5.462-7.099-9.221-6.556c-1.644,0.238-2.779,1.304-3.842,2.509c-3.62,4.103-9.335,0.719-7.863-4.636
			C225.367,117.796,220.543,116.476,219.69,119.581L219.69,119.581z"/>
	</g>
</g>
<g>
	<g>
		<path fill="#231F20" d="M338.188,16.938c2.496,20.939,5.998,41.749,8.138,62.731c2.166,21.237,2.798,42.497,2.799,63.831
			c0,3.224,5,3.224,5,0c-0.001-20.71-0.691-41.293-2.613-61.922c-2.015-21.636-5.753-43.071-8.325-64.641
			C342.811,13.777,337.806,13.74,338.188,16.938L338.188,16.938z"/>
	</g>
</g>
<g>
	<g>
		<path fill="#231F20" d="M340.387,23.784c15.358-7.795,32.004,5.909,37.215,20.012c5.862,15.862-12.207,29.668-24.114,36.608
			c-2.784,1.622-0.268,5.944,2.524,4.317c15.532-9.052,33.558-25.143,25.446-44.718c-6.774-16.348-26.375-29.277-43.595-20.537
			C334.987,20.926,337.519,25.239,340.387,23.784L340.387,23.784z"/>
	</g>
</g>
<g>
	<g>
		<path fill="#231F20" d="M380.346,128.176c-3.549-6.706-6.095-14.338-4.857-22.003c1.351-8.367,8.13-12.996,15.863-14.95
			c3.125-0.789,1.798-5.612-1.329-4.821c-8.876,2.243-16.001,7.382-18.852,16.322c-2.966,9.298,0.503,19.745,4.858,27.976
			C377.537,133.55,381.853,131.023,380.346,128.176L380.346,128.176z"/>
	</g>
</g>
<g>
	<g>
		<path fill="#231F20" d="M411.665,92.652c-15.992-4.168-27.006,18.89-15.32,29.701c7.238,6.696,18.584,2.888,22.141-5.827
			c4.638-11.366-6.731-18.271-16.196-20.749c-3.122-0.817-4.446,4.005-1.329,4.821c6.871,1.799,17.001,6.384,12.342,15.156
			c-3.5,6.59-12.097,6.469-15.659,0.273c-4.654-8.094,3.212-21.025,12.692-18.555C413.459,98.287,414.782,93.464,411.665,92.652
			L411.665,92.652z"/>
	</g>
</g>
<g>
	<g>
		<path fill="#231F20" d="M442.25,94.125c-7.113,0.091-12.929,1.695-15.792,8.705c-2.239,5.483-2.886,14.847,1.553,19.468
			c7.976,8.303,18.632,1.25,20.915-7.904c2.911-11.674-0.315-25.167-3.044-36.563c-2.377-9.928-5.3-19.927-9.286-29.343
			c-1.254-2.96-5.559-0.409-4.317,2.524c6.528,15.416,11.207,33.058,12.419,49.738c0.414,5.705,1.128,17.123-5.751,19.627
			c-6.335,2.306-9.154-3.567-9.054-8.992c0.059-3.178,0.799-7.279,2.885-9.759c2.167-2.575,6.443-2.462,9.473-2.5
			C445.472,99.084,445.476,94.084,442.25,94.125L442.25,94.125z"/>
	</g>
</g>
<g>
	<g>
		<path fill="#231F20" d="M453.812,91.938c-0.052,5.449-0.514,11.293,2.284,16.211c2.762,4.855,10.185,5.016,13.933,1.306
			c4.286-4.243,3.373-12.797,2.906-18.148c-0.551-6.321-1.753-12.628-3.275-18.784c-0.774-3.129-5.595-1.801-4.821,1.329
			c2.178,8.81,4.406,18.678,3.14,27.771c-0.209,1.5-0.585,3.701-1.881,4.69c-2.095,1.601-4.893,0.702-6.07-1.368
			c-2.075-3.647-1.254-8.99-1.215-13.009C458.843,88.712,453.843,88.715,453.812,91.938L453.812,91.938z"/>
	</g>
</g>
<g>
	<g>
		<path fill="#231F20" d="M482.67,74.545c-5.623,5.931-8.67,14.393-6.242,22.437c2.443,8.093,10.632,10.097,18.049,8.304
			c3.133-0.757,1.804-5.579-1.329-4.821c-15.324,3.704-14.487-14.427-6.943-22.384C488.422,75.742,484.892,72.201,482.67,74.545
			L482.67,74.545z"/>
	</g>
</g>
<g>
	<g>
		<path fill="#231F20" d="M496,46.625c0.041,23.768,1.448,47.67,6.339,70.977c0.662,3.155,5.482,1.816,4.821-1.329
			C502.36,93.4,501.04,69.948,501,46.625C500.994,43.401,495.994,43.4,496,46.625L496,46.625z"/>
	</g>
</g>
<g>
	<g>
		<path fill="#231F20" d="M489.973,94.165c1.997-5.006,9.55-5.709,14.121-6.24c4.599-0.534,9.256-0.566,13.82-1.389
			c3.17-0.572,1.823-5.39-1.329-4.821c-10.105,1.823-26.713-0.714-31.434,11.121C483.956,95.833,488.794,97.122,489.973,94.165
			L489.973,94.165z"/>
	</g>
</g>
<g>
	<g>
		<path fill="#231F20" d="M522.904,79.137c4.124,8.97,2.863,18.862,2.784,28.426c-0.027,3.225,4.973,3.223,5,0
			c0.089-10.626,1.099-21.019-3.466-30.949C525.876,73.686,521.567,76.229,522.904,79.137L522.904,79.137z"/>
	</g>
</g>
<g>
	<g>
		<path fill="#231F20" d="M520.375,60.062c3.224,0,3.224-5,0-5S517.151,60.062,520.375,60.062L520.375,60.062z"/>
	</g>
</g>
<g>
	<g>
		<path fill="#231F20" d="M536.625,77.875c0.119,7.448,3.429,26.006,14.748,22.969c9.897-2.655,9.632-20.539,7.35-28.321
			c-0.905-3.087-5.731-1.772-4.821,1.329c1.661,5.664,1.955,17.051-2.352,21.615c-3.538,3.748-7.258-4.414-7.999-6.513
			c-1.242-3.52-1.866-7.354-1.925-11.079C541.574,74.654,536.574,74.649,536.625,77.875L536.625,77.875z"/>
	</g>
</g>
<g>
	<g>
		<path fill="#231F20" d="M571.089,72.523c-3.165,10.695-0.268,21.909,1.562,32.579c0.544,3.173,5.362,1.824,4.821-1.329
			c-1.677-9.776-4.462-20.122-1.562-29.921C576.828,70.753,572.002,69.438,571.089,72.523L571.089,72.523z"/>
	</g>
</g>
<g>
	<g>
		<path fill="#231F20" d="M569.438,40.375c0,0.521,0,1.042,0,1.562c0,1.363,1.137,2.5,2.5,2.5s2.5-1.137,2.5-2.5
			c0-0.521,0-1.042,0-1.562c0-1.363-1.137-2.5-2.5-2.5S569.438,39.012,569.438,40.375L569.438,40.375z"/>
	</g>
</g>
<g>
	<g>
		<path fill="#231F20" d="M583.5,32.562c0.077,12.106,1.56,24.143,1.563,36.25c0.003,12.207,0.379,24.364,3.214,36.29
			c0.746,3.136,5.567,1.806,4.821-1.329c-2.88-12.117-3.033-24.447-3.036-36.835c-0.002-11.477-1.489-22.895-1.562-34.375
			C588.479,29.339,583.479,29.337,583.5,32.562L583.5,32.562z"/>
	</g>
</g>
<g>
	<g>
		<path fill="#231F20" d="M572.602,70.911c8.566-1.802,16.867-4.603,25-7.812c2.963-1.169,1.673-6.006-1.329-4.821
			c-8.133,3.21-16.434,6.011-25,7.812C568.118,66.753,569.457,71.572,572.602,70.911L572.602,70.911z"/>
	</g>
</g>
<g>
	<g>
		<path fill="#231F20" d="M593.188,76.312c0-0.521,0-1.042,0-1.562c-1.553,0.421-3.106,0.841-4.659,1.262
			c4.367,6.157,6.705,16.06,15.66,16.897c4.011,0.375,9.12-0.045,11.541-3.779c2.462-3.799,2.452-8.44,2.458-12.817
			c-1.553,0.421-3.106,0.841-4.659,1.262c5.002,10.009,10.217,20.753,9.893,32.21c-0.517,18.299-23.174,19.505-36.707,23.038
			c-16.933,4.42-33.324,10.703-49.639,16.972c-14.157,5.44-28.508,10.216-40.344,20.062c-2.481,2.064,1.076,5.582,3.536,3.536
			c13.355-11.11,30.872-16.036,46.851-22.109c18.244-6.934,36.565-12.359,55.455-17.172c7.255-1.849,15.109-3.837,20.278-9.559
			c3.949-4.371,5.442-10.207,5.604-15.958c0.332-11.761-5.49-23.299-10.609-33.543c-1.143-2.287-4.655-1.125-4.659,1.262
			c-0.004,2.782-0.014,5.512-0.725,8.22c-1.057,4.026-6.785,4.202-9.966,2.781c-4.933-2.204-6.727-9.703-9.65-13.825
			c-1.378-1.943-4.659-1.381-4.659,1.262c0,0.521,0,1.042,0,1.562C588.188,79.537,593.188,79.537,593.188,76.312L593.188,76.312z"/>
	</g>
</g>
<g>
	<g>
		<path fill="#231F20" d="M698.705,33.92c-6.627-5.817-21.017-4.56-24.195,4.909c-1.346,4.012-0.299,8.222,3.328,10.504
			c3.574,2.249,8.879,1.396,12.849,1.354c-0.222-1.637-0.443-3.274-0.665-4.911c-12.391,5.094-17.294,18.144-12.28,30.459
			c5.659,13.9,21.001,17.075,33.922,11.862c2.95-1.19,1.663-6.028-1.329-4.821c-10.446,4.214-21.764,2.837-27.477-7.806
			c-4.969-9.256-1.263-20.862,8.494-24.873c2.457-1.01,2.368-4.943-0.665-4.911c-3.859,0.041-11.719,1.65-11.717-3.987
			c0.004-7.03,12.394-7.585,16.199-4.246C697.582,39.573,701.133,36.051,698.705,33.92L698.705,33.92z"/>
	</g>
</g>
<g>
	<g>
		<path fill="#231F20" d="M680.375,16.938c0.228,19.322,7.543,37.458,8.572,56.609c0.623,11.582-0.098,28.814,9.347,37.347
			c2.386,2.155,5.933-1.37,3.536-3.536c-4.396-3.972-5.512-10.461-6.412-16.043c-1.063-6.595-1.222-13.337-1.593-19.996
			c-1.024-18.407-8.231-35.785-8.451-54.381C685.337,13.715,680.337,13.712,680.375,16.938L680.375,16.938z"/>
	</g>
</g>
<g>
	<g>
		<path fill="#231F20" d="M746.938,24.125c12.921-0.163,25.688-3.239,38.165-6.339c3.128-0.777,1.801-5.599-1.329-4.821
			c-12.053,2.995-24.354,6.003-36.835,6.161C743.716,19.166,743.712,24.166,746.938,24.125L746.938,24.125z"/>
	</g>
</g>
<g>
	<g>
		<path fill="#231F20" d="M761.625,20.062c0.086,14.141,1.915,28.184,2.779,42.284c0.856,13.98,0.346,28.09,0.346,42.091
			c0,3.224,5,3.224,5,0c0-14.013,0.414-28.095-0.346-42.091c-0.767-14.112-2.693-28.134-2.779-42.284
			C766.605,16.839,761.605,16.837,761.625,20.062L761.625,20.062z"/>
	</g>
</g>
<g>
	<g>
		<path fill="#231F20" d="M788.5,59.125c0-0.521,0-1.042,0-1.562c0-2.812-4.203-3.42-4.911-0.665
			c-3.16,12.297-0.242,24.99,1.562,37.267c0.468,3.181,5.285,1.824,4.821-1.329c-1.669-11.352-4.485-23.235-1.562-34.608
			c-1.637-0.222-3.274-0.443-4.911-0.665c0,0.521,0,1.042,0,1.562C783.5,62.349,788.5,62.349,788.5,59.125L788.5,59.125z"/>
	</g>
</g>
<g>
	<g>
		<path fill="#231F20" d="M784.438,46c3.224,0,3.224-5,0-5S781.213,46,784.438,46L784.438,46z"/>
	</g>
</g>
<g>
	<g>
		<path fill="#231F20" d="M802.221,92.238c-3.736-5.267-9.75-18.774-3.105-23.841c5.957-4.543,8.621,11.348,9.473,14.83
			c0.679,2.772,4.909,2.135,4.911-0.665c0.002-4.455,0.353-26.454,8.793-21.666c4.39,2.491,5.41,10.009,6.209,14.435
			c0.846,4.687,1.091,9.463,1.963,14.145c0.59,3.167,5.408,1.822,4.821-1.329c-1.884-10.123-0.888-30.357-14.246-32.996
			c-12.177-2.406-12.536,20.375-12.54,27.411c1.637-0.222,3.274-0.443,4.911-0.665c-1.545-6.311-4.848-23.529-15.105-18.749
			c-11.943,5.565-6.195,23.446-0.402,31.613C799.753,97.368,804.091,94.875,802.221,92.238L802.221,92.238z"/>
	</g>
</g>
<g>
	<g>
		<path fill="#231F20" d="M831.977,77.161c9.795-2.466,17.539-12.155,19.172-21.922c0.536-3.207,0.48-7.613-2.364-9.795
			c-3.416-2.622-7.255,0.134-9.865,2.539c-6.664,6.14-6.454,16.173-1.116,23.043c5.347,6.881,16.279,7.397,24.094,9.261
			c3.135,0.747,4.465-4.074,1.329-4.821c-9.413-2.244-24.384-2.894-24.423-15.683c-0.009-3.102,1.193-6.332,3.651-8.263
			c0.889-0.699,2.994-3.527,3.773-1.023c0.589,1.89,0.003,4.248-0.437,6.086c-1.68,7.027-8.143,13.997-15.144,15.759
			C827.523,73.126,828.849,77.948,831.977,77.161L831.977,77.161z"/>
	</g>
</g>
</svg>
