<?xml version="1.0" encoding="utf-8"?>
<!-- Generator: Adobe Illustrator 17.0.0, SVG Export Plug-In . SVG Version: 6.00 Build 0)  -->
<!DOCTYPE svg PUBLIC "-//W3C//DTD SVG 1.0//EN" "http://www.w3.org/TR/2001/REC-SVG-20010904/DTD/svg10.dtd">
<svg version="1.0" id="Layer_1" xmlns="http://www.w3.org/2000/svg" xmlns:xlink="http://www.w3.org/1999/xlink" x="0px" y="0px"
	 width="1185px" height="890px" viewBox="0 0 1185 890" enable-background="new 0 0 1185 890" xml:space="preserve">
<g>
	<g>
		<path d="M120.304,276.618c0.164,6.626,3.125,12.801,3.125,19.299c0,7.629,0,15.259,0,22.888c0,15.8,4.563,31.169,5.136,46.942
			c0.582,16.033,0.082,32.093-0.229,48.126c-0.314,16.198-0.215,32.398-0.59,48.596c-1.511,65.295-7.638,130.447-7.436,195.789
			c0.05,16.304,1.416,32.581,2.63,48.828c1.214,16.255,1.8,32.435,2.12,48.725c0.307,15.647,2.093,31.226,2.799,46.854
			c0.339,7.509,0.145,14.895-0.328,22.39c-0.305,4.823-0.741,12.238,1.967,16.544c2.145,3.409,7.249,3.143,10.689,3.143
			c7.307,0,14.644,0.291,21.898-0.76c7.54-1.092,14.966-2.879,22.55-3.668c7.151-0.744,14.326,0.287,21.445,0.898
			c15.534,1.333,31.616-1.689,47.097-3.07c16.012-1.428,32.062-2.471,48.145-2.294c15.948,0.176,31.443,2.812,47.225,4.692
			c15.618,1.861,31.356,2.605,47.076,2.814c31.534,0.419,62.861-2.387,94.33-3.675c16.005-0.655,32.032-0.398,48.038-1.015
			c15.505-0.597,30.889-2.494,46.415-2.95c15.804-0.464,31.905-1.057,47.687,0.007c15.743,1.062,31.166,5.034,46.666,7.75
			c15.087,2.645,30.186,4.05,45.51,3.415c15.9-0.658,31.615-4.016,47.361-6.116c32.161-4.289,64.537-6.857,96.94-8.385
			c32.311-1.523,64.703-2.019,97.047-1.559c16.493,0.235,32.983,0.655,49.479,0.504c16.14-0.148,32.212-1.584,48.347-1.799
			c12.504-0.167,25.013,0.281,37.486,1.145c3.22,0.223,3.198-4.779,0-5c-32.674-2.263-65.043,0.794-97.708,0.686
			c-32.626-0.109-65.195-0.943-97.826-0.231c-32.384,0.706-64.751,2.41-97.002,5.465c-15.732,1.49-31.424,3.371-47.07,5.589
			c-16.172,2.293-31.986,5.045-48.386,4.876c-31.168-0.322-60.949-11.697-92.118-11.697c-15.862,0-31.726,0.039-47.575,0.764
			c-15.582,0.713-31.022,2.537-46.639,2.865c-16.047,0.337-32.086,0.266-48.112,1.296c-15.6,1.003-31.203,1.936-46.825,2.53
			c-31.827,1.21-63.88,0.859-95.423-3.949c-31.547-4.809-62.975-2.648-94.591,0.329c-7.625,0.718-15.249,1.451-22.88,2.103
			c-7.545,0.645-14.989-0.358-22.505-0.977c-14.921-1.229-28.98,4.158-43.78,4.413c-3.513,0.061-7.033,0-10.547,0
			c-1.927,0-7.64,0.918-8.576-1.461c-1.086-2.763-0.889-6.777-0.947-9.697c-0.082-4.177,0.489-8.374,0.665-12.545
			c0.658-15.622-1.464-31.437-2.443-47.009c-1.011-16.076-0.722-32.188-1.739-48.272c-1.03-16.281-2.541-32.527-3.253-48.828
			c-1.415-32.374,0.48-65.013,2.053-97.351c1.594-32.766,3.569-65.513,4.652-98.302c1.068-32.321,1.535-64.796,1.45-97.135
			c-0.02-7.618-0.238-15.233-0.689-22.838c-0.459-7.732-2.468-15.503-3.577-23.165c-1.122-7.758-1.111-15.489-1.111-23.305
			c0-6.834,1.095-14.551-1.014-21.082c-1.284-3.973-2.007-7.957-2.111-12.135C125.224,273.4,120.224,273.392,120.304,276.618
			L120.304,276.618z"/>
	</g>
</g>
<g>
	<g>
		<path d="M124.375,282.758c3.224,0,3.224-5,0-5S121.151,282.758,124.375,282.758L124.375,282.758z"/>
	</g>
</g>
<g>
	<g>
		<path d="M119.988,271.85c-9.495,4.228-15.275,14.768-21.209,22.772c-1.923,2.594,2.42,5.083,4.317,2.524
			c5.448-7.348,10.709-17.101,19.416-20.978C125.453,274.858,122.907,270.55,119.988,271.85L119.988,271.85z"/>
	</g>
</g>
<g>
	<g>
		<path d="M119.988,276.167c6.248,3.087,13.119,5.677,18.244,10.547c2.336,2.219,5.877-1.311,3.536-3.536
			c-5.478-5.206-12.577-8.028-19.256-11.328C119.632,270.427,117.097,274.739,119.988,276.167L119.988,276.167z"/>
	</g>
</g>
<g>
	<g>
		<path d="M1098.477,826.285c-8.118-3.404-16.033-8.859-22.334-14.982c-2.313-2.247-5.851,1.285-3.536,3.536
			c6.968,6.77,15.591,12.515,24.541,16.268C1100.12,832.353,1101.404,827.513,1098.477,826.285L1098.477,826.285z"/>
	</g>
</g>
<g>
	<g>
		<path d="M1099.375,826.196c-6.927-0.905-13.141,3.618-18.327,7.634c-7.262,5.623-14.354,11.68-20.941,18.098
			c-2.312,2.253,1.226,5.786,3.536,3.536c5.501-5.361,11.431-10.772,17.524-15.442c5.154-3.951,11.203-9.741,18.208-8.826
			C1102.565,831.613,1102.525,826.607,1099.375,826.196L1099.375,826.196z"/>
	</g>
</g>
<g>
	<g>
		<path d="M38.591,235.247c-2.643,6.26-0.882,13.183,0.674,19.519c2.148,8.747,4.117,17.581,6.887,26.157
			c0.987,3.055,5.815,1.748,4.821-1.329c-2.344-7.26-3.973-14.7-5.845-22.086c-1.466-5.786-4.696-13.872-2.22-19.737
			C44.147,234.837,39.842,232.285,38.591,235.247L38.591,235.247z"/>
	</g>
</g>
<g>
	<g>
		<path d="M37.625,232.446c-0.521,0-1.042,0-1.562,0c0.72,1.254,1.439,2.508,2.159,3.762c2.615-3.475,11.293-2.89,9.889,2.609
			c-1.152,4.509-5.385,8.312-7.956,12.055c-1.831,2.665,2.504,5.162,4.317,2.524c3.255-4.737,11.77-12.651,8.136-19.134
			c-4-7.136-14.106-6.685-18.703-0.577c-1.181,1.569,0.431,3.762,2.159,3.762c0.521,0,1.042,0,1.562,0
			C40.849,237.446,40.849,232.446,37.625,232.446L37.625,232.446z"/>
	</g>
</g>
<g>
	<g>
		<path d="M63.221,243.059c-2.302-4.701-5.671-12.437,0.666-15.33c2.93-1.338,0.387-5.646-2.524-4.317
			c-9.258,4.227-5.948,15.047-2.459,22.17C60.322,248.478,64.633,245.943,63.221,243.059L63.221,243.059z"/>
	</g>
</g>
<g>
	<g>
		<path d="M77.5,226.196c-12.912-1.638-9.392,19.678,1.904,19.135c12.449-0.599-0.076-19.86-5.927-22.171
			c-3.002-1.186-4.292,3.651-1.329,4.821c2.087,0.824,3.822,3.689,4.978,5.458c0.659,1.008,3.624,5.515,2.524,6.799
			c-2.058,2.402-10.623-10.119-2.15-9.043C80.693,231.601,80.654,226.596,77.5,226.196L77.5,226.196z"/>
	</g>
</g>
<g>
	<g>
		<path d="M97.188,225.571c-0.071-2.633-2.379-5.482-5.324-3.721c-2.924,1.748-4.298,4.757-4.795,8.033
			c-0.92,6.062,1.99,15.141,9.638,14.088c14.806-2.038,2.11-32.711-1.423-39.974c-1.41-2.899-5.721-0.363-4.317,2.524
			c3.795,7.801,6.63,17.031,7.32,25.68c0.213,2.674-1.273,10.779-5.086,5.361c-0.86-1.222-1.932-11.89,0.627-10.947
			c-0.582-0.582-1.164-1.164-1.746-1.746c0.035,0.234,0.071,0.468,0.106,0.703C92.274,228.789,97.275,228.797,97.188,225.571
			L97.188,225.571z"/>
	</g>
</g>
<g>
	<g>
		<path d="M106.591,222.747c-2.461,5.66,0.452,15.791,8.091,14.581c7.782-1.232,5.979-11.877,4.29-17.109
			c-0.986-3.055-5.814-1.748-4.821,1.329c0.834,2.583,2.584,7.902,0.647,10.358c-2.515,3.188-4.717-4.733-3.89-6.636
			C112.181,222.345,107.874,219.796,106.591,222.747L106.591,222.747z"/>
	</g>
</g>
<g>
	<g>
		<path d="M130.029,213.372c-3.256,4.308-4.712,10.427-2.424,15.517c2.375,5.281,7.768,6.679,13.059,5.343
			c3.125-0.789,1.799-5.611-1.329-4.821c-9.175,2.316-8.937-8.292-4.989-13.515C136.292,213.321,131.947,210.834,130.029,213.372
			L130.029,213.372z"/>
	</g>
</g>
<g>
	<g>
		<path d="M139.062,191.196c0.236,11.969,4.521,23.3,6.339,35.04c0.492,3.179,5.31,1.824,4.821-1.329
			c-1.749-11.288-5.934-22.209-6.161-33.71C143.999,187.976,138.999,187.97,139.062,191.196L139.062,191.196z"/>
	</g>
</g>
<g>
	<g>
		<path d="M140.205,217.964c3.784-3.782,7.55-7.534,11.994-10.547c2.652-1.798,0.154-6.132-2.524-4.317
			c-4.804,3.257-8.914,7.238-13.006,11.328C134.388,216.71,137.923,220.245,140.205,217.964L140.205,217.964z"/>
	</g>
</g>
<g>
	<g>
		<path d="M159.464,209.048c1.431,4.606,1.694,9.457,3.125,14.062c0.953,3.069,5.781,1.758,4.821-1.329
			c-1.431-4.606-1.694-9.457-3.125-14.062C163.332,204.65,158.505,205.96,159.464,209.048L159.464,209.048z"/>
	</g>
</g>
<g>
	<g>
		<path d="M157.188,199.946c3.224,0,3.224-5,0-5S153.963,199.946,157.188,199.946L157.188,199.946z"/>
	</g>
</g>
<g>
	<g>
		<path d="M172.216,212.77c2.675,5.242,8.121,12.607,14.686,8.504c4.984-3.114,2.523-13.083,0.569-17.278
			c-1.36-2.921-5.67-0.38-4.317,2.524c0.764,1.641,1.115,3.589,1.33,5.374c0.158,1.309,0.594,4.04-0.32,5.189
			c-2.284,2.87-6.902-5.408-7.63-6.836C175.068,207.374,170.754,209.905,172.216,212.77L172.216,212.77z"/>
	</g>
</g>
<g>
	<g>
		<path d="M195.402,198.111c1.431,4.606,1.694,9.457,3.125,14.062c0.953,3.069,5.781,1.758,4.821-1.329
			c-1.431-4.606-1.694-9.457-3.125-14.062C199.27,193.713,194.443,195.023,195.402,198.111L195.402,198.111z"/>
	</g>
</g>
<g>
	<g>
		<path d="M194.688,187.446c3.224,0,3.224-5,0-5S191.463,187.446,194.688,187.446L194.688,187.446z"/>
	</g>
</g>
<g>
	<g>
		<path d="M200.273,165.482c-1.781-0.649-0.985-0.765-0.314,0.895c0.548,1.355,1.02,2.743,1.495,4.125
			c1.303,3.79,2.475,7.627,3.638,11.461c2.095,6.905,4.162,13.839,5.935,20.835c0.791,3.124,5.614,1.798,4.821-1.329
			c-2.037-8.041-4.442-16.005-6.88-23.931c-1.23-3.998-2.487-7.998-3.963-11.913c-0.697-1.851-1.366-4.221-3.403-4.964
			C198.566,159.553,197.269,164.387,200.273,165.482L200.273,165.482z"/>
	</g>
</g>
<g>
	<g>
		<path d="M203.438,188.071c-0.006-0.356,0.001-0.445,0.022-0.268c-0.067,0.315,0.237-0.334-0.013-0.041
			c0.176-0.206,0.613-0.424,1.11-0.651c1.188-0.542,2.642-0.966,3.892-1.569c1.227-0.592,1.544-2.316,0.897-3.42
			c-0.729-1.244-2.193-1.489-3.42-0.897c-1.523,0.735-3.189,1.136-4.673,1.961c-1.834,1.02-2.738,2.839-2.816,4.885
			C198.315,191.297,203.316,191.285,203.438,188.071L203.438,188.071z"/>
	</g>
</g>
<g>
	<g>
		<path d="M209.464,185.611c2.211,7.484,7.478,8.031,13.971,5.234c3.207-1.381,6.854-3.885,9.443-0.34
			c2.517,3.446,3.467,8.288,4.009,12.429c0.465,3.558,0.789,7.966-1.038,11.198c-1.976,3.493-7.209,4.888-10.74,5.944
			c-7.885,2.36-16.359,2.934-23.871,6.461c-2.917,1.369-0.377,5.679,2.524,4.317c8.458-3.971,18.347-4.111,27.076-7.441
			c8.098-3.09,11.436-8.507,11.309-17.02c-0.098-6.567-1.741-17.927-8.083-21.68c-2.929-1.733-5.971-1.175-9.006-0.005
			c-4.052,1.563-8.978,5.647-10.772-0.427C213.374,181.196,208.548,182.511,209.464,185.611L209.464,185.611z"/>
	</g>
</g>
<g>
	<g>
		<path d="M1120.402,793.656c-2.071,13.944-5.783,27.591-6.064,41.776c-0.097,4.916-0.035,12.132,4.41,15.369
			c5.072,3.694,11.474-1.486,15.208-4.713c2.444-2.112-1.109-5.633-3.536-3.536c-2.149,1.857-8.001,7.265-9.929,2.519
			c-1.992-4.902-1.224-11.125-0.792-16.24c0.966-11.44,3.844-22.525,5.525-33.846
			C1125.691,791.833,1120.874,790.476,1120.402,793.656L1120.402,793.656z"/>
	</g>
</g>
<g>
	<g>
		<path d="M1114.574,826.167c3.52-1.702,7.324-2.699,11.238-2.784c3.219-0.07,3.226-5.07,0-5c-4.826,0.105-9.429,1.372-13.762,3.466
			C1109.148,823.253,1111.685,827.564,1114.574,826.167L1114.574,826.167z"/>
	</g>
</g>
<g>
	<g>
		<path d="M274.725,107.301c-5.054-19.462-13.28-41.1-8.062-61.323c0.801-3.101,2.134-6.565,4.929-8.387
			c4.499-2.934,8.538,3.135,10.727,6.284c2.665,3.834,4.168,7.051,1.269,11.402c-2.29,3.438-7.478,5.058-11.069,6.668
			c-1.431,0.642-1.628,2.357-1.104,3.634c4.175,10.171,16.022,14.481,20.898,24.314c1.539,3.103,6.277,0.572,4.737-2.531
			c-4.875-9.831-16.802-14.333-20.898-24.314c-0.368,1.211-0.736,2.422-1.104,3.634c8.03-3.6,20.043-10.568,14.428-21.353
			c-3.829-7.355-12.614-18.964-21.737-11.58c-7.098,5.744-7.804,16.867-8.194,25.298c-0.341,7.349,1.597,15.149,3.119,22.29
			c1.947,9.139,4.483,18.151,6.83,27.191C270.364,111.872,275.598,110.661,274.725,107.301L274.725,107.301z"/>
	</g>
</g>
<g>
	<g>
		<path d="M293.348,85.439c3.96-3.884,6.343-10.012,5.974-15.567c-0.366-5.485-4.93-7.842-9.482-4.579
			c-5.32,3.815-8.844,10.632-4.395,16.47c3.953,5.187,11.256,7.83,17.586,8.194c3.46,0.2,3.659-5.168,0.206-5.366
			c-6.464-0.372-19.49-5.637-12.071-13.381c0.684-0.714,1.434-1.372,2.273-1.895c0.623-0.388,0.938-0.135,0.343-0.444
			c0.396,0.205,0.197,2.55,0.171,2.963c-0.217,3.456-1.774,7.234-4.251,9.664C287.229,83.921,290.871,87.868,293.348,85.439
			L293.348,85.439z"/>
	</g>
</g>
<g>
	<g>
		<path d="M323.358,60.268c-8.796-3.877-16.769,7.042-18.77,14.329c-3.115,11.341,10.11,15.708,18.565,16.132
			c3.461,0.174,3.663-5.193,0.206-5.366c-4.967-0.25-15.071-1.651-13.652-9.141c0.873-4.609,6.479-13.279,12.025-10.835
			C324.905,66.786,326.488,61.648,323.358,60.268L323.358,60.268z"/>
	</g>
</g>
<g>
	<g>
		<path d="M351.218,65.388c-3.982-4.995-10.503-4.57-14.312,0.415c-4.104,5.369-3.907,13.444,1.503,17.852
			c4.927,4.012,10.766,3.024,14.543-1.896c3.704-4.824,3.824-12.473,0.406-17.424c-1.943-2.813-6.708-0.322-4.737,2.531
			c2.132,3.089,2.235,6.594,0.929,10.046c-1.025,2.706-3.622,4.959-6.509,3.461c-3.802-1.973-4.504-6.597-2.633-10.165
			c1.675-3.192,4.513-4.128,6.871-1.17C349.44,71.749,353.365,68.081,351.218,65.388L351.218,65.388z"/>
	</g>
</g>
<g>
	<g>
		<path d="M355.208,60.723c-0.075,8.033,3.442,21.234,11.542,24.677c10.729,4.56,11.832-12.421,12.077-18.732
			c0.135-3.46-5.231-3.666-5.366-0.206c-0.113,2.886-0.477,18.129-6.211,13.072c-4.412-3.889-6.729-12.896-6.675-18.606
			C360.606,57.472,355.24,57.256,355.208,60.723L355.208,60.723z"/>
	</g>
</g>
<g>
	<g>
		<path d="M381.209,84.465c6.719-1.439,12.338-8.155,14.284-14.509c2.072-6.766-4.617-11.285-10.512-7.81
			c-6.883,4.058-7.16,15.054-2.443,20.724c5.684,6.833,15.689,6.828,22.8,2.25c2.889-1.859,0.389-6.617-2.531-4.737
			c-4.133,2.661-9.335,3.658-13.801,1.175c-4.934-2.742-5.22-9.083-2.586-13.418c0.486-0.8,3.092-3.079,4.075-1.461
			c0.707,1.162-0.982,3.909-1.5,4.835c-1.874,3.344-5.137,6.891-9.013,7.722C376.597,79.961,377.821,85.191,381.209,84.465
			L381.209,84.465z"/>
	</g>
</g>
<g>
	<g>
		<path d="M416.632,78.52c-3.206-4.993-5.037-14.718,1.411-18.102c3.065-1.609,0.542-6.35-2.531-4.737
			c-9.076,4.763-8.485,17.787-3.617,25.37C413.75,83.941,418.508,81.441,416.632,78.52L416.632,78.52z"/>
	</g>
</g>
<g>
	<g>
		<path d="M424.085,62.653c-1.638,8.228,6.583,10.559,13.267,9.368c2.202-0.393,4.358-0.74,6.468-1.51
			c3.075-1.123,5.816,1.881,7.581,3.993c1.783,2.133,3.013,4.946,3.846,7.569c0.774,2.435,2.457,4.677,3.361,7.112
			c1.867,5.029,2.529,10.593,1.33,15.845c-1.642,7.192-7.673,10.56-14.305,12.289c-12.209,3.181-25.623,0.177-37.781-1.84
			c-3.41-0.566-3.575,4.807-0.206,5.366c20.124,3.338,58.084,9.075,58.274-21.486c0.033-5.461-1.626-10.843-3.855-15.768
			c-2.167-4.787-4.178-9.689-7.579-13.759c-2.801-3.352-7.513-5.887-11.894-4.55c-1.804,0.551-14.402,4.085-13.388-1.003
			C429.876,60.915,424.76,59.265,424.085,62.653L424.085,62.653z"/>
	</g>
</g>
<g>
	<g>
		<path d="M539.629,68.127c-7.114-11.296-21.487-1.367-20.398,9.685c0.51,5.178,5.557,9.397,10.455,7.302
			c4.188-1.792,6.779-7.683,8.329-11.618c-1.51,0.338-3.02,0.674-4.529,1.012c2.893,3.294,5.105,7.089,7.998,10.384
			c2.289,2.606,6.224-1.049,3.941-3.649c-2.893-3.294-5.105-7.089-7.998-10.384c-1.412-1.607-3.82-0.792-4.529,1.012
			c-0.729,1.853-1.653,3.58-2.717,5.262c-1.474,2.332-3.087,4.653-4.876,1.482c-3.175-5.624,5.562-14.353,9.591-7.956
			C536.725,73.568,541.48,71.067,539.629,68.127L539.629,68.127z"/>
	</g>
</g>
<g>
	<g>
		<path d="M555.94,90.263c-1.101-15.963-11.559-49.725,11.859-54.054c3.405-0.629,2.171-5.858-1.228-5.229
			c-27.423,5.07-17.307,40.103-15.997,59.078C550.809,93.474,556.179,93.716,555.94,90.263L555.94,90.263z"/>
	</g>
</g>
<g>
	<g>
		<path d="M539.801,72.082c9.115,1.931,18.31,0.913,27.541,1.153c3.46,0.09,3.67-5.276,0.206-5.366
			c-8.691-0.227-17.542,0.911-26.121-0.907C538.066,66.25,536.418,71.365,539.801,72.082L539.801,72.082z"/>
	</g>
</g>
<g>
	<g>
		<path d="M569.147,43.746c-0.431,13.5,0.652,26.937,1.809,40.376c0.293,3.403,5.663,3.65,5.366,0.206
			c-1.156-13.439-2.24-26.876-1.809-40.376C574.623,40.492,569.257,40.284,569.147,43.746L569.147,43.746z"/>
	</g>
</g>
<g>
	<g>
		<path d="M562.196,67.632c6.535-4.278,13.945-5.746,21.471-7.301c3.39-0.701,2.164-5.931-1.228-5.229
			c-7.96,1.645-15.869,3.272-22.774,7.794C556.794,64.774,559.292,69.534,562.196,67.632L562.196,67.632z"/>
	</g>
</g>
<g>
	<g>
		<path d="M591.344,79.099c7.249-1.089,10.999-8.438,6.93-14.791c-4.375-6.831-12.931-2.996-16.536,2.506
			c-4.267,6.51,1.78,13.615,6.807,17.319c6.358,4.684,15.809,7.391,23.251,3.879c3.133-1.478,0.596-6.213-2.531-4.737
			c-7.642,3.607-19.546-2.381-23.061-9.541c-1.579-3.215,2.81-9.38,6.364-7.646c1.4,0.683,1.995,2.441,2.043,3.888
			c0.09,2.663-2.276,3.563-4.496,3.897C586.694,74.384,587.938,79.61,591.344,79.099L591.344,79.099z"/>
	</g>
</g>
<g>
	<g>
		<path d="M627.529,86.074c-6.426-6.124-5.778-19.415,2.067-24.251c2.932-1.807,0.427-6.561-2.531-4.737
			c-10.632,6.553-12.55,23.99-3.476,32.637C626.086,92.102,630.042,88.467,627.529,86.074L627.529,86.074z"/>
	</g>
</g>
<g>
	<g>
		<path d="M686.598,64.41c-8.031-3.785-18.703,1.807-16.546,11.517c0.932,4.198,6.228,7.607,10.416,6.959
			c4.079-0.632,6.601-3.733,7.05-7.723c-1.551,0.573-3.102,1.147-4.654,1.722c2.844,3.328,4.138,7.487,5.858,11.438
			c1.383,3.174,6.114,0.629,4.737-2.531c-1.927-4.424-3.474-8.832-6.656-12.555c-1.63-1.908-4.407-0.462-4.654,1.722
			c-0.529,4.695-6.811,2.174-7.086-1.443c-0.325-4.285,5.495-6.061,8.648-4.575C686.806,70.398,689.722,65.882,686.598,64.41
			L686.598,64.41z"/>
	</g>
</g>
<g>
	<g>
		<path d="M722.708,34.205c6.194,12.578,5.362,27.247,6.461,40.878c0.274,3.408,5.645,3.653,5.366,0.206
			c-1.179-14.631-0.441-30.113-7.09-43.614C725.916,28.567,721.177,31.098,722.708,34.205L722.708,34.205z"/>
	</g>
</g>
<g>
	<g>
		<path d="M757.352,58.729c-11.167-9.008-22.097,16.037-9.543,19.66c0.905,0.262,1.948,0.09,2.637-0.59
			c3.463-3.413,4.864-8.073,7.599-12.008c-1.544-0.059-3.089-0.119-4.633-0.178c1.798,3.959,3.818,7.611,6.72,10.878
			c2.304,2.593,6.239-1.061,3.941-3.649c-2.602-2.929-4.315-6.219-5.923-9.76c-0.874-1.924-3.554-1.732-4.633-0.178
			c-2.428,3.491-3.665,7.945-6.718,10.955c0.879-0.196,1.759-0.394,2.637-0.59c-4.439-1.282-0.201-14.231,5.032-10.01
			C757.164,65.436,760.014,60.876,757.352,58.729L757.352,58.729z"/>
	</g>
</g>
<g>
	<g>
		<path d="M764.575,27.738c-0.469,13.999,0.528,27.992,0.067,41.988c-0.114,3.46,5.253,3.668,5.366,0.206
			c0.46-13.996-0.535-27.99-0.067-41.988C770.057,24.483,764.691,24.276,764.575,27.738L764.575,27.738z"/>
	</g>
</g>
<g>
	<g>
		<path d="M758.328,60.319c4.583-1.367,9.026-3.149,13.609-4.516c3.299-0.984,2.101-6.222-1.228-5.229
			c-4.583,1.367-9.026,3.149-13.609,4.516C753.802,56.074,755,61.312,758.328,60.319L758.328,60.319z"/>
	</g>
</g>
<g>
	<g>
		<path d="M773.092,76.001c9.755,4.491,18.62-10.831,19.232-18.647c0.072-0.914-0.46-1.898-1.24-2.368
			c-7.077-4.265-15.528,2.03-14.357,10.138c1.158,8.021,10.095,11.333,17.198,11.773c3.459,0.214,3.658-5.152,0.206-5.366
			c-3.526-0.218-7.22-1.135-9.984-3.457c-3.84-3.228-1.31-11.786,4.05-8.557c-0.414-0.79-0.827-1.578-1.24-2.368
			c-0.359,4.584-6.257,16.489-12.241,13.733C771.572,69.433,769.993,74.573,773.092,76.001L773.092,76.001z"/>
	</g>
</g>
<g>
	<g>
		<path d="M845.779,73.881c-4.947-3.239-0.893-13.878,1.527-17.481c6.373-9.486,13.145,6.522,13.116,11.966
			c-0.019,3.456,5.347,3.673,5.366,0.206c0.05-9.008-8.844-27.251-20.15-18.105c-6.741,5.453-11.514,22.201-2.745,27.945
			C845.798,80.312,848.672,75.775,845.779,73.881L845.779,73.881z"/>
	</g>
</g>
<g>
	<g>
		<path d="M869.648,49.282c1.599,6.057,1.454,12.434,2.646,18.576c0.659,3.399,5.889,2.168,5.229-1.228
			c-1.192-6.141-1.047-12.518-2.646-18.576C873.996,44.715,868.761,45.924,869.648,49.282L869.648,49.282z"/>
	</g>
</g>
<g>
	<g>
		<path d="M866.288,29.293c3.46,0.133,3.666-5.233,0.206-5.366C863.034,23.794,862.828,29.16,866.288,29.293L866.288,29.293z"/>
	</g>
</g>
<g>
	<g>
		<path d="M891.518,52.051c-0.751-4.331-4.418-7.578-8.189-3.757c-3.486,3.532-4.454,10.659-1.413,14.695
			c2.973,3.947,8.59,7.019,12.293,2.153c3.197-4.2,3.958-10.341,4.216-15.471c-1.766,0.17-3.532,0.341-5.298,0.511
			c1.002,4.629,2.172,9.215,3.08,13.865c1.046,5.36,2.679,12.638-0.304,17.625c-4.556,7.619-21.766-1.674-27.404-3.833
			c-3.243-1.242-4.841,3.889-1.625,5.119c9.225,3.532,22.632,10.903,31.791,3.652c4.672-3.699,4.423-11.122,3.862-16.375
			c-0.772-7.223-2.637-14.201-4.172-21.282c-0.65-3.002-5.147-2.493-5.298,0.511c-0.197,3.931-0.532,9.796-3.435,12.771
			c-1.644,1.683-4.11-4.42-4.115-5.455c-0.006-1.323,0.461-2.686,1.06-3.85c1.105-2.149-0.513-1.016-0.278,0.346
			C886.88,56.69,892.107,55.454,891.518,52.051L891.518,52.051z"/>
	</g>
</g>
<g>
	<g>
		<path d="M906.151,17.095c2.393,11.143-0.743,22.598,2.066,33.668c0.613,2.418,3.473,2.595,4.879,0.829
			c1.923-2.413,2.372-5.506,3.676-8.255c-1.236,0.274-2.472,0.548-3.707,0.822c4.433,2.259,3.806,11.122,4.892,15.376
			c0.855,3.348,6.089,2.136,5.229-1.228c-1.54-6.029-0.747-15.372-7.235-18.678c-1.171-0.596-3.04-0.589-3.707,0.822
			c-1.26,2.657-1.857,5.974-3.676,8.255c1.626,0.276,3.253,0.553,4.879,0.829c-2.792-11.006,0.327-22.52-2.066-33.668
			C910.655,12.482,905.425,13.706,906.151,17.095L906.151,17.095z"/>
	</g>
</g>
<g>
	<g>
		<path d="M931.237,17.343c-0.499,14.894,0.327,29.912-3.292,44.504c-0.831,3.35,4.286,4.985,5.119,1.625
			c3.743-15.089,3.023-30.519,3.539-45.923C936.72,14.088,931.354,13.881,931.237,17.343L931.237,17.343z"/>
	</g>
</g>
<g>
	<g>
		<path d="M921.178,43.156c6.752,0.136,13.436-1.04,20.188-0.904c3.458,0.069,3.671-5.297,0.206-5.366
			c-6.752-0.136-13.436,1.04-20.188,0.904C917.925,37.72,917.713,43.086,921.178,43.156L921.178,43.156z"/>
	</g>
</g>
<g>
	<g>
		<path fill="#ED1C24" d="M123.477,781.107c15.728-3.998,27.307-18.192,37.83-29.595c10.528-11.408,23.347-27.414,40.064-28.738
			c24.673-1.953,34.678,28.446,45.845,44.684c12.902,18.761,33.897,30.988,57.209,27.512c11.679-1.742,21.648-7.314,29.53-16.068
			c9.36-10.396,18.942-20.659,29.217-30.16c11.022-10.193,23.348-18.349,35.76-26.706c12.463-8.391,25.085-16.553,38.794-22.784
			c29.41-13.368,59.799-24.913,91.089-33.014c30.005-7.768,60.742-12.315,91.283-17.379c30.282-5.021,60.392-11.133,90.508-17.057
			c14.314-2.815,28.073-8.105,42.559-10.069c7.632-1.035,15.323-3.529,22.852-5.191c8.225-1.816,16.475-3.513,24.756-5.05
			c32.326-6.002,65.09-10.22,97.565-15.397c16.569-2.641,33.283-5.951,50.002-7.414c15.355-1.343,30.778-1.737,46.153-2.796
			c16.633-1.145,33.261-3.202,49.297-7.902c3.088-0.905,1.772-5.73-1.329-4.821c-29.964,8.78-61.442,7.953-92.291,10.368
			c-15.824,1.239-31.615,4.334-47.285,6.811c-16.329,2.58-32.646,5.243-48.974,7.83c-16.236,2.572-32.55,4.732-48.755,7.483
			c-15.985,2.713-31.811,6.31-47.607,9.941c-6.809,1.565-13.699,2.582-20.48,4.306c-7.513,1.909-14.927,4.171-22.469,5.97
			c-14.833,3.539-30.036,5.822-45.001,8.749c-60.634,11.859-123.088,17.938-181.564,38.807
			c-29.07,10.375-58.14,22.282-84.017,39.223c-12.087,7.913-24.358,15.758-35.57,24.889c-10.782,8.781-20.461,18.834-29.91,29.005
			c-9.311,10.023-17.326,19.501-31.183,22.845c-12.855,3.103-26.428,0.099-37.662-6.52c-21.803-12.845-26.039-40.113-44.378-56.096
			c-31.717-27.644-60.506,15.419-80.97,35.226c-6.319,6.116-13.503,12.079-22.195,14.289
			C119.025,777.079,120.35,781.902,123.477,781.107L123.477,781.107z"/>
	</g>
</g>
<g>
	<g>
		<path fill="#00A651" d="M119.387,643.355c13.28-5.641,25.385-13.393,37.94-20.419c6.396-3.579,12.889-6.641,19.873-8.893
			c6.713-2.165,13.668-3.267,20.41-5.274c11.832-3.522,22.655-9.843,35.459-9.179c7.007,0.364,14.031,4.803,20.088,7.968
			c5.18,2.707,10.992,2.766,16.765,2.384c22.057-1.458,39.253-17.858,52.493-34.066c7.421-9.084,13.925-18.831,21.712-27.623
			c9.177-10.362,19.459-19.699,29.848-28.818c10.313-9.052,20.822-17.878,30.836-27.265c10.443-9.789,19.585-20.548,28.734-31.526
			c4.934-5.921,9.868-11.842,14.803-17.763c4.66-5.592,8.44-11.663,13.564-16.931c9.801-10.077,21.019-18.424,32.987-25.727
			c47.059-28.715,102.541-39.446,156.135-48.61c28.693-4.907,57.33-10.076,85.998-15.124c15.257-2.686,30.544-5.2,45.876-7.42
			c15.326-2.219,30.897-0.868,46.167-3.245c7.533-1.173,14.936-3.05,22.479-4.216c7.978-1.232,16.036-1.934,24.091-2.407
			c16.122-0.947,32.332-0.542,48.476-0.943c32.45-0.806,64.84-0.665,97.129-4.25c3.168-0.352,3.202-5.356,0-5
			c-32.293,3.586-64.677,3.419-97.129,4.25c-16.152,0.414-32.34,0.097-48.476,0.943c-15.679,0.823-30.711,3.744-46.105,6.522
			c-15.125,2.73-30.784,1.097-46.026,3.248c-15.985,2.256-31.911,4.91-47.811,7.696c-29.206,5.119-58.375,10.4-87.603,15.398
			c-53.172,9.092-107.347,20.219-154.326,48c-11.612,6.866-22.119,14.82-31.978,24.013c-4.491,4.187-8.557,8.743-12.271,13.628
			c-5.155,6.78-10.354,13.409-15.815,19.962c-9.317,11.181-18.452,22.391-28.881,32.57c-9.809,9.574-20.307,18.421-30.653,27.402
			c-10.439,9.062-20.721,18.306-30.204,28.377c-8.318,8.835-15.168,18.678-22.612,28.213
			c-13.815,17.694-31.594,35.638-55.561,35.867c-13.124,0.125-23.038-11.16-36.579-10.502c-12.355,0.6-22.94,6.375-34.525,9.824
			c-6.204,1.847-12.616,2.892-18.825,4.802c-6.896,2.122-13.267,5.161-19.597,8.587c-12.61,6.825-24.561,14.712-37.718,20.51
			c-0.564,0.24-1.128,0.479-1.692,0.719C113.904,640.294,116.455,644.6,119.387,643.355L119.387,643.355z"/>
	</g>
</g>
<g>
	<g>
		<path d="M648.438,375.571c1.251,9.444,3.547,18.469,6.956,27.365c1.673,4.366,3.937,7.996,6.086,12.103
			c2.303,4.401,3.254,9.502,4.235,14.322c0.643,3.158,5.462,1.818,4.821-1.329c-0.841-4.133-1.783-8.196-3.262-12.154
			c-1.691-4.528-4.654-8.305-6.464-12.764c-3.598-8.864-6.115-18.055-7.372-27.542C653.02,372.423,648.015,372.382,648.438,375.571
			L648.438,375.571z"/>
	</g>
</g>
<g>
	<g>
		<path d="M648.438,374.008c-0.242,6.747-3.862,13.502-7.471,19.051c-1.764,2.712,2.567,5.215,4.317,2.524
			c4.101-6.304,7.88-13.932,8.154-21.574C653.553,370.783,648.553,370.794,648.438,374.008L648.438,374.008z"/>
	</g>
</g>
<g>
	<g>
		<path d="M647.216,378.395c3.567,6.541,10.908,8.154,16.016,13.006c2.336,2.219,5.878-1.311,3.536-3.536
			c-4.657-4.423-12.05-6.155-15.234-11.994C649.99,373.041,645.672,375.564,647.216,378.395L647.216,378.395z"/>
	</g>
</g>
<g>
	<g>
		<path d="M592.277,448.111c4.586,12.653,6.204,26.039,9.375,39.062c1.607-0.443,3.214-0.886,4.821-1.329
			c-1.17-3.409-6.573-14.596-1.567-16.569c3.268-1.288,6.929,8.594,7.935,10.683c1.399,2.904,5.709,0.367,4.317-2.524
			c-2.559-5.314-6.705-15.692-14.441-12.642c-8.879,3.5-3.145,16.323-1.066,22.381c1.04,3.029,5.59,1.828,4.821-1.329
			c-3.171-13.023-4.789-26.41-9.375-39.062C596.008,443.775,591.175,445.072,592.277,448.111L592.277,448.111z"/>
	</g>
</g>
<g>
	<g>
		<path d="M624.971,476.833c2.259-3.359,3.556-8.839,0.622-12.257c-3.103-3.614-6.985-0.705-9.016,2.366
			c-6.124,9.26,5.151,19.659,13.383,21.978c3.11,0.876,4.428-3.949,1.329-4.821c-4.446-1.252-8.379-4.379-10.543-8.458
			c-0.611-1.152-0.746-2.448-0.722-3.724c0.011-0.569,1.712-4.169,1.779-4.14c1.871,0.82-0.604,5.72-1.15,6.533
			C618.849,476.993,623.182,479.493,624.971,476.833L624.971,476.833z"/>
	</g>
</g>
<g>
	<g>
		<path d="M643.33,465.991c-8.598-7.983-16.056,8.704-10.6,15.254c2.895,3.475,7.586,5.674,10.691,1.083
			c2.469-3.651,3.367-9.438,2.115-13.671c-1.523,0.642-3.046,1.284-4.569,1.926c1.814,3.619,3.824,6.945,6.641,9.881
			c2.236,2.33,5.767-1.21,3.536-3.536c-2.525-2.632-4.237-5.632-5.859-8.869c-1.283-2.56-5.365-0.762-4.569,1.926
			c0.703,2.375,0.231,5.077-0.451,7.403c-0.767,2.619-1.33,3.291-3.183,1.102c-1.506-1.78-1.329-3.871-0.737-6.124
			c0.448-1.706,1.557-4.6,3.452-2.841C642.154,471.717,645.698,468.189,643.33,465.991L643.33,465.991z"/>
	</g>
</g>
<g>
	<g>
		<path d="M648.527,443.423c4.385,13.343,7.55,27.007,10.938,40.625c0.778,3.128,5.6,1.8,4.821-1.329
			c-3.387-13.618-6.553-27.282-10.938-40.625C652.346,439.045,647.517,440.351,648.527,443.423L648.527,443.423z"/>
	</g>
</g>
<g>
	<g>
		<path d="M665.966,444.02c7.684,12.684,10.643,27.289,13.81,41.59c0.697,3.148,5.517,1.813,4.821-1.329
			c-3.262-14.729-6.403-29.725-14.315-42.785C668.616,438.744,664.291,441.255,665.966,444.02L665.966,444.02z"/>
	</g>
</g>
<g>
	<g>
		<path d="M666.262,468.355c5.823-2.956,11.365-6.419,17.188-9.375c2.876-1.46,0.344-5.773-2.524-4.317
			c-5.823,2.956-11.365,6.419-17.188,9.375C660.862,465.497,663.394,469.81,666.262,468.355L666.262,468.355z"/>
	</g>
</g>
<g>
	<g>
		<path d="M675.089,438.736c3.16,11.576,12.014,20.964,14.062,32.812c0.486,2.81,4.992,2.112,4.911-0.665
			c-0.084-2.87-0.669-5.728-0.966-8.58c-0.247-2.364-1.358-8.821,2.489-7.759c7.517,2.075,9.181,15.303,10.754,21.691
			c0.771,3.13,5.592,1.802,4.821-1.329c-2.045-8.305-5.042-25.684-16.604-25.637c-10.342,0.043-5.669,15.663-5.494,21.614
			c1.637-0.222,3.274-0.443,4.911-0.665c-2.06-11.919-10.9-21.227-14.062-32.812C679.063,434.299,674.239,435.62,675.089,438.736
			L675.089,438.736z"/>
	</g>
</g>
<g>
	<g>
		<path d="M710.938,450.571c0.003,7.029,0.068,14.093,1.652,20.977c0.723,3.142,5.543,1.809,4.821-1.329
			c-1.482-6.443-1.471-13.071-1.473-19.648C715.936,447.347,710.936,447.347,710.938,450.571L710.938,450.571z"/>
	</g>
</g>
<g>
	<g>
		<path d="M708.75,443.696c3.224,0,3.224-5,0-5S705.526,443.696,708.75,443.696L708.75,443.696z"/>
	</g>
</g>
<g>
	<g>
		<path d="M726.143,467.964c4.39-3.875,6.562-9.803,4.119-15.347c-2.145-4.869-7.558-3.413-9.378,0.747
			c-4.069,9.306,8.887,26.453,17.758,16.162c2.094-2.429-1.427-5.982-3.536-3.536c-4.876,5.656-9.886-4.8-9.967-8.995
			c-0.012-0.607,0.063-1.111,0.307-1.668c0.155-0.354,0.9-1.101,0.469-0.932c-0.542,0.212-0.556-0.191-0.384,0.035
			c0.328,0.43,0.48,0.9,0.628,1.41c0.96,3.309-1.205,6.516-3.553,8.589C720.186,466.566,723.736,470.089,726.143,467.964
			L726.143,467.964z"/>
	</g>
</g>
<g>
	<g>
		<path d="M750.223,468.656c-2.019-6.149-4.957-14.313,2.941-17.237c2.996-1.109,1.701-5.943-1.329-4.821
			c-10.994,4.07-9.504,14.039-6.434,23.388C746.403,473.034,751.232,471.729,750.223,468.656L750.223,468.656z"/>
	</g>
</g>
<g>
	<g>
		<path d="M854.777,477.798c1.689,8.567,2.941,17.152,3.036,25.898c0.035,3.222,5.035,3.226,5,0
			c-0.1-9.185-1.441-18.231-3.214-27.227C858.975,473.307,854.156,474.649,854.777,477.798L854.777,477.798z"/>
	</g>
</g>
<g>
	<g>
		<path d="M862.54,499.857c4.332-0.74,8.271-3.669,8.943-8.227c0.525-3.561-1.045-7.221-4.931-7.648
			c-4.689-0.515-8.487,6.095-7.514,10.083c1.288,5.28,6.728,8.772,11.548,10.48c3.047,1.08,4.346-3.752,1.329-4.821
			c-2.64-0.936-5.396-2.612-7.097-4.878c-1.516-2.019-0.917-5.202,1.785-5.904c-0.379,0.099-0.348-0.233-0.183,0.187
			c0.249,0.633,0.237,1.302,0.1,1.956c-0.533,2.552-2.999,3.555-5.31,3.95C858.037,495.577,859.387,500.395,862.54,499.857
			L862.54,499.857z"/>
	</g>
</g>
<g>
	<g>
		<path d="M883.085,480.973c-4.383,0.654-7.565,3.339-6.151,8.018c0.651,2.151,5.061,7.674,2.428,9.422
			c-2.672,1.774-0.171,6.106,2.524,4.317c3.743-2.485,3.908-6.236,2.207-10.089c-0.739-1.674-1.721-3.255-2.337-4.98
			c-0.637-1.783,1.166-1.644,2.658-1.867C887.595,485.32,886.238,480.502,883.085,480.973L883.085,480.973z"/>
	</g>
</g>
<g>
	<g>
		<path d="M899.375,477.758c-0.521,0-1.042,0-1.562,0c-0.792,0-1.829,0.457-2.159,1.238c-1.339,3.17-1.029,6.188-0.307,9.487
			c0.655,2.996,2.793,7.228-1.324,8.114c-3.152,0.678-1.815,5.498,1.329,4.821c3.929-0.845,6.18-3.409,6.116-7.468
			c-0.061-3.867-3.083-8.677-1.497-12.431c-0.72,0.413-1.439,0.825-2.159,1.238c0.521,0,1.042,0,1.562,0
			C902.599,482.758,902.599,477.758,899.375,477.758L899.375,477.758z"/>
	</g>
</g>
<g>
	<g>
		<path d="M920.312,466.196c0.169,10.846,3.161,21.251,4.777,31.915c0.435,2.874,4.854,2.052,4.911-0.665
			c0.062-2.982,0.756-10.153,5.418-6.472c1.349,1.065,1.615,4.333,2.098,5.891c0.467,1.505,1.294,2.71,2.279,3.911
			c2.045,2.496,5.561-1.064,3.536-3.536c-2.112-2.577-1.616-6.387-3.735-9.009c-1.759-2.176-4.55-3.327-7.324-3.358
			c-5.957-0.067-7.18,8.242-7.271,12.572c1.637-0.222,3.274-0.443,4.911-0.665c-1.548-10.22-4.437-20.191-4.598-30.585
			C925.262,462.975,920.262,462.97,920.312,466.196L920.312,466.196z"/>
	</g>
</g>
<g>
	<g>
		<path d="M944.387,498.042c3.794-2.094,6.704-6.853,5.772-11.291c-1.095-5.211-6.299-4.124-9.464-1.539
			c-8.823,7.207,1.841,17.526,10.243,17.859c3.225,0.128,3.213-4.873,0-5c-2.695-0.107-10.168-3.847-8.496-7.414
			c0.562-1.199,1.887-2.013,2.984-2.659c0.442-0.261-0.151-0.77-0.112,0.269c0.085,2.289-1.546,4.408-3.449,5.459
			C939.04,495.283,941.562,499.601,944.387,498.042L944.387,498.042z"/>
	</g>
</g>
<g>
	<g>
		<path d="M964.699,482.787c-2.741-1.311-5.938-1.334-7.632,1.576c-1.323,2.273-1.064,5.388-0.304,7.796
			c0.818,2.592,2.479,4.839,5.319,5.172c3.684,0.432,5.802-4.376,6.891-7.033c-0.804,0.612-1.607,1.224-2.411,1.835
			c0.851,0.049,0.624,1.558,0.625,2.188c0.006,3.224,5.006,3.225,5,0c-0.007-3.744-1.488-6.951-5.625-7.188
			c-1.199-0.069-2.001,0.836-2.411,1.835c-0.407,0.994-1.063,2.279-1.607,2.919c-0.107,0.121-0.219,0.237-0.335,0.348
			c-0.496,0.491,0.373-0.22-0.151,0.114c-0.287,0.182,0.602,0.002,0.023-0.018c0.248,0.009,0.738,0.269,0.285-0.011
			c0.737,0.456-0.501-0.673-0.061-0.074c-0.633-0.862-0.516-0.762-0.787-1.623c-0.111-0.352-0.192-0.713-0.265-1.074
			c-0.125-0.615-0.049-0.063-0.09-0.87c-0.018-0.353-0.004-0.707,0.022-1.06c0.049-0.682-0.1,0.521,0.026-0.128
			c0.036-0.186,0.091-0.367,0.146-0.548c0.096-0.263,0.079-0.23-0.052,0.099c0.07-0.155,0.163-0.297,0.256-0.439
			c-0.346,0.526-0.102,0.158,0.04,0.029c-0.541,0.489,0.271-0.008-0.412,0.253c0.608-0.232-0.316-0.063,0.401-0.021
			c-0.474-0.028,0.513,0.207,0.586,0.242C965.069,488.488,967.607,484.178,964.699,482.787L964.699,482.787z"/>
	</g>
</g>
<g>
	<g>
		<path d="M972.125,458.383c0.082,11.97,1.754,23.92,6.339,35.04c1.211,2.937,6.051,1.652,4.821-1.329
			c-4.428-10.739-6.081-22.146-6.161-33.71C977.103,455.16,972.103,455.158,972.125,458.383L972.125,458.383z"/>
	</g>
</g>
<g>
	<g>
		<path d="M978.051,463.667c8.334,6.126,5.544,19.343,8.226,28.193c0.932,3.077,5.759,1.765,4.821-1.329
			c-3.277-10.812-0.228-23.614-10.524-31.182C977.972,457.437,975.482,461.779,978.051,463.667L978.051,463.667z"/>
	</g>
</g>
<g>
	<g>
		<path d="M976.188,478.071c4.826-0.105,9.429-1.372,13.762-3.466c2.902-1.403,0.365-5.714-2.524-4.317
			c-3.52,1.702-7.324,2.699-11.238,2.784C972.968,473.141,972.961,478.141,976.188,478.071L976.188,478.071z"/>
	</g>
</g>
<g>
	<g>
		<path d="M988.091,454.958c4.2,9.908,7.503,19.992,9.123,30.653c0.439,2.89,4.821,2.035,4.911-0.665
			c0.084-2.541,3.148-12.366,4.407-6.04c0.691,3.472,0.035,7.222-0.032,10.728c-0.062,3.226,4.938,3.22,5,0
			c0.082-4.264,2.075-15.172-3.187-17.462c-7.643-3.327-10.999,7.089-11.188,12.775c1.637-0.222,3.274-0.443,4.911-0.665
			c-1.688-11.111-5.254-21.53-9.627-31.847C991.154,449.474,986.848,452.025,988.091,454.958L988.091,454.958z"/>
	</g>
</g>
<g>
	<g>
		<path d="M1012.75,474.008c-0.388,3.597-1.192,9.649,3.349,10.988c3.776,1.113,8.042-3.873,10.294-6.096
			c-1.309-0.169-2.618-0.337-3.927-0.506c3.19,5.308,5.069,16.098,0.305,20.979c-4.728,4.844-14.455,5.113-20.686,6.599
			c-3.136,0.748-1.806,5.569,1.329,4.821c7.816-1.864,18.747-2.379,24.094-9.261c5.132-6.604,3.305-18.956-0.725-25.662
			c-0.833-1.386-2.769-1.648-3.926-0.506c-1.587,1.566-3.168,3.142-5.05,4.354c-0.924,0.596-0.291,0.051-0.358-1.275
			c-0.075-1.473,0.143-2.978,0.301-4.437C1018.095,470.805,1013.092,470.838,1012.75,474.008L1012.75,474.008z"/>
	</g>
</g>
<g>
	<g>
		<path d="M939.062,517.758c0.152,17.941,4.525,35.342,6.25,53.125c1.055-0.804,2.11-1.607,3.165-2.411
			c-4.497-1.651-8.19-4.332-11.006-8.226c-1.87-2.586-6.21-0.095-4.317,2.524c3.633,5.024,8.182,8.39,13.994,10.524
			c1.441,0.529,3.315-0.862,3.165-2.411c-1.724-17.777-6.098-35.194-6.25-53.125C944.035,514.536,939.035,514.533,939.062,517.758
			L939.062,517.758z"/>
	</g>
</g>
<g>
	<g>
		<path d="M952.705,569.526c2.501-2.503,4.991-5.159,6.641-8.318c1.491-2.854-2.824-5.383-4.317-2.524
			c-1.464,2.804-3.641,5.087-5.859,7.307C946.889,568.273,950.424,571.809,952.705,569.526L952.705,569.526z"/>
	</g>
</g>
</svg>
