<?xml version="1.0" encoding="utf-8"?>
<!-- Generator: Adobe Illustrator 17.0.0, SVG Export Plug-In . SVG Version: 6.00 Build 0)  -->
<!DOCTYPE svg PUBLIC "-//W3C//DTD SVG 1.0//EN" "http://www.w3.org/TR/2001/REC-SVG-20010904/DTD/svg10.dtd">
<svg version="1.0" id="Layer_1" xmlns="http://www.w3.org/2000/svg" xmlns:xlink="http://www.w3.org/1999/xlink" x="0px" y="0px"
	 width="1330px" height="950px" viewBox="0 0 1330 950" enable-background="new 0 0 1330 950" xml:space="preserve">
<g>
	<g>
		<path d="M177.5,210.438c0.104,15.097,2.781,29.999,3.111,45.079c0.369,16.835-0.957,33.769-2.186,50.546
			c-2.337,31.884-2.9,63.96,0.077,95.827c2.995,32.064,2.475,64.116,2.188,96.278c-0.288,32.35,2.892,64.387,4.25,96.67
			c0.686,16.321,0.43,32.683,0.793,49.015c0.362,16.297,0.871,32.591,1.073,48.891c0.08,6.459,0.042,12.879-0.239,19.331
			c-0.222,5.079-0.368,10.692,2.213,15.248c1.748,3.085,7.268,3.493,10.295,3.9c5.957,0.8,12.125,0.464,18.115,0.464
			c7.278,0,14.556,0,21.834,0c8.273,0,16.684-1.365,24.892-2.336c15.525-1.837,31.054-3.885,46.631-5.21
			c16.084-1.368,32.252-1.042,48.306-2.873c15.255-1.739,30.392-3.44,45.766-2.26c16.522,1.268,32.955,3.001,49.541,3.277
			c16.163,0.269,32.338-0.678,48.49-1.119c32.717-0.895,65.377,2.223,98.103,2.57c31.951,0.338,63.477,0.221,95.198-4.067
			c32.131-4.343,64.073-10.335,96.551-11.419c16.18-0.54,32.575,0.65,48.732,1.435c16.357,0.795,32.705,1.757,49.067,2.441
			c32.715,1.369,65.353,0.638,98.021-1.478c32.953-2.134,65.815-5.445,98.709-8.311c15.191-1.324,30.335-0.283,45.551-0.476
			c13.992-0.178,27.511-3.339,41.554-2.915c8.447,0.255,17.919,1.544,25.878-1.975c2.944-1.302,0.397-5.609-2.524-4.317
			c-4.984,2.204-11.226,1.678-16.537,1.541c-6.317-0.164-12.594-0.426-18.916-0.206c-6.881,0.239-13.589,1.906-20.439,2.478
			c-7.885,0.657-15.84,0.448-23.741,0.282c-32.053-0.674-63.959,3.683-95.865,6.36c-32.799,2.753-65.681,4.878-98.609,4.826
			c-32.643-0.051-65.223-2.635-97.825-3.952c-16.23-0.656-32.417-1.076-48.63,0.099c-15.58,1.129-31.074,3.278-46.523,5.544
			c-31.966,4.689-63.502,9.258-95.882,9.248c-32.809-0.009-65.416-0.92-98.167-2.573c-32.688-1.65-65.367,2.182-98.062,0.407
			c-16.238-0.882-32.455-3.411-48.732-3.125c-15.51,0.273-30.824,3.1-46.292,3.977c-16.11,0.913-32.079,1.736-48.149,3.198
			c-15.501,1.41-30.904,3.734-46.395,5.253c-14.235,1.395-28.901,0.922-43.202,0.635c-4.992-0.1-12.415,0.448-13.684-5.453
			c-1.297-6.031,0.04-12.781,0.033-18.903c-0.036-32.615-1.058-65.278-1.639-97.889c-0.573-32.18-4.676-64.172-4.602-96.382
			c0.074-32.26,1.202-64.518-1.24-96.727c-2.404-31.692-4.179-63.29-1.735-95.074c1.3-16.908,2.527-33.823,2.889-50.781
			c0.326-15.274-1.758-30.198-2.743-45.398c-0.207-3.197-0.28-6.399-0.302-9.602C182.478,207.214,177.478,207.212,177.5,210.438
			L177.5,210.438z"/>
	</g>
</g>
<g>
	<g>
		<path fill="#B9BABA" d="M177.619,548.088c15.006,0.236,28.678,6.358,43.193,9.285c14.428,2.91,28.269,7.259,42.418,11.183
			c30.598,8.486,62.131,12.205,93.005,19.339c14.794,3.418,30.503,3.345,44.948,8.038c6.827,2.218,13.259,5.611,19.662,8.81
			c6.377,3.187,13.48,5.26,20.324,7.154c28.905,8.002,59.471,9.131,88.986,13.846c15.591,2.491,31.052,5.748,46.56,8.693
			c15.585,2.96,31.07,5.826,46.516,9.492c30.751,7.299,61.227,14.852,92.772,17.726c33.098,3.015,66.168,6.332,99.26,9.42
			c32.945,3.075,65.952,5.296,98.906,8.197c31.356,2.76,62.694,3.425,94.146,3.857c15.596,0.214,31.159,1.406,46.76,1.452
			c12.193,0.036,24.922,3.02,36.663-1.589c2.966-1.164,1.676-6.001-1.329-4.821c-12.171,4.778-26.444,1.497-39.169,1.389
			c-15.59-0.133-31.148-1.34-46.739-1.472c-32.083-0.273-64.064-1.383-96.026-4.327c-33.023-3.042-66.139-5.141-99.166-8.241
			c-33.089-3.106-66.16-6.413-99.26-9.403c-32.148-2.904-63.488-11.934-94.834-19.201c-15.389-3.568-30.956-6.074-46.459-9.084
			c-15.461-3.002-30.908-6.087-46.506-8.303c-29.38-4.175-59.748-5.707-88.121-14.97c-13.505-4.409-25.386-12.48-39.378-15.56
			c-7.21-1.587-14.733-2.018-22.028-3.113c-8.203-1.231-16.23-3.192-24.362-4.774c-29.669-5.772-60.473-9.482-89.26-18.989
			c-13.283-4.387-26.837-7.18-40.438-10.318c-13.745-3.172-26.743-8.49-41.042-8.715
			C174.393,543.037,174.397,548.037,177.619,548.088L177.619,548.088z"/>
	</g>
</g>
<g>
	<g>
		<path d="M180.938,548.562c10.28,0.108,20.548,2.545,30.518,4.838c11.049,2.541,21.993,5.531,32.919,8.549
			c9.457,2.612,18.945,7.035,28.681,8.276c6.342,0.809,12.312,0.582,18.485,2.549c6.56,2.09,12.773,5.214,19.162,7.762
			c5.454,2.175,11.629,2.774,16.807,5.505c4.45,2.347,6.208,6.953,7.19,11.591c1.012,4.78,1.183,9.746,1.806,14.586
			c0.614,4.774,1.403,9.463,1.762,14.272c1.009,13.547,0.442,40.482,19.233,42.384c11.496,1.164,22.999,0.489,34.517,0.127
			c8.904-0.28,17.722-0.005,26.497-1.806c15.373-3.155,27.776-15.05,36.335-27.659c5.119-7.54,8.799-16.023,12.546-24.295
			c3.86-8.521,8.085-16.805,11.658-25.451c4.108-9.941,6.006-20.373,10.782-30.103c4.475-9.115,10.173-17.58,15.136-26.426
			c1.579-2.815-2.74-5.335-4.317-2.524c-6.433,11.465-13.736,22.363-18.802,34.547c-2.694,6.477-3.91,13.364-6.333,19.926
			c-2.613,7.074-6.037,13.726-9.245,20.531c-10.135,21.49-20.486,47.851-45.405,55.685c-12.681,3.986-27.248,2.534-40.357,2.977
			c-7.598,0.256-15.862,0.844-23.365-0.641c-4.596-0.91-7.465-4.451-9.388-8.462c-4.137-8.631-3.828-19.473-4.491-28.81
			c-0.664-9.347-2.028-18.777-3.373-28.049c-0.793-5.467-2.634-10.69-6.765-14.512c-5.241-4.848-13.185-5.297-19.619-7.649
			c-8.36-3.057-16.228-7.329-24.888-9.555c-7.753-1.994-15.68-0.965-23.43-3.516c-13.624-4.485-27.354-8.358-41.261-11.912
			c-13.909-3.555-28.54-7.583-42.994-7.735C177.712,543.529,177.715,548.529,180.938,548.562L180.938,548.562z"/>
	</g>
</g>
<g>
	<g>
		<path d="M337.42,733.768c0.914,0.966,0.829,1.544,0.83,2.92c0.003,3.224,5.003,3.224,5,0c-0.003-2.489-0.545-4.604-2.295-6.455
			C338.736,727.885,335.207,731.427,337.42,733.768L337.42,733.768z"/>
	</g>
</g>
<g>
	<g>
		<path d="M336.688,747.625c0,1.562,0,3.125,0,4.688c0,3.224,5,3.224,5,0c0-1.562,0-3.125,0-4.688
			C341.688,744.401,336.688,744.401,336.688,747.625L336.688,747.625z"/>
	</g>
</g>
<g>
	<g>
		<path d="M338.982,766.58c0.914,0.966,0.829,1.544,0.83,2.92c0.003,3.224,5.003,3.224,5,0c-0.003-2.489-0.545-4.604-2.295-6.455
			C340.299,760.698,336.769,764.24,338.982,766.58L338.982,766.58z"/>
	</g>
</g>
<g>
	<g>
		<path d="M299.387,797.029c-8.399-3.622-15.555,1.992-16.286,10.728c-0.372,4.447,2.533,7.97,5.591,10.777
			c2.287,2.099,4.781,3.93,6.959,6.152c3.264,3.331-0.728,7.849-4.673,6.466c-3.051-1.069-4.351,3.762-1.329,4.821
			c7.897,2.768,15.654-6.482,10.685-13.438c-3.166-4.432-8.524-6.77-11.516-11.359c-3.338-5.119,2.531-12.208,8.047-9.83
			C299.791,802.609,302.34,798.303,299.387,797.029L299.387,797.029z"/>
	</g>
</g>
<g>
	<g>
		<path d="M301.875,788.25c0.079,12.297,1.504,24.732,4.777,36.602c0.856,3.104,5.68,1.785,4.821-1.329
			c-3.162-11.467-4.522-23.393-4.598-35.273C306.854,785.027,301.854,785.025,301.875,788.25L301.875,788.25z"/>
	</g>
</g>
<g>
	<g>
		<path d="M300.949,810.721c5.344-2.63,10.825-4.533,16.59-5.998c3.123-0.794,1.798-5.616-1.329-4.821
			c-6.182,1.571-12.06,3.685-17.785,6.502C295.533,807.827,298.067,812.139,300.949,810.721L300.949,810.721z"/>
	</g>
</g>
<g>
	<g>
		<path d="M327.148,806.152c-5.781,1.441-10.05,6.996-11.552,12.549c-1.721,6.365,2.433,10.404,8.388,11.328
			c12.938,2.008,12.837-18.83,5.597-24.796c-2.467-2.033-6.026,1.483-3.536,3.536c3.599,2.965,6.114,14.766-0.062,16.367
			c-4.149,1.075-6.316-2.328-5.373-5.817c0.982-3.632,4.153-7.419,7.867-8.344C331.604,810.194,330.277,805.372,327.148,806.152
			L327.148,806.152z"/>
	</g>
</g>
<g>
	<g>
		<path d="M337.812,810.125c0.103,9.31,1.446,18.501,4.777,27.227c1.138,2.981,5.973,1.688,4.821-1.329
			c-3.18-8.331-4.499-17.002-4.598-25.898C342.777,806.903,337.777,806.899,337.812,810.125L337.812,810.125z"/>
	</g>
</g>
<g>
	<g>
		<path d="M344.034,821.363c-1.805-4.112,3.405-9.322,7.517-7.517c5.741,2.521,1.564,8.325-2.528,9.493
			c-3.095,0.883-1.778,5.708,1.329,4.821c3.975-1.134,7.035-3.771,8.582-7.605c1.81-4.487-1.258-8.696-4.86-11.026
			c-3.859-2.497-9.017-0.459-12.014,2.344c-3.365,3.148-4.151,7.899-2.344,12.014C341.01,826.833,345.317,824.286,344.034,821.363
			L344.034,821.363z"/>
	</g>
</g>
<g>
	<g>
		<path d="M372.188,794.5c0.161,10.366,2.998,20.211,4.777,30.352c0.556,3.172,5.374,1.823,4.821-1.329
			c-1.701-9.699-4.444-19.106-4.598-29.023C377.137,791.279,372.137,791.274,372.188,794.5L372.188,794.5z"/>
	</g>
</g>
<g>
	<g>
		<path d="M371.768,818.143c3.082-2.955,7.615-4.438,9.766-8.318c1.564-2.822-2.754-5.344-4.317-2.524
			c-0.869,1.568-2.44,2.508-3.901,3.469c-1.779,1.17-3.541,2.359-5.083,3.838C365.901,816.843,369.441,820.374,371.768,818.143
			L371.768,818.143z"/>
	</g>
</g>
<g>
	<g>
		<path d="M394.335,799.902c-7.988,2.489-15.747,23.036-3.134,23.629c11.313,0.532,12.636-20.484,2.901-23.629
			c-3.077-0.994-4.384,3.834-1.329,4.821c4.256,1.375,3.796,14.607-1.524,13.804c-5.063-0.764,1.276-12.825,4.416-13.804
			C398.732,803.767,397.422,798.94,394.335,799.902L394.335,799.902z"/>
	</g>
</g>
<g>
	<g>
		<path d="M320.898,863.964c-6.571,2.217-10.52,8.545-12.197,14.995c-1.15,4.42-0.703,11.322,5.292,11.268
			c7.572-0.069,10.478-9.472,9.489-15.534c-1.325-8.123-5.86-15.565-10.698-22.081c-1.899-2.557-6.242-0.069-4.317,2.524
			c4.831,6.507,14.894,20.34,8.334,28.296c-4.165,5.052-3.743-1.357-3.056-4.001c1.126-4.328,4.06-9.154,8.482-10.646
			C325.265,867.761,323.962,862.931,320.898,863.964L320.898,863.964z"/>
	</g>
</g>
<g>
	<g>
		<path d="M334.062,862.312c-10.901,0.489-10.901,17.011,0,17.5c5.17,0.232,8.501-5.246,8.405-9.758
			c-0.1-4.681-3.187-9.415-7.74-10.778c-3.097-0.927-4.41,3.899-1.329,4.821c3.95,1.182,5.845,7.942,1.959,10.224
			c-4.639,2.725-6.892-6.759-1.294-7.01C337.273,867.168,337.287,862.168,334.062,862.312L334.062,862.312z"/>
	</g>
</g>
<g>
	<g>
		<path d="M368.438,856.062c-10.619,0.421-18.933,14.412-8.943,21.712c8.745,6.391,11.398-9.228,11.443-14.525
			c-1.553,0.421-3.106,0.841-4.659,1.262c1.63,3.555,2.355,6.898,5.078,9.881c2.179,2.386,5.705-1.16,3.536-3.536
			c-2.316-2.536-2.901-5.826-4.297-8.869c-1.082-2.358-4.639-1.07-4.659,1.262c-0.015,1.772-0.242,10.639-2.816,10.754
			c-1.094,0.049-2.264-1.589-2.695-2.366c-0.851-1.536-0.457-3.435,0.071-4.986c1.108-3.253,4.639-5.459,7.939-5.59
			C371.651,860.935,371.663,855.935,368.438,856.062L368.438,856.062z"/>
	</g>
</g>
<g>
	<g>
		<path d="M378.71,853.027c-4.879,1.813-8.385,5.861-7.932,11.289c0.491,5.881,5.569,9.768,11.057,10.72
			c3.153,0.547,4.502-4.271,1.329-4.821c-3.251-0.564-6.202-2.027-7.241-5.364c-0.991-3.183,1.258-5.94,4.116-7.002
			C383.034,856.736,381.739,851.901,378.71,853.027L378.71,853.027z"/>
	</g>
</g>
<g>
	<g>
		<path d="M381.562,833.562c0.077,12.363,1.476,24.67,4.777,36.602c0.859,3.103,5.683,1.784,4.821-1.329
			c-3.187-11.521-4.524-23.336-4.598-35.273C386.542,830.339,381.542,830.337,381.562,833.562L381.562,833.562z"/>
	</g>
</g>
<g>
	<g>
		<path d="M373.125,851.688c5.468-0.005,10.586-0.501,15.324-3.466c2.726-1.706,0.218-6.033-2.524-4.317
			c-4.006,2.507-8.194,2.78-12.801,2.784C369.901,846.69,369.901,851.69,373.125,851.688L373.125,851.688z"/>
	</g>
</g>
<g>
	<g>
		<path d="M396.863,847.029c-8.644,5.186,1.753,16.911,3.539,23.136c0.887,3.094,5.712,1.777,4.821-1.329
			c-0.883-3.077-9.215-15.462-5.836-17.489C402.148,849.69,399.635,845.366,396.863,847.029L396.863,847.029z"/>
	</g>
</g>
<g>
	<g>
		<path d="M396.562,837.312c-1.45,0.043-2.734,0.686-3.489,1.951c-0.363,0.607-0.566,1.407-0.573,2.112
			c-0.014,1.363,1.148,2.5,2.5,2.5c1.373,0,2.486-1.137,2.5-2.5c0.002-0.225,0.08-0.607-0.069,0.446
			c0.021-0.146,0.063-0.287,0.114-0.425c-0.292,0.784-0.231,0.52-0.113,0.323c0.181-0.303-0.511,0.542-0.114,0.188
			c-0.119,0.095-0.238,0.189-0.357,0.284c0.214-0.117,0.106-0.075-0.326,0.125c0.07-0.024,0.142-0.043,0.215-0.057
			c-0.466,0.05-0.561,0.068-0.286,0.055c1.362-0.04,2.5-1.107,2.5-2.5C399.062,838.48,397.925,837.272,396.562,837.312
			L396.562,837.312z"/>
	</g>
</g>
<g>
	<g>
		<path d="M403.438,850.75c0.003,4.895,0.61,20.993,9.33,17.724c6.826-2.558,5.115-13.693,5.045-19.287
			c-0.041-3.222-5.041-3.226-5,0c0.056,4.419,1.068,9.854-1.11,13.916c-0.532,0.992-0.459,1.098-1.137,0.191
			c-0.863-1.156-1.177-2.672-1.486-4.048c-0.621-2.764-0.641-5.674-0.643-8.496C408.435,847.526,403.435,847.526,403.438,850.75
			L403.438,850.75z"/>
	</g>
</g>
<g>
	<g>
		<path d="M422.188,846.062c0.128,6.545,1.657,13.087,3.214,19.415c0.77,3.13,5.592,1.802,4.821-1.329
			c-1.453-5.904-2.916-11.98-3.036-18.085C427.124,842.842,422.124,842.836,422.188,846.062L422.188,846.062z"/>
	</g>
</g>
<g>
	<g>
		<path d="M423.125,839.188c3.224,0,3.224-5,0-5S419.901,839.188,423.125,839.188L423.125,839.188z"/>
	</g>
</g>
<g>
	<g>
		<path d="M428.527,826.415c2.98,10.71,4.802,21.745,9.627,31.847c1.389,2.909,5.7,0.37,4.317-2.524
			c-4.62-9.673-6.269-20.397-9.123-30.653C432.485,821.983,427.661,823.302,428.527,826.415L428.527,826.415z"/>
	</g>
</g>
<g>
	<g>
		<path d="M429.074,845.096c2.56-1.278,5.194-2.682,8.113-2.784c3.215-0.112,3.226-5.112,0-5c-3.852,0.134-7.248,1.775-10.637,3.466
			C423.665,842.219,426.199,846.532,429.074,845.096L429.074,845.096z"/>
	</g>
</g>
<g>
	<g>
		<path d="M448.125,838.875c-10.069,0.938-5.219,14.972,0.824,18.162c4.777,2.522,9.089-1.075,11.423-5.101
			c2.805-4.839,2.527-11.211-1.104-15.454c-1.701-1.987-4.76,0.142-4.178,2.432c1.363,5.373,5.312,9.729,8.408,14.181
			c1.499,2.156,3.865,5.23,3.275,8.026c-0.497,2.359-4.878,3.982-6.738,4.885c-11.987,5.818-25.43,7.897-35.552,17.349
			c-2.361,2.205,1.182,5.733,3.536,3.536c5.804-5.42,14.098-9.12,21.584-11.582c6.272-2.063,13.134-4.213,18.473-8.22
			c11.299-8.481-5.984-20.915-8.164-29.505c-1.393,0.811-2.786,1.622-4.178,2.432c2.422,2.83,1.544,13.975-4.038,12.753
			c-2.237-0.489-6.564-8.617-3.569-8.896C451.307,843.579,451.336,838.576,448.125,838.875L448.125,838.875z"/>
	</g>
</g>
<g>
	<g>
		<path fill="#F26522" d="M506.786,526.415c8.244-25.495,31.848-43.42,48.001-63.841c8.684-10.978,17.218-22.115,28.609-30.467
			c11.311-8.294,24.073-14.323,37.299-18.865c26.989-9.268,56.44-15.034,84.958-12.349c15.283,1.439,30.228,5.39,45.227,8.483
			c15.595,3.215,31.624,2.572,47.202,5.686c10.89,2.177,21.34,6.192,31.89,9.565c11.547,3.692,23.436,5.18,35.156,8.105
			c24.378,6.084,47.958,15.583,71.591,23.982c11.658,4.143,23.38,7.702,35.548,9.992c12.081,2.274,23.95,4.378,35.759,7.858
			c23.38,6.889,46.919,13.139,71.35,14.623c3.222,0.196,3.203-4.806,0-5c-15.909-0.966-31.475-3.974-46.887-7.938
			c-14.857-3.821-29.349-8.929-44.442-11.769c-15.244-2.869-29.981-5.776-44.716-10.753c-15-5.066-29.767-10.748-44.785-15.767
			c-14.748-4.928-29.427-10.069-44.788-12.762c-14.607-2.561-28.247-7.546-42.384-11.861c-14.791-4.514-29.681-5.107-44.957-6.577
			c-15.321-1.474-30.315-5.914-45.424-8.719c-12.213-2.268-24.68-3.266-37.095-2.879c-11.667,0.364-23.078,2.856-34.456,5.267
			c-22.096,4.681-43.796,11.342-62.984,23.545c-19.811,12.599-31.903,32.296-47.253,49.456
			c-14.158,15.828-30.521,30.879-37.24,51.656C500.969,528.162,505.798,529.469,506.786,526.415L506.786,526.415z"/>
	</g>
</g>
<g>
	<g>
		<path d="M505.938,529.812c3.224,0,3.224-5,0-5S502.713,529.812,505.938,529.812L505.938,529.812z"/>
	</g>
</g>
<g>
	<g>
		<path fill="#009444" d="M505.223,529.54c8.291-30.341,24.774-57.282,38.321-85.391c6.459-13.402,12.247-27.114,18.856-40.445
			c6.857-13.832,15.149-26.87,23.374-39.915c8.182-12.977,16.597-25.875,24.13-39.242c3.376-5.99,6.665-12.02,10.358-17.824
			c3.973-6.245,8.609-11.935,12.588-18.189c3.697-5.812,7.929-11.214,14.09-14.514c5.83-3.123,14.006-5.143,20.592-5.143
			c6.697,0,13.428,0.191,20.119-0.107c7.194-0.32,14.254-2.046,21.403-2.786c15.471-1.603,31.388,3.23,45.938,7.932
			c13.933,4.502,27.715,11.954,39.184,21.08c11.601,9.231,24.395,14.618,37.8,20.704c14.092,6.398,27.304,14.527,41.638,20.458
			c14.291,5.914,28.294,13.261,41.972,20.478c13.63,7.193,26.163,16.081,39.447,23.85c13.185,7.712,26.894,14.497,40.89,20.603
			c13.829,6.033,28.186,9.502,42.791,13.167c10.171,2.553,20.258,5.178,30.62,6.906c3.153,0.526,4.504-4.292,1.329-4.821
			c-10.996-1.834-21.693-4.666-32.487-7.375c-7.252-1.82-14.495-3.674-21.713-5.625c-8.001-2.163-15.471-5.406-23.034-8.784
			c-13.98-6.245-27.549-13.376-40.686-21.236c-13.188-7.89-25.756-16.445-39.444-23.514c-13.516-6.98-27.247-13.696-41.221-19.677
			c-14.62-6.257-28.184-14.708-42.759-21.049c-6.956-3.026-13.737-6.16-20.452-9.691c-6.093-3.204-11.17-8.12-16.679-12.186
			c-11.171-8.245-24.439-14.418-37.59-18.667c-14.095-4.555-29.04-8.435-43.977-7.678c-6.538,0.331-12.989,1.882-19.483,2.623
			c-7.189,0.82-14.574,0.394-21.799,0.394c-11.426,0-24.18,3.386-32.595,11.49c-4.421,4.258-7.72,9.754-10.894,14.949
			c-3.848,6.299-8.764,11.89-12.61,18.241c-7.703,12.719-14.883,25.709-22.745,38.345c-8.289,13.323-16.908,26.454-24.801,40.019
			c-7.511,12.908-13.563,26.617-19.735,40.194c-6.173,13.579-13.073,26.712-19.78,40.022c-9.944,19.735-19.931,39.67-25.78,61.074
			C499.55,531.326,504.374,532.646,505.223,529.54L505.223,529.54z"/>
	</g>
</g>
<g>
	<g>
		<path d="M179.783,208.694c-9.775-1.525-14.3,15.929-16.575,22.745c-1.024,3.067,3.806,4.372,4.821,1.329
			c1.177-3.526,2.444-7.017,3.974-10.407c0.776-1.718,3.841-9.253,6.45-8.846C181.607,214.007,182.961,209.19,179.783,208.694
			L179.783,208.694z"/>
	</g>
</g>
<g>
	<g>
		<path d="M174.857,211.763c8.631,5.671,17.773,10.385,26.999,14.999c2.875,1.438,5.408-2.875,2.524-4.317
			c-9.226-4.615-18.367-9.328-26.999-14.999C174.677,205.669,172.175,210.001,174.857,211.763L174.857,211.763z"/>
	</g>
</g>
<g>
	<g>
		<path d="M1197.329,693.422c-7.558-4.537-15.06-9.142-21.993-14.608c-2.502-1.973-6.066,1.54-3.536,3.536
			c7.277,5.738,15.069,10.627,23.005,15.39C1197.578,699.403,1200.09,695.078,1197.329,693.422L1197.329,693.422z"/>
	</g>
</g>
<g>
	<g>
		<path d="M1189.409,697.318c-4.319,8.633-8.648,17.347-14.608,24.993c-1.957,2.511,1.555,6.076,3.536,3.536
			c6.247-8.014,10.86-16.949,15.39-26.005C1195.165,696.967,1190.852,694.434,1189.409,697.318L1189.409,697.318z"/>
	</g>
</g>
<g>
	<g>
		<path d="M1222.066,676.081c-1.756,13.549-29.213,62.622,4.665,56.408c3.168-0.581,1.822-5.399-1.329-4.821
			c-4.691,0.86-9.564,0.812-10.738-4.593c-1.089-5.011,0.869-10.908,2.26-15.664c3.037-10.383,8.745-20.543,10.142-31.329
			C1227.48,672.89,1222.474,672.93,1222.066,676.081L1222.066,676.081z"/>
	</g>
</g>
<g>
	<g>
		<path d="M1205.067,708.58c8.155-0.314,15.321-4.323,23.164-6.089c3.145-0.708,1.811-5.529-1.329-4.821
			c-7.353,1.656-14.206,5.617-21.834,5.91C1201.854,703.703,1201.842,708.704,1205.067,708.58L1205.067,708.58z"/>
	</g>
</g>
<g>
	<g>
		<path d="M50.714,150.272c1.522,9.12,3.156,18.182,6,26.999c0.985,3.056,5.814,1.748,4.821-1.329
			c-2.843-8.817-4.477-17.878-6-26.999C55.006,145.768,50.188,147.119,50.714,150.272L50.714,150.272z"/>
	</g>
</g>
<g>
	<g>
		<path d="M55.535,145.772c1.83-4.425,8.172-0.62,10.258,1.478c5.287,5.318-0.746,9.954-5.834,11.946
			c-2.967,1.162-1.677,5.998,1.329,4.821c4.78-1.872,9.742-4.571,11.332-9.808c1.16-3.821-0.745-7.736-3.291-10.494
			c-5.091-5.515-15.233-7.451-18.615,0.728C49.482,147.423,54.322,148.708,55.535,145.772L55.535,145.772z"/>
	</g>
</g>
<g>
	<g>
		<path d="M83.782,158.845c-3.607-4.911-7.993-12.16-0.897-16.079c2.823-1.559,0.301-5.877-2.524-4.317
			c-9.757,5.388-6.305,15.557-0.897,22.919C81.352,163.938,85.694,161.448,83.782,158.845L83.782,158.845z"/>
	</g>
</g>
<g>
	<g>
		<path d="M141.353,135.84c-3.853,4.828-4.041,11.325,1.126,15.272c2.006,1.533,4.984,1.854,7.289,0.895
			c3.323-1.382,5.114-4.473,6.262-7.735c1.073-3.05-3.759-4.349-4.821-1.329c-0.985,2.799-3.092,5.786-5.946,4.031
			c-2.698-1.66-2.067-5.479-0.375-7.598C146.877,136.883,143.364,133.32,141.353,135.84L141.353,135.84z"/>
	</g>
</g>
<g>
	<g>
		<path d="M99.384,144.449c-9.142-4.084-14.149,11.305-5.723,14.786c4.062,1.678,8.244-0.693,8.623-5.061
			c0.326-3.756-1.32-8.105-3.894-10.834c-2.216-2.35-5.745,1.192-3.536,3.536c1.096,1.162,4.386,7.922,1.292,7.868
			c-3.228-0.057-1.762-7.083,0.714-5.977C99.778,150.069,102.324,145.762,99.384,144.449L99.384,144.449z"/>
	</g>
</g>
<g>
	<g>
		<path d="M109.457,141.197c-9.403,3.218-7.2,19.455,3.645,14.985c11.02-4.543,1.412-22.447-0.569-29.738
			c-0.845-3.108-5.668-1.787-4.821,1.329c1.491,5.487,3.892,10.642,5.029,16.244c0.65,3.203,0.842,6.823-2.759,7.998
			c-2.815,0.918-1.458-5.222,0.806-5.997C113.819,144.981,112.517,140.15,109.457,141.197L109.457,141.197z"/>
	</g>
</g>
<g>
	<g>
		<path d="M123.859,142.949c-7.485,4.375-2.267,16.125,5.348,16.751c4.216,0.347,7.074-3.149,7.795-7.011
			c0.796-4.263-0.639-8.74-1.971-12.746c-1.012-3.044-5.842-1.739-4.821,1.329c1.155,3.475,3.638,9.464,0.932,12.746
			c-2.444,2.965-8.66-4.472-4.759-6.752C129.164,145.641,126.649,141.318,123.859,142.949L123.859,142.949z"/>
	</g>
</g>
<g>
	<g>
		<path d="M151.12,113.609c-1.294,10.016,2.873,19.79,7.841,28.26c1.63,2.779,5.952,0.264,4.317-2.524
			c-4.571-7.794-8.349-16.521-7.158-25.737C156.532,110.418,151.527,110.458,151.12,113.609L151.12,113.609z"/>
	</g>
</g>
<g>
	<g>
		<path d="M152.388,130.376c2.817-2.683,6.56-3.931,9.994-5.609c2.897-1.415,0.361-5.727-2.524-4.317
			c-3.868,1.89-7.83,3.366-11.005,6.391C146.513,129.068,150.054,132.599,152.388,130.376L152.388,130.376z"/>
	</g>
</g>
<g>
	<g>
		<path d="M167.119,132.608c-0.519-0.05,0.243,0.612,0.48,1.022c0.473,0.82,0.779,1.726,1.092,2.615
			c0.756,2.148,1.313,4.362,2.017,6.527c0.994,3.052,5.822,1.746,4.821-1.329c-1.453-4.464-2.489-13.265-8.41-13.835
			C163.909,127.299,163.939,132.302,167.119,132.608L167.119,132.608z"/>
	</g>
</g>
<g>
	<g>
		<path d="M171.887,116.341c-0.5-0.5-1-1-1.5-1.5c-0.963-0.963-2.572-0.963-3.536,0c-0.963,0.963-0.963,2.572,0,3.536
			c0.5,0.5,1,1,1.5,1.5c0.963,0.963,2.572,0.963,3.536,0C172.85,118.914,172.85,117.304,171.887,116.341L171.887,116.341z"/>
	</g>
</g>
<g>
	<g>
		<path d="M175.46,134.37c1.768,3.431,5.381,9.538,10.212,7.504c4.564-1.921,5.705-8.288,6.357-12.601
			c0.477-3.153-4.341-4.509-4.821-1.329c-0.43,2.844-0.878,6.566-2.82,8.854c-1.465,1.726-4.112-3.985-4.61-4.951
			C178.3,128.98,173.986,131.509,175.46,134.37L175.46,134.37z"/>
	</g>
</g>
<g>
	<g>
		<path d="M194.707,126.444c-1.304,6.376,0.951,11.897,3,17.828c1.046,3.028,5.877,1.727,4.821-1.329
			c-1.695-4.908-4.087-9.856-3-15.17C200.172,124.626,195.353,123.286,194.707,126.444L194.707,126.444z"/>
	</g>
</g>
<g>
	<g>
		<path d="M191.118,113.109c3.224,0,3.224-5,0-5C187.894,108.109,187.894,113.109,191.118,113.109L191.118,113.109z"/>
	</g>
</g>
<g>
	<g>
		<path d="M195.856,105.268c9.088,6.605,9.604,21.548,12.35,31.504c0.856,3.104,5.68,1.784,4.821-1.329
			c-3.227-11.699-3.988-26.745-14.648-34.492C195.766,99.052,193.275,103.393,195.856,105.268L195.856,105.268z"/>
	</g>
</g>
<g>
	<g>
		<path d="M200.385,122.877c3.399-3.03,9.708-2.564,13.896-3.857c3.071-0.948,1.76-5.775-1.329-4.821
			c-5.331,1.646-11.716,1.232-16.102,5.143C194.438,121.491,197.987,125.015,200.385,122.877L200.385,122.877z"/>
	</g>
</g>
<g>
	<g>
		<path d="M209.958,121.347c-2.714,5.358,1.061,12.808,7.513,12.954c8.61,0.195,9.934-5.552,12.055-12.527
			c-0.804,0.612-1.607,1.224-2.411,1.835c6.081,0.566,9.395,12.118,5.479,16.199c-4.18,4.356-12.156,5.742-17.727,7.325
			c-5.91,1.68-10.681,3.756-16.06,6.738c-6.565,3.639-13.164,7.554-17.349,13.974c-1.766,2.71,2.564,5.213,4.317,2.524
			c2.895-4.442,7.265-7.332,11.738-10.011c3.533-2.115,7.328-4.684,11.182-6.137c6.987-2.633,14.354-3.935,21.234-6.936
			c5.888-2.568,10.276-7.069,9.329-13.905c-0.89-6.423-5.026-14.109-12.144-14.772c-1.114-0.104-2.109,0.843-2.411,1.835
			c-0.686,2.256-1.055,4.65-2.037,6.805c-1.86,4.08-10.872,1.516-8.393-3.379C215.729,121.002,211.415,118.47,209.958,121.347
			L209.958,121.347z"/>
	</g>
</g>
<g>
	<g>
		<path fill="#00AEEF" d="M503.971,533.262c7.983-11.356,14.028-23.653,26.153-31.287c5.585-3.516,12.114-5.487,18.355-7.477
			c6.922-2.207,13.577-5.049,20.501-7.247c14.071-4.466,28.807-7.132,43.376-9.356c14.791-2.258,29.705-3.827,44.68-3.821
			c30.043,0.013,58.416,10.472,86.295,20.429c14.808,5.289,30.371,8.6,45.449,13.045c15.15,4.466,30.363,8.719,45.619,12.808
			c46.044,12.341,92.554,22.933,139.372,31.889c11.598,2.219,23.227,4.267,34.836,6.427c4.653,0.866,8.941,2.461,13.503,3.737
			c10.609,2.97,21.48,5.005,32.223,7.418c9.77,2.195,20.087,4.253,29.154,8.65c2.888,1.401,5.424-2.911,2.524-4.317
			c-18.59-9.016-40.522-10.856-60.355-15.978c-5.035-1.3-9.812-3.218-14.917-4.182c-4.462-0.843-8.933-1.633-13.401-2.444
			c-39.052-7.089-77.899-15.2-116.48-24.525c-29.17-7.051-58.168-14.805-86.979-23.201c-15.288-4.455-30.753-8.342-45.959-13.054
			c-7.001-2.169-13.69-5.215-20.58-7.689c-7.081-2.543-14.341-4.568-21.628-6.422c-13.763-3.502-27.451-6.69-41.674-7.418
			c-14.643-0.749-29.363,0.619-43.869,2.525c-14.157,1.86-28.191,4.378-42.065,7.762c-6.992,1.705-13.867,3.829-20.559,6.478
			c-6.392,2.53-13.008,4.36-19.454,6.748c-8.342,3.091-15.668,7.694-21.787,14.18c-6.646,7.045-11.114,15.921-16.651,23.797
			C497.795,533.383,502.132,535.878,503.971,533.262L503.971,533.262z"/>
	</g>
</g>
<g>
	<g>
		<path d="M348.11,653.582c-0.1-3.377-1.851-5.861-3.341-8.761c-1.474-2.869-5.788-0.339-4.317,2.524
			c1.031,2.007,2.589,3.902,2.659,6.238C343.206,656.799,348.206,656.808,348.11,653.582L348.11,653.582z"/>
	</g>
</g>
<g>
	<g>
		<path d="M344.11,628.583c-0.278-0.015-0.223-0.003,0.167,0.036c-0.156-0.028-0.653-0.244-0.045,0.029
			c-0.104-0.051-0.206-0.107-0.304-0.168c-0.509-0.299,0.391,0.358-0.049-0.04c-0.085-0.081-0.167-0.167-0.244-0.256
			c0.416,0.459,0.073,0.074-0.01-0.068c-0.297-0.505,0.163,0.515-0.01-0.035c-0.173-0.55,0.016,0.574-0.005,0.003
			c-0.05-1.361-1.099-2.5-2.5-2.5c-1.325,0-2.55,1.137-2.5,2.5c0.108,2.956,2.544,5.392,5.5,5.5c1.363,0.05,2.5-1.175,2.5-2.5
			C346.61,629.683,345.472,628.633,344.11,628.583L344.11,628.583z"/>
	</g>
</g>
<g>
	<g>
		<path d="M342.11,616.084c0-2.5,0-5,0-7.5c0-3.224-5-3.224-5,0c0,2.5,0,5,0,7.5C337.11,619.308,342.11,619.308,342.11,616.084
			L342.11,616.084z"/>
	</g>
</g>
<g>
	<g>
		<path d="M341.769,598.323c-1.341-2.878-1.649-6.102-3-9c-1.361-2.92-5.67-0.38-4.317,2.524c1.341,2.878,1.649,6.102,3,9
			C338.813,603.767,343.122,601.226,341.769,598.323L341.769,598.323z"/>
	</g>
</g>
<g>
	<g>
		<path d="M338.769,577.324c-1.218-2.441-2.561-4.954-2.659-7.738c-0.112-3.215-5.112-3.226-5,0
			c0.13,3.716,1.709,6.992,3.341,10.261C335.892,582.733,340.205,580.2,338.769,577.324L338.769,577.324z"/>
	</g>
</g>
<g>
	<g>
		<path d="M337.611,551.587c-0.105-3.076-1.396-5.945-1.5-9c-0.109-3.215-5.11-3.226-5,0c0.105,3.076,1.396,5.945,1.5,9
			C332.72,554.803,337.72,554.813,337.611,551.587L337.611,551.587z"/>
	</g>
</g>
<g>
	<g>
		<path d="M336.111,529.089c0-5,0-10,0-14.999c0-3.224-5-3.224-5,0c0,5,0,10,0,14.999
			C331.111,532.313,336.111,532.313,336.111,529.089L336.111,529.089z"/>
	</g>
</g>
<g>
	<g>
		<path d="M337.269,497.828c-1.256-2.662-1.361-5.731-3.391-8.006c-2.151-2.411-5.674,1.138-3.536,3.536
			c0.643,0.72,0.805,1.896,1.058,2.796c0.407,1.447,0.909,2.838,1.551,4.198C334.328,503.266,338.637,500.727,337.269,497.828
			L337.269,497.828z"/>
	</g>
</g>
<g>
	<g>
		<path d="M331.611,475.091c0-3,0-6,0-9c0-3.224-5-3.224-5,0c0,3,0,6,0,9C326.611,478.316,331.611,478.316,331.611,475.091
			L331.611,475.091z"/>
	</g>
</g>
<g>
	<g>
		<path d="M331.611,451.092c0-3,0-6,0-9c0-3.224-5-3.224-5,0c0,3,0,6,0,9C326.611,454.317,331.611,454.317,331.611,451.092
			L331.611,451.092z"/>
	</g>
</g>
<g>
	<g>
		<path d="M334.611,427.094c0-2,0-4,0-6c0-3.224-5-3.224-5,0c0,2,0,4,0,6C329.611,430.318,334.611,430.318,334.611,427.094
			L334.611,427.094z"/>
	</g>
</g>
<g>
	<g>
		<path d="M336.111,404.595c0-3.5,0-7,0-10.499c0-3.224-5-3.224-5,0c0,3.5,0,7,0,10.499
			C331.111,407.819,336.111,407.819,336.111,404.595L336.111,404.595z"/>
	</g>
</g>
<g>
	<g>
		<path d="M333.111,376.096c0-2.5,0-5,0-7.5c0-3.224-5-3.224-5,0c0,2.5,0,5,0,7.5C328.111,379.32,333.111,379.32,333.111,376.096
			L333.111,376.096z"/>
	</g>
</g>
<g>
	<g>
		<path d="M330.879,347.33c-0.44-0.465-0.527-0.636-0.669-1.147c-0.056-0.306-0.07-0.334-0.043-0.085
			c-0.018-0.166-0.031-0.333-0.039-0.5c-0.021-0.332-0.016-0.667-0.016-1c-0.001-1.363-1.136-2.5-2.5-2.5
			c-1.362,0-2.501,1.137-2.5,2.5c0.002,2.416,0.534,4.471,2.232,6.268C329.562,353.212,333.092,349.671,330.879,347.33
			L330.879,347.33z"/>
	</g>
</g>
<g>
	<g>
		<path d="M328.611,325.099c0.104-3.055,1.395-5.923,1.5-9c0.11-3.226-4.891-3.215-5,0c-0.104,3.055-1.395,5.923-1.5,9
			C323.501,328.325,328.502,328.314,328.611,325.099L328.611,325.099z"/>
	</g>
</g>
<g>
	<g>
		<path d="M330.111,298.1c0-2.5,0-5,0-7.5c0-3.224-5-3.224-5,0c0,2.5,0,5,0,7.5C325.111,301.324,330.111,301.324,330.111,298.1
			L330.111,298.1z"/>
	</g>
</g>
<g>
	<g>
		<path d="M328.611,269.601c0-2.5,0-5,0-7.5c0-3.224-5-3.224-5,0c0,2.5,0,5,0,7.5C323.611,272.826,328.611,272.826,328.611,269.601
			L328.611,269.601z"/>
	</g>
</g>
<g>
	<g>
		<path d="M328.522,249.267c1.286-4.125,1.586-8.367,1.589-12.664c0.002-3.224-4.998-3.224-5,0
			c-0.003,3.874-0.25,7.613-1.411,11.335C322.738,251.025,327.565,252.335,328.522,249.267L328.522,249.267z"/>
	</g>
</g>
<g>
	<g>
		<path d="M338.611,673.081c0,2,0,4,0,6c0,3.224,5,3.224,5,0c0-2,0-4,0-6C343.611,669.857,338.611,669.857,338.611,673.081
			L338.611,673.081z"/>
	</g>
</g>
<g>
	<g>
		<path d="M338.611,691.08c0,2,0,4,0,6c0,3.224,5,3.224,5,0c0-2,0-4,0-6C343.611,687.856,338.611,687.856,338.611,691.08
			L338.611,691.08z"/>
	</g>
</g>
<g>
	<g>
		<path d="M337.111,706.08c0,1,0,2,0,3c0,1.363,1.137,2.5,2.5,2.5s2.5-1.137,2.5-2.5c0-1,0-2,0-3c0-1.363-1.137-2.5-2.5-2.5
			S337.111,704.717,337.111,706.08L337.111,706.08z"/>
	</g>
</g>
<g>
	<g>
		<path d="M781.824,654.15c5.872-12.492,16.317-21.352,26.8-29.916c2.498-2.041-1.061-5.557-3.536-3.536
			c-10.799,8.824-21.536,18.067-27.581,30.928C776.143,654.526,780.453,657.066,781.824,654.15L781.824,654.15z"/>
	</g>
</g>
<g>
	<g>
		<path d="M777.196,652.667c-2.146-4.178-3.363-8.935-6.257-12.692c-1.938-2.516-6.285-0.031-4.317,2.524
			c2.893,3.756,4.111,8.513,6.257,12.692C774.352,658.059,778.666,655.529,777.196,652.667L777.196,652.667z"/>
	</g>
</g>
<g>
	<g>
		<path d="M778.147,657.339c5.526-4.367,12.523-8.123,19.502-9.338c3.172-0.552,1.823-5.37-1.329-4.821
			c-7.852,1.367-15.524,5.736-21.708,10.624C772.083,655.802,775.647,659.315,778.147,657.339L778.147,657.339z"/>
	</g>
</g>
<g>
	<g>
		<path d="M827.583,617.927c1.615,4.435,2.53,9.429,0.903,13.993c-1.84,5.165-7.825,0.869-10.32-1.214
			c-2.456-2.051-6.013,1.467-3.536,3.536c4.708,3.932,12.368,8.177,17.125,1.908c4.077-5.374,2.782-13.692,0.649-19.551
			C831.311,613.594,826.477,614.89,827.583,617.927L827.583,617.927z"/>
	</g>
</g>
<g>
	<g>
		<path d="M827.612,613.492c3.224,0,3.224-5,0-5C824.387,608.492,824.387,613.492,827.612,613.492L827.612,613.492z"/>
	</g>
</g>
<g>
	<g>
		<path d="M836.387,620.323c1.005,4.267,3.399,9.966,7.816,11.699c1.991,0.781,3.976-0.112,5.083-1.842
			c1.447-2.262,1.093-5.618,0.815-8.126c-0.15-1.354-1.024-2.5-2.5-2.5c-1.249,0-2.65,1.143-2.5,2.5
			c0.201,1.813,0.457,3.797-0.096,5.557c0.131-0.417-0.103,0.149-0.148,0.219c0.152-0.237,0.815-0.543,0.539-0.465
			c0.353-0.099,0.961,0.108,0.317-0.093c0.575,0.18-0.194-0.155-0.334-0.25c0.397,0.269-0.259-0.249-0.269-0.258
			c-0.281-0.262-0.533-0.555-0.782-0.846c-0.398-0.468-0.781-1.123-1.116-1.693c-0.955-1.628-1.573-3.398-2.005-5.23
			C840.469,615.856,835.648,617.187,836.387,620.323L836.387,620.323z"/>
	</g>
</g>
<g>
	<g>
		<path d="M861.103,618.116c-1.824-1.313-4.459-3.074-6.826-2.134c-1.999,0.794-2.703,2.687-2.674,4.719
			c0.028,2.015,0.607,4.298,1.936,5.818c0.816,0.933,1.881,1.643,2.834,2.425c0.101,0.083,0.737,0.952,0.517,0.385
			c0.066-0.615-0.051-0.646-0.352-0.092c-0.365,0.377-0.753,0.73-1.162,1.058c-2.449,2.106,1.104,5.626,3.536,3.536
			c1.666-1.432,3.219-3.155,2.851-5.504c-0.302-1.924-2.032-3.053-3.432-4.181c-0.447-0.36-0.854-0.755-1.257-1.163
			c0.459,0.464,0.03,0.033-0.092-0.363c-0.193-0.626-0.336-1.266-0.379-1.919c-0.089-1.35,0.3,0.022-0.829,0.039
			c0.832-0.013,2.181,1.244,2.805,1.693C861.202,624.321,863.694,619.981,861.103,618.116L861.103,618.116z"/>
	</g>
</g>
<g>
	<g>
		<path d="M863.474,604.31c-0.561,7.489,1.311,14.67,2.458,22.009c0.497,3.178,5.314,1.824,4.821-1.329
			c-1.08-6.908-2.808-13.629-2.28-20.68C868.715,601.092,863.714,601.116,863.474,604.31L863.474,604.31z"/>
	</g>
</g>
<g>
	<g>
		<path d="M861.66,616.374c3.807,4.162,9.487,2.942,14.371,1.848c3.146-0.705,1.812-5.525-1.329-4.821
			c-2.997,0.671-7.111,2.058-9.506-0.562C863.015,610.454,859.489,614,861.66,616.374L861.66,616.374z"/>
	</g>
</g>
<g>
	<g>
		<path d="M904.832,618.006c-2.737-1.649-5.68-2.656-8.493-0.602c-0.914,0.667-1.476,1.661-1.149,2.823
			c0.662,2.35,2.259,4.197,3.738,6.079c0.6,0.763,1.282,1.613,1.65,2.52c0.48,1.182-1.046,1.658-2.013,2.057
			c-2.937,1.212-1.652,6.051,1.329,4.821c3.556-1.467,6.808-3.932,5.505-8.208c-1.008-3.309-4.465-5.322-5.388-8.6
			c-0.383,0.941-0.766,1.882-1.149,2.823c1.293-0.944,2.174-0.164,3.446,0.602C905.078,623.992,907.59,619.667,904.832,618.006
			L904.832,618.006z"/>
	</g>
</g>
<g>
	<g>
		<path d="M908.984,616.44c-0.532,5.287-1.003,10.488,0.076,15.739c0.649,3.157,5.468,1.818,4.821-1.329
			c-0.978-4.759-0.378-9.625,0.103-14.409C914.307,613.233,909.304,613.264,908.984,616.44L908.984,616.44z"/>
	</g>
</g>
<g>
	<g>
		<path d="M905.227,606.249c3.224,0,3.224-5,0-5C902.003,601.249,902.003,606.249,905.227,606.249L905.227,606.249z"/>
	</g>
</g>
<g>
	<g>
		<path d="M919.595,600.928c0.596,10.22,3.741,20.156,2.958,30.449c-0.245,3.218,4.757,3.194,5,0
			c0.785-10.315-2.361-20.218-2.958-30.449C924.408,597.724,919.407,597.706,919.595,600.928L919.595,600.928z"/>
	</g>
</g>
<g>
	<g>
		<path d="M931.623,601.468c-1.72,4.947,0.195,10.665,1.54,15.477c1.957,7.003,3.731,14.156,5.443,21.231
			c0.758,3.133,5.58,1.804,4.821-1.329c-1.451-5.995-3.086-11.947-4.536-17.939c-1.19-4.919-4.203-11.059-2.447-16.109
			C937.506,599.743,932.674,598.443,931.623,601.468L931.623,601.468z"/>
	</g>
</g>
<g>
	<g>
		<path d="M917.373,617.558c8.246-3.683,17.589-5.001,26.504-5.902c3.176-0.321,3.207-5.324,0-5
			c-9.871,0.998-19.908,2.512-29.028,6.585C911.91,614.554,914.456,618.861,917.373,617.558L917.373,617.558z"/>
	</g>
</g>
<g>
	<g>
		<path d="M944.951,618.562c-0.482,4.804-0.74,9.482,0.226,14.246c0.641,3.159,5.46,1.818,4.821-1.329
			c-0.87-4.289-0.481-8.6-0.048-12.917C950.273,615.354,945.27,615.385,944.951,618.562L944.951,618.562z"/>
	</g>
</g>
<g>
	<g>
		<path d="M943.289,602.552c3.224,0,3.224-5,0-5S940.064,602.552,943.289,602.552L943.289,602.552z"/>
	</g>
</g>
<g>
	<g>
		<path d="M957.7,631.404c0.132-2.972-3.823-11.907,1.039-12.319c3.446-0.292,4.02,11.769,4.497,14.037
			c0.664,3.155,5.483,1.816,4.821-1.329c-1.184-5.629-1.247-18.391-9.859-17.662c-4.211,0.356-6.406,3.257-6.765,7.274
			c-0.304,3.411,1.415,6.657,1.266,9.999C952.557,634.629,957.557,634.615,957.7,631.404L957.7,631.404z"/>
	</g>
</g>
<g>
	<g>
		<path d="M972.608,614.234c-5.201,1.252-7.959,8.219-3.217,11.883c6.015,4.649,10.353-4.328,10.859-9.021
			c-1.423,0.589-2.845,1.179-4.268,1.768c3.157,3.996,10.265,14.151,6.092,19.166c-3.917,4.709-12.937,4.482-17.562,1.072
			c-2.6-1.916-5.089,2.426-2.524,4.317c6.787,5.003,17.707,3.907,23.621-1.854c7.216-7.03-1.438-20.347-6.092-26.237
			c-1.518-1.922-4.066-0.103-4.268,1.768c-0.215,1.992-0.589,4.22-2.716,5.079c-0.42,0.17-0.564-2.646,1.404-3.12
			C977.071,618.301,975.742,613.48,972.608,614.234L972.608,614.234z"/>
	</g>
</g>
<g>
	<g>
		<path d="M1006.104,617.458c-7.45-0.334-9.952,11.363-3.808,14.955c3.1,1.812,6.649,1.734,8.906-1.31
			c2.048-2.763,2.29-6.599,1.639-9.865c-1.393,0.811-2.786,1.622-4.178,2.432c1.342,1.643,2.684,3.286,4.025,4.929
			c2.041,2.499,5.557-1.061,3.536-3.536c-1.342-1.643-2.684-3.286-4.025-4.929c-1.722-2.109-4.62,0.219-4.178,2.432
			c0.306,1.538,0.348,6.743-2.294,6.009c-2.591-0.719-2.594-6.251,0.378-6.118C1009.329,622.602,1009.315,617.602,1006.104,617.458
			L1006.104,617.458z"/>
	</g>
</g>
<g>
	<g>
		<path d="M1011.08,605.637c0.776,8.884,4.127,17.253,4.902,26.123c0.278,3.186,5.281,3.214,5,0
			c-0.776-8.884-4.127-17.253-4.902-26.123C1015.801,602.45,1010.799,602.423,1011.08,605.637L1011.08,605.637z"/>
	</g>
</g>
<g>
	<g>
		<path d="M1008.562,619.534c4.865-1.091,9.561-1.81,14.56-1.39c3.215,0.271,3.189-4.732,0-5
			c-5.426-0.457-10.611,0.384-15.889,1.568C1004.087,615.419,1005.422,620.239,1008.562,619.534L1008.562,619.534z"/>
	</g>
</g>
<g>
	<g>
		<path d="M1038.661,621.654c-2.353,2.847-3.231,7.625,1.586,8.429c5.162,0.862,8.932-3.894,10.355-8.229c-1.607,0-3.214,0-4.821,0
			c2.289,5.95,6.031,13.18,4.574,19.701c-1.285,5.753-12.122,10.576-14.251,3.135c-0.885-3.094-5.71-1.777-4.821,1.329
			c2.548,8.906,12.764,9.231,19.097,3.816c9.27-7.925,3.863-19.85,0.224-29.311c-0.878-2.283-4.011-2.468-4.821,0
			c-0.565,1.72-1.299,3.056-2.824,4.089c-0.448,0.282-0.932,0.469-1.45,0.562c-0.488,0.065-0.546,1.508,0.69,0.013
			C1044.233,622.724,1040.717,619.166,1038.661,621.654L1038.661,621.654z"/>
	</g>
</g>
<g>
	<g>
		<path d="M1059.899,620.085c-9.214-5.264-11.416,12.122-4.141,16.083c4.368,2.378,8.14-0.638,8.607-5.049
			c0.394-3.721-1.146-8.677-3.418-11.63c-1.937-2.517-6.284-0.032-4.317,2.524c1.34,1.741,2.016,3.882,2.495,5.998
			c0.232,1.028,0.296,2.057,0.241,3.108c-0.05,0.939-0.249,0.827-0.493,0.83c-2.134,0.03-2.646-3.135-2.697-4.682
			c-0.028-0.862,0.072-1.821,0.437-2.613c0.129-0.279,0.255-0.483,0.483-0.619c-0.414,0.248-0.336,0.014,0.281,0.367
			C1060.18,626.004,1062.698,621.684,1059.899,620.085L1059.899,620.085z"/>
	</g>
</g>
<g>
	<g>
		<path d="M1065.694,617.178c-0.63,6.275-0.999,15.685,7.115,17.118c6.226,1.1,9.365-7.35,7.79-12.252
			c-0.982-3.057-5.81-1.749-4.821,1.329c0.656,2.041-0.254,7.208-3.2,5.529c-3.501-1.996-2.215-8.419-1.884-11.724
			C1071.016,613.97,1066.013,614.001,1065.694,617.178L1065.694,617.178z"/>
	</g>
</g>
<g>
	<g>
		<path d="M1087.158,631.751c-0.867-3.864-2.818-10.778,2.745-11.547c3.182-0.44,1.823-5.257-1.329-4.821
			c-8.921,1.233-7.688,11.228-6.237,17.698C1083.042,636.226,1087.862,634.892,1087.158,631.751L1087.158,631.751z"/>
	</g>
</g>
<g>
	<g>
		<path d="M1121.241,618.545c-15.264-3.19-13.528,22.449,0.915,17.828c11.874-3.799,2.802-26.473-0.749-33.396
			c-1.472-2.87-5.786-0.34-4.317,2.524c3.115,6.073,5.363,13.435,5.618,20.256c0.142,3.796-1.477,7.724-5.901,5.27
			c-3.908-2.168-1.085-8.536,3.105-7.66C1123.058,624.024,1124.397,619.205,1121.241,618.545L1121.241,618.545z"/>
	</g>
</g>
<g>
	<g>
		<path d="M1122.507,634.204c5.818,0.16,12.469-4.851,14.56-10.178c1.62-4.128-2.339-12.131-7.616-8.987
			c-4.34,2.586-3.026,10.353-1.136,14.089c3.204,6.333,12.308,8.452,18.734,7.396c3.176-0.522,1.824-5.34-1.329-4.821
			c-4.179,0.687-9.258-0.745-12.19-3.848c-1.662-1.759-1.872-4.681-1.844-7.005c0.017-1.442-0.077-1.615,0.888-0.353
			c0.848,1.11-1.065,3.321-1.68,4.057c-1.956,2.342-5.213,4.737-8.386,4.65C1119.281,629.115,1119.29,634.115,1122.507,634.204
			L1122.507,634.204z"/>
	</g>
</g>
<g>
	<g>
		<path d="M1152.74,611.363c-4.006-2.888-8.509-1.107-9.02,3.958c-0.286,2.832,0.284,4.922,1.988,7.174
			c0.801,1.059,1.711,2.029,2.48,3.111c1.191,1.674-0.558,2.834-1.777,3.907c-2.425,2.134,1.125,5.656,3.536,3.536
			c2.567-2.259,4.77-5.269,3.187-8.769c-0.708-1.566-1.868-2.846-2.964-4.153c-0.934-1.115-2.832-6.52,0.046-4.444
			C1152.837,617.57,1155.329,613.229,1152.74,611.363L1152.74,611.363z"/>
	</g>
</g>
<g>
	<g>
		<path d="M1150.333,600.09c0.752,7.912,1.146,16.093,3.8,23.652c0.575,1.639,2.137,2.178,3.672,1.494
			c3.745-1.668,6.883-4.248,7.871-8.353c-1.637-0.221-3.274-0.443-4.911-0.665c0.199,6.644,7.717,9.179,11.617,13.419
			c2.187,2.378,5.714-1.167,3.536-3.536c-2.546-2.768-10.031-5.844-10.152-9.883c-0.083-2.762-4.233-3.48-4.911-0.665
			c-0.711,2.954-3.048,4.241-5.573,5.365c1.224,0.498,2.448,0.996,3.672,1.494c-2.514-7.161-2.909-14.826-3.621-22.323
			C1155.031,596.909,1150.028,596.88,1150.333,600.09L1150.333,600.09z"/>
	</g>
</g>
<g>
	<g>
		<path d="M696.593,493.59c-13.818,0.766-18.451,21.375-21.91,31.834c-1.015,3.07,3.814,4.375,4.821,1.329
			c1.74-5.262,3.407-10.543,5.657-15.616c2.059-4.642,5.54-12.221,11.431-12.547C699.798,498.413,699.816,493.412,696.593,493.59
			L696.593,493.59z"/>
	</g>
</g>
<g>
	<g>
		<path d="M696.593,493.59c-4.5,0-9,0-13.499,0c-3.224,0-3.224,5,0,5c4.5,0,9,0,13.499,0
			C699.817,498.59,699.817,493.59,696.593,493.59L696.593,493.59z"/>
	</g>
</g>
<g>
	<g>
		<path d="M692.934,497.828c-1.538,3.307-1.838,6.655-1.841,10.261c-0.003,3.224,4.997,3.224,5,0
			c0.002-2.646,0.02-5.289,1.159-7.738C698.602,497.448,694.293,494.907,692.934,497.828L692.934,497.828z"/>
	</g>
</g>
<g>
	<g>
		<path d="M631.596,559.087c-0.242-2.112-0.764-5.212,0.679-7.045c1.305-1.657,4.709,3.167,5.162,3.807
			c1.323,1.867,3.738,1.454,4.569-0.597c0.921-2.271,0.822-4.817,1.285-7.198c0.527-2.703,2.526-0.765,3.332,0.67
			c0.714,1.271,0.922,2.934,0.971,4.363c0.11,3.215,5.111,3.226,5,0c-0.185-5.38-2.6-10.931-8.5-11.5
			c-6.569-0.633-5.416,8.65-6.91,12.335c1.523-0.199,3.046-0.398,4.569-0.597c-2.425-3.422-6.16-7.785-10.885-6.211
			c-4.698,1.565-4.723,8.047-4.273,11.973C626.959,562.252,631.963,562.287,631.596,559.087L631.596,559.087z"/>
	</g>
</g>
<g>
	<g>
		<path d="M661.43,544.677c-3.242,0.852-5.819,2.859-6.996,6.035c-0.867,2.342-0.492,5.166,0.694,7.322
			c1.299,2.362,3.902,3.573,6.433,2.44c2.926-1.31,3.916-5.414,4.444-8.222c-1.637-0.221-3.274-0.443-4.911-0.665c0,0.5,0,1,0,1.5
			c0,3.224,5,3.224,5,0c0-0.5,0-1,0-1.5c0-2.757-4.379-3.494-4.911-0.665c-0.144,0.768-0.312,1.527-0.519,2.28
			c-0.099,0.362-0.218,0.718-0.341,1.072c-0.057,0.16-0.117,0.319-0.18,0.476c0.097-0.228,0.087-0.213-0.03,0.045
			c-0.089,0.191-0.191,0.375-0.293,0.559c-0.07,0.126-0.559,0.816-0.118,0.248c-0.127,0.163-0.272,0.31-0.421,0.452
			c-0.325,0.309,0.524-0.325-0.029-0.003c-0.406,0.237,0.597-0.21,0.167-0.073c-0.398,0.127,0.737-0.026,0.133-0.019
			c-0.405,0.005,0.727,0.168,0.147,0.004c-0.38-0.107,0.631,0.331,0.103,0.026c-0.167-0.096-0.468-0.38,0.133,0.118
			c-0.126-0.104-0.238-0.225-0.347-0.346c-0.276-0.305,0.366,0.537-0.001-0.018c-0.102-0.155-0.189-0.319-0.274-0.483
			c-0.076-0.148-0.257-0.626,0.018,0.065c-0.074-0.187-0.133-0.38-0.189-0.573c-0.058-0.199-0.1-0.403-0.14-0.607
			c-0.086-0.44,0.047,0.599-0.01-0.129c-0.03-0.384-0.015-0.769,0.02-1.152c-0.069,0.764,0.012,0.004,0.05-0.167
			c0.049-0.224,0.12-0.442,0.193-0.659c0.193-0.569-0.24,0.501,0.019-0.048c0.102-0.217,0.227-0.422,0.354-0.624
			c0.366-0.584-0.103,0.087,0.174-0.233c0.171-0.197,0.362-0.375,0.556-0.549c0.496-0.447-0.418,0.284,0.147-0.112
			c0.24-0.168,0.497-0.311,0.755-0.45c0.413-0.223,0.719-0.322,1.498-0.526C665.875,548.68,664.552,543.857,661.43,544.677
			L661.43,544.677z"/>
	</g>
</g>
<g>
	<g>
		<path d="M676.258,544.677c-10.186-1.669-11.573,16.057-1.515,15.366c10.132-0.697,5.008-17.622,4.851-23.454
			c-0.087-3.218-5.087-3.226-5,0c0.129,4.785,1.402,9.448,1.326,14.266c-0.02,1.245-0.241,5.167-2.468,4.061
			c-1.655-0.822-0.584-5.755,1.478-5.417C678.082,550.015,679.434,545.197,676.258,544.677L676.258,544.677z"/>
	</g>
</g>
<g>
	<g>
		<path d="M691.252,558.849c1.399-2.962,2.329-6.907,1.264-10.11c-1.648-4.955-7.127-3.133-10.113-0.655
			c-3.485,2.893-1.942,7.404,0.775,10.121c2.614,2.614,6.675,4.751,10.415,4.883c3.226,0.114,3.215-4.886,0-5
			c-1.812-0.064-3.604-1.097-5.101-2.031c-1.07-0.668-3.498-2.311-3.096-3.828c0.203-0.766,1.714-1.406,2.344-1.638
			c0.679-0.251,0.085-0.474,0.165,0.248c0.196,1.77-0.213,3.884-0.971,5.488C685.565,559.223,689.875,561.763,691.252,558.849
			L691.252,558.849z"/>
	</g>
</g>
<g>
	<g>
		<path d="M720.353,540.429c-4.476-3.001-9.143-0.218-11.391,4.062c-2.372,4.516-1.875,10.072,2.399,13.176
			c9.203,6.683,11.686-9.302,11.73-15.08c-1.637,0.221-3.274,0.443-4.911,0.665c1.643,4.92,3.431,9.713,6.252,14.096
			c1.738,2.701,6.068,0.197,4.317-2.524c-2.594-4.032-4.237-8.377-5.748-12.902c-0.881-2.638-4.888-2.235-4.911,0.665
			c-0.017,2.244-0.247,4.472-0.69,6.671c-0.175,0.869-0.864,4.831-2.146,4.893c-0.946,0.046-2.07-1.471-2.458-2.176
			c-0.605-1.099-0.236-2.713,0.062-3.833c0.605-2.273,2.521-5.039,4.971-3.396C720.516,546.548,723.016,542.215,720.353,540.429
			L720.353,540.429z"/>
	</g>
</g>
<g>
	<g>
		<path d="M621.438,581.324c-3.215,4.26-2.918,9.824,0.391,13.904c3.403,4.195,9.266,3.48,12.535-0.375
			c2.072-2.443-1.447-5.998-3.536-3.536c-1.73,2.04-3.589,2.445-5.464,0.375c-2.084-2.3-1.276-5.636,0.391-7.845
			C627.699,581.271,623.354,578.784,621.438,581.324L621.438,581.324z"/>
	</g>
</g>
<g>
	<g>
		<path d="M634.437,581.824c-2.562,4.517-0.72,9.963,4.364,11.513c2.412,0.735,5.08,0.013,6.971-1.58
			c2.563-2.16,3.42-5.486,3.823-8.671c0.404-3.193-4.601-3.154-5,0c-0.211,1.668-0.689,3.458-1.873,4.702
			c-0.782,0.822-1.679,0.921-2.331,0.793c-2.001-0.392-2.822-2.144-1.637-4.233C640.347,581.539,636.027,579.02,634.437,581.824
			L634.437,581.824z"/>
	</g>
</g>
<g>
	<g>
		<path d="M653.595,578.586c0.185,6.107,2.626,11.487,4.589,17.164c1.047,3.028,5.878,1.726,4.821-1.329
			c-1.8-5.206-4.241-10.233-4.41-15.835C658.497,575.369,653.497,575.36,653.595,578.586L653.595,578.586z"/>
	</g>
</g>
<g>
	<g>
		<path d="M657.862,579.818c-0.638-0.706-1.905-2.243-0.41-2.699c1.524-0.465,2.482,1.592,2.794,2.694
			c0.637,2.25-1.348,4.614-3.316,5.362c-2.984,1.133-1.691,5.968,1.329,4.821c6.949-2.639,9.233-10.598,4.103-16.178
			c-2.343-2.548-6.899-2.041-9.16,0.188c-2.828,2.786-1.093,6.891,1.125,9.348C656.492,585.752,660.017,582.204,657.862,579.818
			L657.862,579.818z"/>
	</g>
</g>
<g>
	<g>
		<path d="M690.257,577.675c-5.05-0.779-8.847,2.194-9.936,7.124c-1.024,4.636,0.902,9.434,5.952,10.087
			c11.169,1.444,11.608-16.139,3.081-19.958c-2.917-1.306-5.462,3.001-2.524,4.317c3.214,1.439,5.838,9.017,1.317,10.616
			c-4.7,1.662-3.828-8.075,0.78-7.364C692.081,582.983,693.436,578.166,690.257,577.675L690.257,577.675z"/>
	</g>
</g>
<g>
	<g>
		<path d="M701.092,596.585c-0.159-4.165-1.555-8.072-2.739-12.029c-1.515-5.068-2.184-9.449,3.903-11.059
			c3.114-0.824,1.792-5.647-1.329-4.821c-15.061,3.984-5.219,17.831-4.835,27.909C696.214,599.799,701.215,599.811,701.092,596.585
			L701.092,596.585z"/>
	</g>
</g>
<g>
	<g>
		<path d="M691.092,590.086c4.063-0.088,7.945-1.412,11.999-1.5c3.219-0.07,3.226-5.07,0-5c-4.063,0.088-7.945,1.412-11.999,1.5
			C687.873,585.155,687.866,590.156,691.092,590.086L691.092,590.086z"/>
	</g>
</g>
<g>
	<g>
		<path d="M720.091,571.086c0.117,7.839,1.559,15.498,3.089,23.163c0.631,3.161,5.45,1.819,4.821-1.329
			c-1.444-7.233-2.8-14.437-2.911-21.834C725.043,567.865,720.042,567.86,720.091,571.086L720.091,571.086z"/>
	</g>
</g>
<g>
	<g>
		<path d="M718.756,583.997c3.94-1.256,8.059-1.743,11.999-3c3.06-0.976,1.752-5.804-1.329-4.821c-3.94,1.256-8.059,1.743-11.999,3
			C714.367,580.151,715.675,584.979,718.756,583.997L718.756,583.997z"/>
	</g>
</g>
<g>
	<g>
		<path d="M734.352,589.744c3.351-1.839,6.49-5.895,5.607-9.956c-1.107-5.087-6.45-3.312-9.303-0.997
			c-3.519,2.854-4.405,7.128-1.354,10.711c2.69,3.159,6.761,5.161,10.625,6.493c3.057,1.054,4.358-3.777,1.329-4.821
			c-2.172-0.749-9.469-3.558-8.911-6.677c0.214-1.197,1.68-2.023,2.571-2.647c1.555-1.091,0.278,0.042,0.171-1.024
			c0.201,2.007-1.694,3.742-3.257,4.6C729.002,586.978,731.524,591.296,734.352,589.744L734.352,589.744z"/>
	</g>
</g>
<g>
	<g>
		<path d="M755.857,575.318c-3.058-2.68-7.581-3.75-10.881-0.71c-3.167,2.919-3.055,7.171-1.419,10.926
			c3.616,8.298,10.714-1.803,12.691-5.687c-1.309,0.169-2.618,0.337-3.926,0.506c2.948,3.171,4.538,7.313,7.5,10.5
			c2.2,2.366,5.727-1.178,3.536-3.536c-2.948-3.171-4.538-7.313-7.5-10.5c-1.057-1.137-3.208-0.906-3.926,0.506
			c-1.104,2.17-2.342,4.356-4.109,6.056c-0.695,0.669,0.081-0.153,0.319,0.241c-0.537-0.889-0.713-2.509-0.785-3.523
			c-0.209-2.942,3.6-2.442,4.966-1.244C754.735,580.97,758.286,577.448,755.857,575.318L755.857,575.318z"/>
	</g>
</g>
<g>
	<g>
		<path d="M664.435,328.337c-1.938,4.154-3.186,11.638,1.357,14.644c2.375,1.571,5.949,1.616,7.618-1.001
			c1.733-2.716,1.679-6.272,1.683-9.382c-1.637,0.222-3.274,0.443-4.911,0.665c1.053,3.871,3.783,9.369,8.622,6.557
			c3.65-2.121,5.178-7.828,5.289-11.721c0.092-3.226-4.909-3.217-5,0c-0.061,2.15-0.734,4.22-1.787,6.085
			c-0.24,0.425-1.325,1.36-0.852,1.44c-0.617-0.105-1.285-3.081-1.45-3.69c-0.744-2.735-4.908-2.162-4.911,0.665
			c-0.002,1.541,0.006,3.098-0.223,4.626c-0.171,1.139-0.493,2.901-1.599,1.258c-1.285-1.907-0.412-5.708,0.481-7.622
			C670.107,327.958,665.798,325.417,664.435,328.337L664.435,328.337z"/>
	</g>
</g>
<g>
	<g>
		<path d="M692.757,324.188c-6.917-1.849-10.868,9.978-5.194,13.407c1.63,0.985,2.635,2.308,4.69,2.472
			c1.631,0.13,3.143-0.601,4.179-1.844c2.24-2.686,2.628-6.762,2.661-10.124c-1.553,0.421-3.106,0.841-4.659,1.262
			c1.588,3.401,2.24,6.658,4.891,9.506c2.201,2.364,5.729-1.179,3.536-3.536c-2.239-2.405-2.756-5.595-4.109-8.494
			c-1.096-2.348-4.636-1.077-4.659,1.262c-0.016,1.675-0.188,3.299-0.603,4.924c-0.309,1.209-0.424,2.417-1.65,1.668
			c-1.544-0.944-1.884-1.681-1.776-3.427c0.043-0.694,0.46-2.496,1.364-2.254C694.547,329.843,695.869,325.02,692.757,324.188
			L692.757,324.188z"/>
	</g>
</g>
<g>
	<g>
		<path d="M701.592,313.099c0.22,7.968,2.941,15.436,4.589,23.163c0.672,3.153,5.492,1.815,4.821-1.329
			c-1.551-7.272-4.204-14.338-4.411-21.834C706.504,309.882,701.503,309.873,701.592,313.099L701.592,313.099z"/>
	</g>
</g>
<g>
	<g>
		<path d="M713.592,310.099c0,7,0,13.999,0,20.999c0,2.053,2.809,3.482,4.268,1.768c3.179-3.736,6.191,0.678,8.464,3
			c2.259,2.307,5.792-1.231,3.536-3.536c-4.861-4.965-9.819-9.716-15.535-3c1.423,0.589,2.845,1.178,4.268,1.768
			c0-7,0-13.999,0-20.999C718.592,306.875,713.592,306.875,713.592,310.099L713.592,310.099z"/>
	</g>
</g>
<g>
	<g>
		<path d="M732.591,335.098c5.336-0.386,7.106-5.235,5.159-9.762c-0.458-1.065-1.82-1.345-2.823-1.149
			c-4.329,0.849-7.267,4.242-5.492,8.681c1.464,3.662,4.81,6.782,8.492,8.139c3.032,1.117,4.328-3.716,1.329-4.821
			c-1.889-0.696-3.549-2.417-4.626-4.065c-1.364-2.087-0.633-2.67,1.626-3.113c-0.941-0.383-1.882-0.766-2.823-1.149
			c0.409,0.952,0.401,2.148-0.841,2.238C729.395,330.33,729.372,335.331,732.591,335.098L732.591,335.098z"/>
	</g>
</g>
<g>
	<g>
		<path d="M751.501,325.934c-1.888-4.994-6.466-5.837-9.646-1.426c-2.917,4.044-2.126,10.179,2.339,12.633
			c5.703,3.135,10.282-1.515,10.726-7.004c0.408-5.036-1.508-10.807-3.671-15.299c-1.399-2.904-5.709-0.367-4.317,2.524
			c1.824,3.789,4.541,10.934,2.431,14.965c-1.378,2.632-4.247-0.646-4.212-2.468c0.019-1.011,0.504-1.989,1.021-2.827
			c0.708-1.146,0.122-0.789,0.508,0.232C747.808,330.249,752.643,328.956,751.501,325.934L751.501,325.934z"/>
	</g>
</g>
<g>
	<g>
		<path d="M691.182,349.762c1.46,8.143,4.282,15.92,6,23.999c0.671,3.153,5.49,1.816,4.821-1.329c-1.718-8.078-4.54-15.856-6-23.999
			C695.435,345.263,690.617,346.61,691.182,349.762L691.182,349.762z"/>
	</g>
</g>
<g>
	<g>
		<path d="M696.354,363.256c2.007-1.031,3.902-2.589,6.238-2.659c3.217-0.095,3.226-5.096,0-5c-3.377,0.1-5.861,1.851-8.761,3.341
			C690.962,360.413,693.492,364.727,696.354,363.256L696.354,363.256z"/>
	</g>
</g>
<g>
	<g>
		<path d="M708.324,353.329c-2.766,2.868-4.912,6.503-5.187,10.539c-0.279,4.094,3.475,7.907,7.57,7.27
			c6.395-0.995,7.229-12.13,2.147-15.2c-2.767-1.672-5.279,2.653-2.524,4.317c1.245,0.752,1.131,5.509-0.529,5.995
			c-2.023,0.592-1.555-3.262-1.335-4.031c0.573-2.008,1.964-3.872,3.394-5.355C714.098,354.545,710.566,351.005,708.324,353.329
			L708.324,353.329z"/>
	</g>
</g>
<g>
	<g>
		<path d="M737.091,352.597c-3.016,0.011-5.42,0.218-7.767,2.232c-1.023,0.878-0.924,2.642,0,3.536
			c2.096,2.026,4.394,3.807,6.397,5.936c0.934,0.993,2.262,2.424,2.426,3.851c0.201,1.754-3.632,2.29-4.72,2.534
			c-3.146,0.705-1.812,5.525,1.329,4.821c5.001-1.12,10.209-4.3,7.707-10.116c-1.924-4.474-6.219-7.289-9.604-10.562
			c0,1.179,0,2.357,0,3.536c1.164-0.999,2.812-0.763,4.232-0.768C740.314,357.585,740.315,352.585,737.091,352.597L737.091,352.597z
			"/>
	</g>
</g>
<g>
	<g>
		<path d="M737.59,341.598c0.253,6.973,2.833,13.485,4.589,20.164c0.537,2.042,3.545,2.524,4.569,0.597
			c1.071-2.014,3.25-7.322,5.682-4c1.669,2.28,2.451,5.235,3.248,7.902c0.921,3.081,5.747,1.768,4.821-1.329
			c-1.216-4.068-3.011-11.067-7.695-12.601c-5.111-1.674-8.357,3.71-10.374,7.504c1.523,0.199,3.046,0.398,4.569,0.597
			c-1.634-6.214-4.175-12.35-4.41-18.834C742.474,338.383,737.473,338.372,737.59,341.598L737.59,341.598z"/>
	</g>
</g>
<g>
	<g>
		<path d="M772.253,349.687c-3.918-1.04-9.107-0.447-10.175,4.243c-0.912,4.005,2.23,7.544,5.98,8.38
			c2.59,0.577,5.485-0.041,7.946-0.884c2.308-0.791,4.314-2.409,4.97-4.828c1.413-5.208-4.475-8.969-8.722-9.912
			c-3.142-0.697-4.476,4.123-1.329,4.821c1.494,0.332,5.566,1.749,5.229,3.761c-0.328,1.963-5.209,2.479-6.766,2.219
			c-0.747-0.125-1.658-0.555-1.957-0.942c-0.307-0.398-0.378-0.617-0.451-0.857c-0.023-0.074-0.048-0.64-0.08-0.431
			c0.061-0.391,0.182-0.559,0.098-0.453c0.23-0.291,0.397-0.389,0.486-0.425c1.109-0.443,2.33-0.168,3.44,0.127
			C774.044,355.337,775.367,350.513,772.253,349.687L772.253,349.687z"/>
	</g>
</g>
<g>
	<g>
		<path d="M782.677,345.262c1.558,8.773,4.234,17.221,7.5,25.499c1.169,2.963,6.006,1.674,4.821-1.329
			c-3.266-8.278-5.942-16.725-7.5-25.499C786.936,340.762,782.118,342.11,782.677,345.262L782.677,345.262z"/>
	</g>
</g>
<g>
	<g>
		<path d="M787.499,346.762c0.074-0.52,0.182-1.019,0.354-1.516c-0.169,0.488,0.081-0.111,0.125-0.188
			c0.208-0.361-0.258,0.222,0.216-0.238c-0.419,0.406-0.08,0.065,0.074-0.027c0.347-0.206-0.444,0.114,0.225-0.064
			c0.591-0.157-0.567,0.033,0.056-0.011c0.254-0.018,0.51,0.002,0.763,0.025c-0.635-0.058,0.522,0.16,0.735,0.228
			c0.067,0.021,0.725,0.289,0.218,0.068c0.278,0.121,0.545,0.264,0.811,0.409c1.091,0.595,1.371,0.838,2.288,1.769
			c0.165,0.167,0.319,0.344,0.473,0.52c0.495,0.567-0.261-0.381,0.176,0.218c0.303,0.415,0.557,0.862,0.781,1.323
			c-0.203-0.418,0.189,0.671,0.238,0.944c-0.116-0.643-0.035-0.05-0.035,0.095c0.002,0.428,0.133-0.443-0.045,0.254
			c0.048-0.188-0.291,0.486-0.099,0.253c-0.449,0.548-0.307,0.38-0.971,0.756c-1.14,0.646-2.848,0.892-4.294,1.016
			c-3.188,0.273-3.214,5.276,0,5c3.838-0.329,8.539-1.281,10.064-5.341c1.136-3.026-0.592-6.206-2.591-8.403
			c-2.041-2.243-4.911-3.852-7.943-4.126c-3.464-0.314-5.983,2.484-6.44,5.706c-0.191,1.348,0.308,2.68,1.746,3.075
			C785.609,348.834,787.307,348.114,787.499,346.762L787.499,346.762z"/>
	</g>
</g>
<g>
	<g>
		<path d="M653.595,359.597c-1.267,10.958,7.032,20.317,9.089,30.663c0.629,3.161,5.448,1.819,4.821-1.329
			c-1.96-9.858-10.106-18.987-8.91-29.334C658.964,356.397,653.96,356.433,653.595,359.597L653.595,359.597z"/>
	</g>
</g>
<g>
	<g>
		<path d="M663.862,386.328c-3.175-3.024-7.138-4.501-11.005-6.391c-2.885-1.41-5.42,2.902-2.524,4.317
			c3.433,1.677,7.177,2.926,9.994,5.609C662.66,392.086,666.201,388.555,663.862,386.328L663.862,386.328z"/>
	</g>
</g>
<g>
	<g>
		<path d="M666.094,389.595c0.151-3.96,2.404-7.317,4.158-10.738c1.468-2.863-2.846-5.393-4.317-2.524
			c-2.191,4.271-4.653,8.329-4.841,13.261C660.971,392.821,665.972,392.809,666.094,389.595L666.094,389.595z"/>
	</g>
</g>
<g>
	<g>
		<path d="M865.084,253.102c1.497,11.324,4.395,22.377,6.089,33.663c0.477,3.18,5.295,1.824,4.821-1.329
			c-1.627-10.842-4.473-21.458-5.91-32.334C869.668,249.954,864.662,249.913,865.084,253.102L865.084,253.102z"/>
	</g>
</g>
<g>
	<g>
		<path d="M869.995,255.438c-0.12-0.58-0.129-0.492-0.081-1.264c-0.039,0.635,0.051-0.076,0.109-0.244
			c-0.072,0.207-0.243,0.412-0.135,0.292c0.265-0.294-0.473,0.26,0.115-0.067c-0.603,0.336-0.041,0.032,0.178-0.022
			c0.393-0.096-0.492,0.015,0.241-0.013c0.268-0.011,0.536,0.01,0.802,0.032c-0.629-0.053,0.295,0.059,0.416,0.084
			c0.308,0.063,0.611,0.149,0.912,0.236c0.594,0.172,1.3,0.452,1.543,0.561c1.324,0.593,2.571,1.356,3.742,2.209
			c0.665,0.485,1.775,1.548,2.493,2.434c0.424,0.524,0.787,1.532,0.796,1.803c0.024,0.714,0.073-0.173-0.026,0.231
			c-0.091,0.37,0.224-0.34-0.125,0.256c-0.063,0.108-0.309,0.357-0.736,0.628c-1.475,0.935-3.426,1.279-5.155,1.508
			c-1.351,0.179-2.5,1.002-2.5,2.5c0,1.227,1.145,2.679,2.5,2.5c4.367-0.578,10.331-1.825,11.004-7.08
			c0.479-3.736-2.849-6.881-5.509-8.934c-2.801-2.161-6.551-3.989-10.157-3.968c-4.377,0.026-6.045,3.793-5.248,7.647
			C865.826,259.923,870.646,258.584,869.995,255.438L869.995,255.438z"/>
	</g>
</g>
<g>
	<g>
		<path d="M883.083,253.102c0,4.5,0,9,0,13.499c0,3.224,5,3.224,5,0c0-4.5,0-9,0-13.499
			C888.083,249.878,883.083,249.878,883.083,253.102L883.083,253.102z"/>
	</g>
</g>
<g>
	<g>
		<path d="M885.583,248.103c3.224,0,3.224-5,0-5C882.359,243.103,882.359,248.103,885.583,248.103L885.583,248.103z"/>
	</g>
</g>
<g>
	<g>
		<path d="M895.583,268.102c-0.019-2.912-0.332-5.912,0.075-8.808c0.465-3.308,2.443-4.653,5.589-5.28
			c2.774-0.554,3.726,0.087,4.713,2.883c0.922,2.609,1.099,5.462,1.122,8.205c0.027,3.223,5.027,3.225,5,0
			c-0.051-6.083-1.486-17.578-10.078-16.425c-4.11,0.552-8.213,2.21-10.163,6.079c-2.021,4.011-1.287,9.029-1.258,13.346
			C890.604,271.325,895.604,271.327,895.583,268.102L895.583,268.102z"/>
	</g>
</g>
<g>
	<g>
		<path d="M923.746,253.691c-7.845-3.128-13.141,8.237-7.778,13.612c2.93,2.936,7.693,2.292,10.313-0.536
			c3.158-3.408,3.724-9.248,3.8-13.665c0.047-2.766-4.427-3.487-4.911-0.665c-1.056,6.162,2.525,11.798,1.22,17.783
			c-1.295,5.935-8.628,5.513-13.144,4.47c-3.138-0.725-4.47,4.096-1.329,4.821c5.764,1.332,12.047,1.358,16.564-2.963
			c6.961-6.659,0.213-15.212,1.51-22.782c-1.637-0.222-3.274-0.443-4.911-0.665c-0.06,3.509-0.407,8.049-2.911,10.751
			c-3.003,3.24-5.753-7.733,0.247-5.34C925.414,259.708,926.703,254.871,923.746,253.691L923.746,253.691z"/>
	</g>
</g>
<g>
	<g>
		<path d="M952.169,252.267c1.303,7.742,2.808,15.459,2.911,23.334c0.042,3.222,5.042,3.226,5,0
			c-0.108-8.316-1.714-16.488-3.089-24.663C956.456,247.763,951.639,249.114,952.169,252.267L952.169,252.267z"/>
	</g>
</g>
<g>
	<g>
		<path d="M956.347,250.37c3.473-3.084,6.37,2.392,7.349,5.251c1.683,4.918-5.342,10.891-9.952,10.07
			c-3.152-0.561-4.5,4.257-1.329,4.821c8.166,1.454,18.176-6.803,16.305-15.499c-1.575-7.322-9.149-14.181-15.908-8.178
			C950.396,248.98,953.946,252.503,956.347,250.37L956.347,250.37z"/>
	</g>
</g>
<g>
	<g>
		<path d="M973.841,252.444c-10.09-4.473-11.866,13.093-5.523,17.817c1.796,1.338,4.748,0.789,6.586-0.037
			c2.075-0.933,3.332-3.223,4.027-5.262C980.534,260.252,978.447,254.5,973.841,252.444c-2.918-1.302-5.463,3.005-2.524,4.317
			c2.409,1.075,3.225,3.089,3.071,5.638c-0.096,1.6-1.209,3.929-3.128,3.606c-3.206-0.541-1.608-9.982,0.057-9.244
			C974.237,258.055,976.783,253.748,973.841,252.444L973.841,252.444z"/>
	</g>
</g>
<g>
	<g>
		<path d="M985.237,266.84c-1.324-1.89-2.421-4.154-2.061-6.534c0.365-2.406,3.45-3.141,5.226-1.537
			c3.385,3.056,5.479,10.286,4.265,14.668c-0.863,3.113,3.961,4.432,4.821,1.329c1.96-7.071-1.868-20.636-10.287-21.639
			c-9.872-1.176-10.638,10.019-6.281,16.236C982.755,271.982,987.092,269.487,985.237,266.84L985.237,266.84z"/>
	</g>
</g>
<g>
	<g>
		<path d="M1008.339,256.943c-4.913-2.106-9.721-1.552-12.962,2.973c-2.985,4.167-0.455,9.878,3.946,11.656
			c10.532,4.254,19.23-11.492,11.022-18.737c-1.537-1.356-4.369-0.549-4.268,1.768c0.181,4.129,1.546,8.09,2.713,12.021
			c1.274,4.29,3.999,10.483-0.371,13.659c-6.889,5.007-16.715,4.973-24.506,7.908c-2.988,1.125-1.694,5.96,1.329,4.821
			c9.078-3.419,19.974-3.427,27.662-9.945c7.869-6.67-1.477-20.477-1.828-28.464c-1.423,0.589-2.845,1.179-4.268,1.768
			c3.427,3.025,1.271,9.639-2.82,11.064c-2.457,0.856-5.259-1.645-4.719-4.089c0.662-3,4.338-3.031,6.546-2.085
			C1008.745,262.516,1011.295,258.21,1008.339,256.943L1008.339,256.943z"/>
	</g>
</g>
<g>
	<g>
		<path d="M848.085,264.102c-6.482,0.005-13.357-0.082-19.376,2.701c-6.692,3.094-9.141,10.92-13.891,16.031
			c-2.192,2.358,1.336,5.902,3.536,3.536c3.658-3.936,5.898-8.873,9.523-12.827c4.725-5.156,13.864-4.435,20.208-4.44
			C851.309,269.099,851.31,264.099,848.085,264.102L848.085,264.102z"/>
	</g>
</g>
<g>
	<g>
		<path d="M817.497,283.936c-1.068-3.145-2.813-6.464-2.911-9.835c-0.093-3.217-5.093-3.226-5,0
			c0.113,3.912,1.851,7.517,3.089,11.164C813.706,288.301,818.537,286.998,817.497,283.936L817.497,283.936z"/>
	</g>
</g>
<g>
	<g>
		<path d="M813.587,287.101c4,0,8,0,11.999,0c3.224,0,3.224-5,0-5c-4,0-8,0-11.999,0
			C810.362,282.101,810.362,287.101,813.587,287.101L813.587,287.101z"/>
	</g>
</g>
<g>
	<g>
		<path d="M416.771,32.024c7.983-2.157-0.294-9.11-4.626-9.748c-7.649-1.126-15.89,3.124-22.113,7.11
			c-6.262,4.011-11.776,10.542-11.557,18.37c0.205,7.302,7.226,12.125,12.962,15.245c8.491,4.618,17.585,6.988,25.251,13.169
			c9.146,7.374,12.627,17.932,4.365,27.439c-6.322,7.274-15.817,11.726-24.772,14.747c-8.657,2.921-18.385,4.717-27.509,3.341
			c-3.153-0.475-4.509,4.342-1.329,4.821c15.391,2.32,31.924-2.429,45.258-10.029c13.754-7.84,24.52-22.587,13.625-37.516
			c-4.693-6.43-12.287-11.772-19.637-14.704c-7.273-2.901-15.521-5.699-20.958-11.61c-6.47-7.034,1.819-15.75,7.763-19.558
			c3.496-2.24,7.296-3.978,11.271-5.164c1.878-0.561,3.785-0.814,5.739-0.817c0.733,0.008,1.448,0.118,2.148,0.329
			c0.353,0.139,0.705,0.278,1.058,0.417c0.846,1.015,1.423,0.794,1.731-0.664C412.333,28.043,413.654,32.867,416.771,32.024
			L416.771,32.024z"/>
	</g>
</g>
<g>
	<g>
		<path d="M448.44,63.201c-9.939,2.644-16.949,17.352-14.489,26.902c3.393,13.169,18.187,15.072,29.488,16.918
			c3.153,0.515,4.505-4.303,1.329-4.821c-8.281-1.353-20.109-2.026-24.685-10.235c-4.156-7.456,1.088-21.654,9.685-23.942
			C452.883,67.194,451.56,62.371,448.44,63.201L448.44,63.201z"/>
	</g>
</g>
<g>
	<g>
		<path d="M480.104,101.61c-1.315-10.539-4.942-33.019,10.999-33.498c3.217-0.097,3.226-5.097,0-5
			c-19.879,0.598-17.741,24.541-15.999,38.498C475.497,104.766,480.502,104.804,480.104,101.61L480.104,101.61z"/>
	</g>
</g>
<g>
	<g>
		<path d="M491.767,105.52c6.845-2.042,13.214-5.017,18.585-9.794c4.451-3.958,8.521-11.12,8.719-17.176
			c0.478-14.608-16.25-15.671-25.049-7.723c-9.376,8.469-5.392,22.724,2.824,30.158c10.247,9.272,26.134,8.469,38.419,4.534
			c3.058-0.979,1.75-5.808-1.329-4.821c-8.756,2.805-18.058,3.706-26.87,0.645c-9.176-3.187-16.337-13.39-12.274-23.009
			c3.914-9.264,22.047-11.249,18.904,2.05c-2.675,11.318-12.89,17.221-23.258,20.314C487.356,101.619,488.67,106.445,491.767,105.52
			L491.767,105.52z"/>
	</g>
</g>
<g>
	<g>
		<path d="M536.936,93.521c9.438,3.676,19.939-11.621,22.214-18.88c4.031-12.863-12.505-19.21-21.28-11.594
			c-9.526,8.267-8.672,24.837,1.004,32.667c9.485,7.675,26.675,8.557,37.486,3.555c2.924-1.353,0.382-5.662-2.524-4.317
			c-7.671,3.549-17.568,2.591-25.397,0.152c-9.608-2.993-14.144-12.346-11.484-21.939c1.354-4.884,5.482-8.292,10.516-8.618
			c5.524-0.359,8.061,4.926,6.588,9.623c-1.421,4.535-9.89,16.83-15.795,14.53C535.256,87.528,533.966,92.364,536.936,93.521
			L536.936,93.521z"/>
	</g>
</g>
<g>
	<g>
		<path d="M582.009,96.445c-5.28-12.78,1.638-30.754,17.758-28.249c10.941,1.7,9.405,21.029,10.329,28.914
			c0.371,3.163,5.375,3.199,5,0c-1.426-12.169-0.07-32.759-16.711-34.061c-18.513-1.448-27.49,19.497-21.198,34.726
			C578.401,100.711,583.24,99.426,582.009,96.445L582.009,96.445z"/>
	</g>
</g>
<g>
	<g>
		<path d="M623.596,22.114c0.2,13.451,4.115,26.328,7.171,39.322c3.31,14.07,6.282,28.229,9.417,42.339
			c0.699,3.147,5.519,1.812,4.821-1.329c-3-13.499-6-26.999-9-40.498c-2.936-13.213-7.208-26.18-7.41-39.833
			C628.548,18.893,623.548,18.888,623.596,22.114L623.596,22.114z"/>
	</g>
</g>
<g>
	<g>
		<path d="M631.507,58.777c1.827-6.799,12.142-6.376,17.516-4.797c8.468,2.488,15.526,10.022,18.161,18.296
			c4.861,15.266-11.059,27.777-25.423,23.923c-3.119-0.837-4.44,3.987-1.329,4.821c8.769,2.353,17.576-0.1,24.556-5.705
			c7.972-6.401,9.544-16.433,6.584-25.729c-3.348-10.515-13.419-18.682-23.943-21.147c-7.73-1.811-18.653,0.488-20.943,9.008
			C625.847,60.566,630.671,61.887,631.507,58.777L631.507,58.777z"/>
	</g>
</g>
<g>
	<g>
		<path d="M684.093,95.61c-0.398-9.097-6.807-18.159,0.122-26.226c5.485-6.386,15.713-8.497,23.712-7.362
			c3.152,0.447,4.511-4.37,1.329-4.821c-9.514-1.35-19.076,0.829-26.665,6.825c-4.25,3.358-6.571,8.251-6.832,13.584
			c-0.3,6.131,3.067,11.905,3.333,17.999C679.234,98.822,684.234,98.835,684.093,95.61L684.093,95.61z"/>
	</g>
</g>
<g>
	<g>
		<path d="M696.593,95.11c9.795-0.425,24.507-9.197,24.46-20.263c-0.046-10.719-15.455-10.197-21.38-5.613
			c-9.37,7.249-7.09,20.816,0.685,28.131c8.95,8.42,23.294,8.62,34.398,5.154c3.067-0.957,1.757-5.785-1.329-4.821
			c-12.474,3.893-37.836,1.252-34.785-17.538c1.095-6.741,11.759-13.774,16.907-6.628c2.558,3.55-3.24,8.559-5.502,10.643
			c-3.628,3.342-8.504,5.719-13.454,5.934C693.381,90.25,693.368,95.25,696.593,95.11L696.593,95.11z"/>
	</g>
</g>
<g>
	<g>
		<path d="M756.09,76.111c0.568-8.074-5.472-14.118-13.571-13.577c-8.076,0.54-13.725,9.549-9.855,16.974
			c4.511,8.656,15.569,11.874,23.864,6.864c8.052-4.863,11.368-18.048,11.561-26.761c-1.637,0.222-3.274,0.443-4.911,0.665
			c1.543,8.611,4.457,16.888,6,25.499c0.568,3.17,5.386,1.823,4.821-1.329c-1.543-8.611-4.457-16.888-6-25.499
			c-0.513-2.863-4.85-2.061-4.911,0.665c-0.251,11.328-7.592,30.529-21.851,22.102c-5.611-3.316-6.711-11.85,0.347-13.981
			c5.73-1.73,9.883,3.006,9.505,8.378C750.863,79.331,755.865,79.309,756.09,76.111L756.09,76.111z"/>
	</g>
</g>
<g>
	<g>
		<path d="M782.588,22.114c-0.17,16.619-4.33,32.878-4.5,49.498c-0.021,2.079,2.807,3.447,4.268,1.768
			c7.148-8.219,17.134-12.728,25.499-19.499c1.996-1.616-0.153-4.862-2.432-4.178c-8.967,2.687-11.513,10.559-7.966,18.844
			c3.736,8.727,14.693,14.137,22.368,18.723c2.775,1.658,5.288-2.666,2.524-4.317c-5.412-3.234-10.855-6.417-15.585-10.625
			c-5.567-4.952-9.803-14.871-0.011-17.804c-0.811-1.393-1.622-2.786-2.432-4.178c-8.395,6.795-18.309,11.232-25.499,19.499
			c1.423,0.589,2.845,1.179,4.268,1.768c0.17-16.619,4.33-32.878,4.5-49.498C787.621,18.888,782.621,18.891,782.588,22.114
			L782.588,22.114z"/>
	</g>
</g>
<g>
	<g>
		<path d="M857.352,56.344c-5.242-6.291-20.02-8.388-22.432,1.613c-1.593,6.606,4.161,10.567,9.28,13.107
			c7.868,3.904,17.27,8.445,17.884,18.546c0.413-0.72,0.825-1.439,1.238-2.159c-9.295,4.279-20.943,2.931-30.883,2.707
			c-11.05-0.249-22.375-0.301-33.016,3.041c-3.065,0.963-1.756,5.79,1.329,4.821c11.56-3.631,23.92-3.05,35.896-2.763
			c9.69,0.232,20.193,0.657,29.198-3.489c0.743-0.342,1.287-1.359,1.238-2.159c-0.725-11.925-10.614-18.242-20.36-22.863
			c-2.343-1.111-4.834-2.387-6.445-4.486c-1.734-2.259-0.083-5.115,2.162-5.876c3.784-1.283,8.9,0.523,11.376,3.495
			C855.883,62.36,859.401,58.802,857.352,56.344L857.352,56.344z"/>
	</g>
</g>
<g>
</g>
<g>
</g>
<g>
</g>
<g>
</g>
<g>
</g>
<g>
</g>
</svg>
