<?xml version="1.0" encoding="utf-8"?>
<!-- Generator: Adobe Illustrator 17.0.0, SVG Export Plug-In . SVG Version: 6.00 Build 0)  -->
<!DOCTYPE svg PUBLIC "-//W3C//DTD SVG 1.0//EN" "http://www.w3.org/TR/2001/REC-SVG-20010904/DTD/svg10.dtd">
<svg version="1.0" id="Layer_1" xmlns="http://www.w3.org/2000/svg" xmlns:xlink="http://www.w3.org/1999/xlink" x="0px" y="0px"
	 width="1240px" height="890px" viewBox="0 0 1240 890" enable-background="new 0 0 1240 890" xml:space="preserve">
<g>
	<g>
		<path d="M147.812,217.312c1.835,15.22,6.733,29.721,9.844,44.679c3.325,15.985,3.986,32.445,4.804,48.705
			c1.631,32.432,6.125,64.763,9.047,97.112c2.945,32.606,5.575,65.24,8.4,97.856c2.794,32.244,4.339,64.544,3.705,96.927
			c-0.314,16.01-1.466,31.962-3.412,47.855c-0.876,7.154-1.627,14.322-2.155,21.511c-0.469,6.381-1.199,13.227-0.181,19.58
			c1.644,10.266,15.767,9.232,23.056,8.048c14.89-2.419,29.811-3.942,44.848-5.467c65.7-6.66,131.413-13.22,197.204-18.919
			c65.431-5.668,130.895-10.631,196.566-12.3c65.485-1.665,130.802-0.243,196.244,2.198c49.315,1.839,98.659,3.404,148.002,4.265
			c12.499,0.218,24.999,0.359,37.5,0.423c12.259,0.063,24.05-0.792,36.217-2.216c12.036-1.409,24.33-1.067,36.416-0.487
			c11.637,0.559,22.883,4.063,34.522,4.294c3.226,0.064,3.22-4.936,0-5c-7.817-0.155-15.256-2.235-22.95-3.27
			c-7.642-1.028-15.369-1.254-23.07-1.369c-7.702-0.115-15.371-0.138-23.043,0.626c-8.137,0.81-16.19,2.144-24.375,2.427
			c-16.364,0.566-32.875-0.128-49.243-0.396c-16.449-0.269-32.897-0.665-49.342-1.112c-65.579-1.781-131.142-5.149-196.738-6.109
			c-131.544-1.926-262.465,9.269-393.269,21.92c-32.896,3.182-65.78,6.492-98.662,9.823c-14.68,1.487-30.066,1.827-44.451,5.108
			c-5.35,1.22-11.119,2.135-16.481,0.56c-6.829-2.006-4.266-13.886-3.997-19.035c0.805-15.406,3.308-30.661,4.517-46.033
			c1.255-15.959,1.52-31.984,1.377-47.986c-0.144-16.075-0.803-32.142-1.445-48.203c-0.657-16.431-2.822-32.929-4.213-49.318
			c-3.806-44.837-7.456-89.691-12.235-134.438c-1.177-11.018-2.477-21.964-3.06-33.032c-0.609-11.577-1.105-23.157-2.214-34.701
			c-0.984-10.253-2.712-20.345-5.193-30.34c-2.813-11.332-6.137-22.561-7.538-34.186
			C152.432,214.153,147.427,214.116,147.812,217.312L147.812,217.312z"/>
	</g>
</g>
<g>
	<g>
		<path d="M143.857,212.42c-7.812,9.375-15.625,18.75-23.438,28.125c-1.696,2.035,0.541,5.663,3.03,3.926
			c6.337-4.422,12.772-9.394,18.475-14.6c4.032-3.681,6.062-10.516,10.734-13.169c4.282-2.431,10.985,2.521,14.336,4.724
			c4.465,2.935,8.564,6.486,13.307,8.982c2.85,1.5,5.378-2.815,2.524-4.317c-9.067-4.772-17.798-15.63-28.942-14.786
			c-5.653,0.428-8.224,5.361-11.002,9.579c-2.476,3.76-5.614,6.742-9.298,9.313c-4.405,3.074-8.247,6.88-12.656,9.956
			c1.01,1.309,2.02,2.618,3.03,3.926c7.812-9.375,15.625-18.75,23.438-28.125C149.441,213.497,145.924,209.94,143.857,212.42
			L143.857,212.42z"/>
	</g>
</g>
<g>
	<g>
		<path d="M1129.699,666.716c-5.11-3.595-10.928-5.556-16.707-7.787c-6.474-2.499-10.287-8.588-16.702-11.215
			c-1.922-0.787-3.4,1.429-3.075,3.075c1.841,9.34,12.568,10.148,19.81,13.262c2.282,0.981,4.204,2.338,5.442,4.523
			c0.908,1.601-5.753,4.417-6.685,4.879c-2.375,1.176-4.715,2.327-6.786,4.008c-3.238,2.629-6.104,6.143-10.034,7.752
			c-2.942,1.204-1.656,6.043,1.329,4.821c6.824-2.794,11.364-8.986,18.015-12.265c4.15-2.046,10.3-4.736,9.125-10.356
			c-2.503-11.978-23.2-6.823-25.394-17.955c-1.025,1.025-2.05,2.05-3.075,3.075c5.629,2.304,9.023,7.927,14.668,10.38
			c5.978,2.598,12.153,4.322,17.547,8.118C1129.82,672.894,1132.314,668.556,1129.699,666.716L1129.699,666.716z"/>
	</g>
</g>
<g>
	<g>
		<path d="M1155.714,644.773c-2.224,6.677-4.385,13.369-6.034,20.216c-1.399,5.81-2.746,12.089-0.83,17.902
			c3.421,10.38,15.519,9.839,24.002,7.145c3.061-0.972,1.753-5.8-1.329-4.821c-8.626,2.739-19.303,2.322-18.608-9.51
			c0.59-10.058,4.465-20.127,7.621-29.602C1161.558,643.034,1156.728,641.73,1155.714,644.773L1155.714,644.773z"/>
	</g>
</g>
<g>
	<g>
		<path d="M1140.938,672.938c7.05-0.002,14.077-0.04,20.977-1.652c3.139-0.733,1.808-5.554-1.329-4.821
			c-6.46,1.509-13.05,1.471-19.648,1.473C1137.713,667.938,1137.713,672.938,1140.938,672.938L1140.938,672.938z"/>
	</g>
</g>
<g>
	<g>
		<path d="M185.536,486.96c-2.902-14.202-0.215-28.886,1.472-43.073c1.733-14.57,7.322-28.46,13.833-41.484
			c6.166-12.332,12.765-24.224,18.168-36.939c5.242-12.337,10.356-24.779,17.838-35.968c6.332-9.47,14.159-19.105,22.939-26.39
			c4.241-3.519,9.368-6.213,14.962-6.297c7.658-0.115,13.266,6.581,17.102,12.348c3.36,5.051,5.754,10.696,8.701,15.984
			c3.76,6.746,7.692,13.416,11.734,19.996c7.769,12.646,17.022,23.915,22.754,37.74c5.262,12.69,8.361,26.196,11.63,39.497
			c3.702,15.06,9.233,29.779,14.483,44.358c5.129,14.245,10.994,28.128,16.52,42.212c5.171,13.18,10.408,26.234,17.122,38.72
			c10.173,18.922,32.179,35.65,54.672,32.677c22.677-2.997,40.084-23.747,51.321-42.034c15.086-24.553,16.369-55.755,20.917-83.473
			c2.654-16.177,6.046-32.226,9.468-48.254c2.845-13.326,3.031-26.664,3.444-40.234c0.426-14.018,1.902-27.989,8.539-40.577
			c2.766-5.245,6.591-10.038,9.967-14.907c4.161-6,8.636-10.006,15.964-11.347c27.594-5.051,51.302,22.265,64.488,42.805
			c8.158,12.708,13.033,26.852,17.566,41.162c4.751,14.998,9.938,29.668,15.321,44.438c5.469,15.007,8.63,30.745,12.671,46.165
			c3.536,13.494,7.491,27.1,12.167,40.245c7.527,21.159,21.693,43.845,46.631,44.371c24.652,0.521,37.869-28.429,44.86-47.871
			c10.752-29.9,16.96-61.529,29.449-90.791c9.645-22.599,22.694-43.511,32.851-65.87c4.089-9.002,8.407-17.934,13.865-26.199
			c4.855-7.352,11.306-14.811,20.162-17.083c11.25-2.885,19.772,6.652,24.898,15.302c5.987,10.103,9.784,22.144,13.69,33.158
			c7.804,22.003,13.392,45.183,16.257,68.338c2.888,23.343,5.779,46.51,11.991,69.259c5.541,20.293,13.054,41.204,26.284,57.836
			c6.327,7.954,14.729,13.877,23.889,18.135c7.876,3.661,15.55,10.427,24.501,10.961c3.222,0.192,3.204-4.809,0-5
			c-6.066-0.362-11.558-4.782-16.64-7.734c-6.007-3.49-12.321-5.832-18.016-9.961c-11.6-8.41-18.745-21.772-24.48-34.553
			c-13.131-29.267-18.042-61.609-21.83-93.178c-3.566-29.712-10.269-59.207-21.523-87.016
			c-6.554-16.196-14.241-41.478-35.967-40.974c-17.814,0.413-28.884,20.791-35.849,34.506c-4.127,8.128-7.616,16.555-11.542,24.778
			c-5.588,11.704-12.35,22.866-18.223,34.435c-14.452,28.469-22.583,59.147-31.935,89.54c-4.048,13.156-7.95,26.392-14.322,38.654
			c-5.781,11.124-14.687,23.281-27.638,25.943c-12.886,2.649-24.218-4.798-32.243-13.954c-9.11-10.394-13.81-24.05-17.821-37.034
			c-4.345-14.061-8.387-28.208-11.908-42.498c-3.856-15.654-8.559-30.576-14.257-45.641c-10.404-27.509-15.59-56.552-32.966-80.93
			c-14.035-19.69-33.578-38.591-59.083-39.101c-12.187-0.244-19.733,5.748-26.378,15.332c-7.499,10.814-13.623,20.918-16.234,34.007
			c-2.552,12.791-2.117,26.002-2.619,38.97c-0.605,15.639-4.557,30.663-7.633,45.945c-6.054,30.075-7.696,61.585-17.471,90.784
			c-4.183,12.496-11.282,23.513-19.836,33.472c-8.092,9.42-18.114,17.846-30.128,21.586c-12.098,3.767-25.148-0.657-35.391-7.308
			c-10.823-7.027-17.605-17.69-23.322-28.952c-6.823-13.44-11.681-27.792-17.413-41.706c-5.917-14.362-11.361-28.858-16.462-43.535
			c-4.955-14.257-9.143-28.529-12.846-43.149c-3.26-12.871-7.131-25.578-13.062-37.496c-6.534-13.132-16.227-24.662-23.685-37.308
			c-6.594-11.182-11.76-23.858-20.005-33.928c-5.339-6.52-12.948-9.92-21.3-8.692c-8.45,1.243-15.718,8.074-21.345,13.978
			c-14.561,15.278-24.448,32.962-32.647,52.259c-4.489,10.564-9.1,20.934-14.589,31.021c-5.392,9.91-10.435,19.994-14.276,30.616
			c-3.966,10.971-5.54,22.207-6.949,33.716c-1.404,11.47-2.412,23.103-0.079,34.518C181.36,491.448,186.179,490.108,185.536,486.96
			L185.536,486.96z"/>
	</g>
</g>
<g>
	<g>
		<path d="M177.5,715.75c0,1.562,0,3.125,0,4.688c0,3.224,5,3.224,5,0c0-1.562,0-3.125,0-4.688
			C182.5,712.526,177.5,712.526,177.5,715.75L177.5,715.75z"/>
	</g>
</g>
<g>
	<g>
		<path d="M175.938,737.625c0,1.042,0,2.083,0,3.125c0,1.363,1.137,2.5,2.5,2.5s2.5-1.137,2.5-2.5c0-1.042,0-2.083,0-3.125
			c0-1.363-1.137-2.5-2.5-2.5S175.938,736.262,175.938,737.625L175.938,737.625z"/>
	</g>
</g>
<g>
	<g>
		<path d="M171.339,758.835c-1.486,4.774-1.843,9.791,0.252,14.426c1.326,2.934,5.634,0.39,4.317-2.524
			c-1.504-3.327-0.788-7.233,0.252-10.574C177.122,757.077,172.294,755.767,171.339,758.835L171.339,758.835z"/>
	</g>
</g>
<g>
	<g>
		<path d="M452.5,686.062c0,2.083,0,4.167,0,6.25c0,3.224,5,3.224,5,0c0-2.083,0-4.167,0-6.25
			C457.5,682.838,452.5,682.838,452.5,686.062L452.5,686.062z"/>
	</g>
</g>
<g>
	<g>
		<path d="M449.375,712.625c0,0.521,0,1.042,0,1.562c0,1.363,1.137,2.5,2.5,2.5s2.5-1.137,2.5-2.5c0-0.521,0-1.042,0-1.562
			c0-1.363-1.137-2.5-2.5-2.5S449.375,711.262,449.375,712.625L449.375,712.625z"/>
	</g>
</g>
<g>
	<g>
		<path d="M449.375,736.062c0,2.083,0,4.167,0,6.25c0,3.224,5,3.224,5,0c0-2.083,0-4.167,0-6.25
			C454.375,732.838,449.375,732.838,449.375,736.062L449.375,736.062z"/>
	</g>
</g>
<g>
	<g>
		<path d="M453.438,743.25c3.224,0,3.224-5,0-5S450.213,743.25,453.438,743.25L453.438,743.25z"/>
	</g>
</g>
<g>
	<g>
		<path d="M447.812,756.375c-0.052,2.224-1.461,4.044-1.562,6.25c-0.149,3.225,4.852,3.21,5,0c0.015-0.295,0.014-0.298-0.003-0.01
			c0.049-0.24,0.14-0.472,0.223-0.702c0.159-0.44,0.353-0.869,0.527-1.304c0.539-1.349,0.781-2.785,0.815-4.235
			C452.889,753.149,447.888,753.156,447.812,756.375L447.812,756.375z"/>
	</g>
</g>
<g>
	<g>
		<path d="M738.438,678.25c-0.001,1.375,0.084,1.953-0.83,2.92c-2.213,2.341,1.316,5.883,3.536,3.536
			c1.75-1.851,2.292-3.967,2.295-6.455C743.441,675.026,738.441,675.026,738.438,678.25L738.438,678.25z"/>
	</g>
</g>
<g>
	<g>
		<path d="M736.875,703.25c-0.069,1.577-1.47,4.159-1.562,6.25c-0.142,3.225,4.858,3.211,5,0c0.069-1.577,1.47-4.159,1.562-6.25
			C742.017,700.025,737.017,700.039,736.875,703.25L736.875,703.25z"/>
	</g>
</g>
<g>
	<g>
		<path d="M730.625,720.438c0,4.688,0,9.375,0,14.062c0,3.224,5,3.224,5,0c0-4.688,0-9.375,0-14.062
			C735.625,717.213,730.625,717.213,730.625,720.438L730.625,720.438z"/>
	</g>
</g>
<g>
	<g>
		<path d="M726.279,752.949c1.195,2.569,1.219,5.336,1.221,8.113c0.003,3.224,5.003,3.224,5,0
			c-0.003-3.737-0.309-7.209-1.904-10.637C729.237,747.504,724.928,750.045,726.279,752.949L726.279,752.949z"/>
	</g>
</g>
<g>
	<g>
		<path d="M126.161,791.648c-2.125-10.615-23.576-9.863-22.92,1.453c0.448,7.725,11.719,12.287,16.472,16.945
			c5.055,4.955-4.727,7.403-8.043,7.769c-3.768,0.416-7.578,0.152-11.357,0.123c-3.225-0.025-3.223,4.975,0,5
			c6.398,0.049,13.668,0.823,19.612-2.089c6.889-3.374,7.824-9.927,2.462-15.183c-2.249-2.204-16.974-10.451-13.636-14.367
			c2.832-3.322,11.61-3.21,12.589,1.678C121.972,796.137,126.791,794.796,126.161,791.648L126.161,791.648z"/>
	</g>
</g>
<g>
	<g>
		<path d="M126.027,791.415c2.527,7.232,0.403,15.571,4.102,22.472c2.022,3.772,5.571,9.364,10.683,8.418
			c8.321-1.539,10.318-15.474,10.438-22.18c0.058-3.226-4.942-3.221-5,0c-0.078,4.375-1.13,15.43-6.16,17.246
			c-1.524,0.55-3.408-2.354-4.032-3.226c-2.008-2.802-2.839-5.965-3.208-9.333c-0.551-5.037-0.305-9.87-2.002-14.727
			C129.792,787.062,124.961,788.362,126.027,791.415L126.027,791.415z"/>
	</g>
</g>
<g>
	<g>
		<path d="M177.08,796.795c-5.024-4.396-11.055-4.03-15.968,0.361c-2.139,1.912-3.671,5.148-3.849,8
			c-0.166,2.667-1.555,4.927-0.768,7.743c1.49,5.332,7.638,7.04,12.266,4.256c4.397-2.645,4.357-9.473,4.364-13.905
			c-1.637,0.222-3.274,0.443-4.911,0.665c1.76,7.055,4.338,15.097,1.562,22.108c-3.113,7.864-14.732,3.573-20.362,1.379
			c-3.008-1.172-4.299,3.664-1.329,4.821c7.085,2.761,19.208,6.353,24.677-1.32c5.883-8.254,2.511-19.349,0.273-28.318
			c-0.69-2.768-4.907-2.138-4.911,0.665c-0.003,2.217-0.047,4.404-0.494,6.583c-0.211,1.031-0.6,2.032-1.276,2.849
			c-1.361,1.645-4.794,0.731-5.081-1.452c-0.269-2.042,0.895-6.388,1.702-8.218c1.901-4.311,7.001-5.804,10.569-2.682
			C175.96,802.444,179.511,798.922,177.08,796.795L177.08,796.795z"/>
	</g>
</g>
<g>
	<g>
		<path d="M185.625,801.688c0-1.042,0-2.083,0-3.125c0-1.095-0.76-2.138-1.835-2.411c-8.103-2.056-11.638,13.07-7.366,17.959
			c3.069,3.513,8.441,3.795,11.558,0.35c2.981-3.294,3.835-8.492,3.894-12.774c-1.667,0-3.333,0-5,0
			c0.004,4.835,0.415,9.036,3.857,12.705c2.21,2.356,5.739-1.187,3.536-3.536c-2.462-2.624-2.39-5.765-2.393-9.17
			c-0.003-3.226-4.956-3.222-5,0c-0.042,3.033-1.052,12.359-5.917,9.665c-2.514-1.392-0.668-10.93,1.502-10.379
			c-0.612-0.804-1.224-1.607-1.835-2.411c0,1.042,0,2.083,0,3.125C180.625,804.912,185.625,804.912,185.625,801.688L185.625,801.688
			z"/>
	</g>
</g>
<g>
	<g>
		<path d="M201.161,813.29c0.955-3.023,1.436-6.188,2.278-9.244c0.406-1.474,1.324-6.324,3.425-4.887
			c2.669,1.826,5.167-2.509,2.524-4.317c-9.386-6.421-11.455,12.08-13.047,17.119C195.365,815.044,200.193,816.353,201.161,813.29
			L201.161,813.29z"/>
	</g>
</g>
<g>
	<g>
		<path d="M385.352,807.089c-3.085-0.593-1.07-10.296,2.06-7.15c1.919,1.929,3.054,4.602,4.883,6.641
			c1.385,1.545,3.525,0.502,4.178-1.103c0.992-2.437,1.446-12.554,6.489-7.799c2.575,2.428,3.153,6.827,4.567,9.959
			c1.324,2.935,5.632,0.391,4.317-2.524c-2.25-4.986-3.679-13.038-10.478-13.644c-7.925-0.707-7.667,7.646-9.716,12.679
			c1.393-0.368,2.786-0.735,4.178-1.103c-3.761-4.195-7.007-12.517-13.612-7.244c-4.442,3.547-4.96,14.81,1.805,16.11
			C387.173,812.516,388.516,807.697,385.352,807.089L385.352,807.089z"/>
	</g>
</g>
<g>
	<g>
		<path d="M427.54,791.464c-11.118-3.869-17.656,15.836-6.515,19.4c5.118,1.637,9.669-1.996,11.582-6.559
			c2.233-5.326,0.73-11.299-4.469-14.151c-2.828-1.552-5.351,2.766-2.524,4.317c2.93,1.607,3.518,4.352,2.596,7.413
			c-0.658,2.184-2.774,4.876-5.327,4.328c-5.357-1.151-2.102-11.816,3.328-9.927C429.264,797.348,430.565,792.517,427.54,791.464
			L427.54,791.464z"/>
	</g>
</g>
<g>
	<g>
		<path d="M443.438,811.062c0.024-3.777,0.504-18.071,7.176-15.029c2.911,1.327,5.454-2.981,2.524-4.317
			c-12.077-5.506-14.647,10.991-14.699,19.346C438.417,814.288,443.417,814.286,443.438,811.062L443.438,811.062z"/>
	</g>
</g>
<g>
	<g>
		<path d="M452.773,810.348c7.912,3.268,17.3-2.481,21.288-9.411c2.886-5.016,0.2-10.574-5.871-8.997
			c-6.099,1.584-12.765,9.308-9.831,15.778c2.83,6.241,10.591,8.777,16.953,8.97c3.226,0.098,3.217-4.903,0-5
			c-6.299-0.19-16.948-4.623-10.29-11.885c1.261-1.376,3.532-3.068,5.487-3.254c0.163-0.016-2.079,3.787-2.68,4.373
			c-3.786,3.69-8.397,6.807-13.727,4.605C451.122,804.296,449.836,809.135,452.773,810.348L452.773,810.348z"/>
	</g>
</g>
<g>
	<g>
		<path d="M363.018,847.205c2.905-3.483,2.336-7.887-2.878-7.989c-4.067-0.079-7.471,4.315-5.29,8.044
			c2.082,3.56,5.821,6.155,9.448,7.895c6.032,2.895-2.247,7.242-4.911,5.31c-2.615-1.897-5.106,2.444-2.524,4.317
			c4.386,3.181,14.084-0.713,14.631-6.167c0.454-4.529-1.522-6.266-5.607-8.227c-1.708-0.82-3.027-1.859-4.472-3.087
			c-0.676-0.574-1.34-1.214-1.872-1.925c-0.386-0.245-0.503-0.489-0.351-0.732c0.747-0.124,0.844-0.449,0.291-0.977
			C357.433,846.127,360.95,849.684,363.018,847.205L363.018,847.205z"/>
	</g>
</g>
<g>
	<g>
		<path d="M371.339,841.415c1.447,5.902,6.153,12.142,13.001,10.772c7.109-1.422,8.665-9.109,7.445-15.227
			c-0.63-3.161-5.449-1.819-4.821,1.329c0.665,3.336,0.421,7.907-3.494,8.984c-4.143,1.139-6.556-4.113-7.31-7.188
			C375.393,836.955,370.571,838.283,371.339,841.415L371.339,841.415z"/>
	</g>
</g>
<g>
	<g>
		<path d="M409.893,838.982c-3.092-2.534-6.198-2.522-9.164,0.222c-2.433,2.25-4.393,7.517-2.574,10.62
			c1.745,2.979,5.763,5.519,8.975,3.332c3.172-2.159,3.43-7.415,3.496-10.844c-1.553,0.421-3.106,0.841-4.659,1.262
			c3.049,4.984,4.059,11.485,4.073,17.23c0.009,3.964-1.103,6.382-5.029,7.558c-3.251,0.974-7.078,0.607-10.283-0.336
			c-3.101-0.912-4.416,3.914-1.329,4.821c6.213,1.828,18.179,1.992,20.651-5.77c2.534-7.958,0.553-18.968-3.765-26.027
			c-1.304-2.132-4.61-1.239-4.659,1.262c-0.04,2.082-0.178,4.254-1.022,6.19c-0.582,1.335-2.074-1.931-1.977-2.474
			c0.199-1.115,1.748-5.137,3.732-3.511C408.829,844.544,412.388,841.028,409.893,838.982L409.893,838.982z"/>
	</g>
</g>
<g>
	<g>
		<path d="M429.034,839.488c-1.739-3.894-5.353-5.092-8.7-2.286c-3.102,2.601-4.421,7.711-3.809,11.553
			c0.634,3.981,4.264,9.138,8.804,6.739c3.864-2.043,6.001-6.945,7.082-10.954c-1.637-0.222-3.274-0.443-4.911-0.665
			c0.195,4.291,2.161,7.825,5.926,9.971c2.806,1.599,5.324-2.721,2.524-4.317c-2.216-1.263-3.334-3.113-3.449-5.654
			c-0.126-2.773-4.156-3.463-4.911-0.665c-0.603,2.235-1.535,4.272-2.833,6.189c-1.503,2.221-2.066,1.893-2.971-0.506
			c-0.765-2.026-0.398-3.938,0.499-5.872c0.399-0.86,0.918-1.616,1.585-2.284c0.435-0.435,0.521-0.006,0.034-0.251
			c0.363,0.182,0.671,1.207,0.813,1.525C426.029,844.951,430.336,842.406,429.034,839.488L429.034,839.488z"/>
	</g>
</g>
<g>
	<g>
		<path d="M454.699,854.216c-1.891-1.131-2.247-4.512-1.958-6.468c0.655-4.424,5.392-3.051,8.508-2.936c3.226,0.119,3.214-4.881,0-5
			c-2.802-0.104-5.614-0.899-8.293,0.341c-2.491,1.153-4.092,3.052-4.898,5.647c-1.308,4.209,0.192,10.385,4.117,12.733
			C454.95,860.193,457.463,855.869,454.699,854.216L454.699,854.216z"/>
	</g>
</g>
<g>
	<g>
		<path d="M673.75,778.875c-5.532-0.07-21.909-3.325-22.112,5.841c-0.114,5.129,6.536,9.747,9.604,13.02
			c8.343,8.899-11.453,7.767-15.617,7.702c-3.226-0.051-3.221,4.949,0,5c6.037,0.095,12.192,0.967,17.863-1.607
			c5.616-2.549,5.541-9.597,2.046-13.734c-2.126-2.516-4.853-4.521-6.813-7.171c-1.71-2.312-3.201-3.423,0.081-4.153
			c4.799-1.067,10.088,0.041,14.947,0.102C676.976,783.916,676.972,778.916,673.75,778.875L673.75,778.875z"/>
	</g>
</g>
<g>
	<g>
		<path d="M674.375,779.812c-0.157,8.167-2.335,16.569,1.79,24.141c2.286,4.197,8.579,7.499,13.191,5.221
			c8.285-4.092,8.727-18.308,8.77-26.238c0.017-3.225-4.983-3.223-5,0c-0.035,6.482-0.523,13.985-3.862,19.691
			c-2.805,4.794-8.109,0.754-9.67-2.978c-2.503-5.988-0.338-13.585-0.218-19.838C679.437,776.586,674.437,776.592,674.375,779.812
			L674.375,779.812z"/>
	</g>
</g>
<g>
	<g>
		<path d="M729.034,788.887c1.375-2.464,2.245-5.576-0.358-7.562c-2.105-1.606-5.265-0.923-7.552-0.153
			c-7.171,2.413-11.58,9.623-12.099,16.949c-0.609,8.596,8.801,13.12,16.128,10.893c7.409-2.252,9.192-10.234,3.49-15.343
			c-0.589,1.423-1.179,2.845-1.768,4.268c1.042,0,2.083,0,3.125,0c3.224,0,3.224-5,0-5c-1.042,0-2.083,0-3.125,0
			c-2.093,0-3.428,2.78-1.768,4.268c2.964,2.656,2.537,5.551-1.284,6.986c-4.558,1.712-9.771-1.026-9.798-6.071
			c-0.022-4.123,2.727-8.81,6.175-11.019c1.289-0.826,2.872-1.491,4.4-1.695c0.352-0.047,0.938-0.146,1.279,0.027
			c-0.304-0.764-0.485-0.878-0.542-0.34c-0.155,0.448-0.362,0.871-0.62,1.269C723.144,789.182,727.463,791.702,729.034,788.887
			L729.034,788.887z"/>
	</g>
</g>
<g>
	<g>
		<path d="M735.284,807.637c4.324-6.416,2.956-16.212,8.984-21.369c-1.01,0.13-2.02,0.261-3.03,0.391
			c7.761,3.531,11.038,12.425,16.682,18.359c2.226,2.34,5.756-1.201,3.536-3.536c-6.007-6.316-9.359-15.349-17.693-19.141
			c-1.102-0.502-2.098-0.406-3.03,0.391c-6.737,5.763-5.1,15.458-9.766,22.381C729.159,807.795,733.492,810.295,735.284,807.637
			L735.284,807.637z"/>
	</g>
</g>
<g>
	<g>
		<path d="M741.786,800.79c-0.123,0.784-1.089,0.896,0.112,0.556c0.845-0.24,1.721-0.385,2.583-0.554
			c1.914-0.374,3.755-0.809,5.532-1.633c2.922-1.356,0.381-5.665-2.524-4.317c-2.674,1.241-9.911,0.711-10.524,4.619
			C736.47,802.614,741.287,803.968,741.786,800.79L741.786,800.79z"/>
	</g>
</g>
<g>
	<g>
		<path d="M774.598,808.835c-1.881-5.158-2.069-10.774,0.796-15.612c1.538-2.597,4.567-4.086,7.504-3.433
			c1.467,0.326,5.423,2.944,1.79,3.147c-1.699,0.095-3.369,2.126-2.159,3.762c3.914,5.291,9.543,8.309,14.959,11.834
			c2.711,1.765,5.214-2.566,2.524-4.317c-4.591-2.988-9.837-5.542-13.166-10.041c-0.72,1.254-1.439,2.508-2.159,3.762
			c3.364-0.188,7.866-2.003,6.646-6.301c-1.244-4.385-5.461-6.655-9.744-7.068c-5.135-0.496-9.564,3.959-11.605,8.164
			c-2.601,5.357-2.2,11.972-0.208,17.433C770.872,813.168,775.706,811.872,774.598,808.835L774.598,808.835z"/>
	</g>
</g>
<g>
	<g>
		<path fill="#231F20" d="M465.637,74.279c-7.409-4.823-17.094-2.6-24.778,0.334c-7.774,2.968-15.937,7.718-20.83,14.625
			c-3.917,5.529-5.063,12.597,0.346,17.471c5.44,4.902,13.873,6.228,20.632,8.339c8.999,2.811,16.698,9.119,21.847,16.982
			c3.234,4.938,4.541,10.783,1.837,16.233c-2.83,5.704-9.373,9.262-14.993,11.6c-10.189,4.239-21.217,5.15-31.97,7.021
			c-15.357,2.671-30.86,4.394-46.205,7.143c-3.17,0.568-1.823,5.386,1.329,4.821c14.097-2.525,28.317-4.245,42.454-6.516
			c11.123-1.787,22.416-3.02,33.129-6.672c8.314-2.834,17.972-8.007,21.409-16.648c3.688-9.273-0.97-18.246-7.042-25.251
			c-5.246-6.052-12.009-10.703-19.58-13.248c-6.586-2.213-15.316-3.154-20.366-8.355c-6.374-6.564,7.44-16.381,11.878-19.048
			c7.514-4.516,20.09-9.909,28.379-4.514C465.824,80.361,468.327,76.03,465.637,74.279L465.637,74.279z"/>
	</g>
</g>
<g>
	<g>
		<path fill="#231F20" d="M468.125,107.688c-0.085,7.492-1.509,15.372,1.436,22.52c2.514,6.101,9.984,10.557,16.595,9.631
			c12.371-1.732,14.307-19.524,10.065-28.725c-1.349-2.925-5.657-0.383-4.317,2.524c2.908,6.307,1.84,20.927-7.304,21.33
			c-6.161,0.272-10.392-4.947-11.51-10.39c-1.122-5.466-0.027-11.367,0.036-16.889C473.161,104.462,468.161,104.465,468.125,107.688
			L468.125,107.688z"/>
	</g>
</g>
<g>
	<g>
		<path fill="#231F20" d="M528.643,107.482c-10.575-9.731-32.088-3.265-30.83,12.705c0.612,7.77,9.984,10.768,16.388,9.546
			c8.774-1.675,8.433-13.194,10.398-19.819c-1.637-0.222-3.274-0.443-4.911-0.665c0.246,7.862,3.423,15.07,5.93,22.409
			c2.41,7.057,4.624,16.466-1.61,22.186c-4.264,3.912-11.53,4.346-16.967,4.626c-5.886,0.304-11.778-0.128-17.665-0.159
			c-3.225-0.017-3.223,4.983,0,5c12.43,0.064,27.73,2.439,38.168-5.932c5.225-4.191,6.177-12.099,5.142-18.263
			c-1.708-10.177-7.671-19.455-7.998-29.867c-0.089-2.824-4.099-3.4-4.911-0.665c-1.293,4.361-1.411,9.047-3.264,13.246
			c-2.925,6.627-13.865,2.824-13.772-3.798c0.149-10.582,16.049-12.828,22.366-7.015C527.475,113.197,531.02,109.67,528.643,107.482
			L528.643,107.482z"/>
	</g>
</g>
<g>
	<g>
		<path fill="#231F20" d="M552.54,103.714c-5.202-1.545-12.006-1.716-16.311,2.193c-4.518,4.103-4.104,9.794-1.756,15.004
			c2.332,5.173,7.312,10.768,13.626,9.718c5.825-0.969,7.627-8.54,7.838-13.567c-1.553,0.421-3.106,0.841-4.659,1.262
			c2.511,4.209,3.05,8.853,4.435,13.465c0.925,3.08,5.751,1.767,4.821-1.329c-1.517-5.051-2.195-10.061-4.94-14.66
			c-1.307-2.191-4.556-1.192-4.659,1.262c-0.122,2.905-0.941,9.263-5.31,8.547c-4.102-0.672-6.199-5.625-7.472-8.984
			c-3.245-8.562,7.44-9.758,13.055-8.09C554.309,109.456,555.623,104.63,552.54,103.714L552.54,103.714z"/>
	</g>
</g>
<g>
	<g>
		<path fill="#231F20" d="M577.723,135.148c-0.988-5.675-1.708-11.561,0.23-17.111c2.012-5.764,8.423-8.908,13.649-11.064
			c2.937-1.211,1.652-6.051-1.329-4.821c-6.426,2.65-12.656,5.97-16.131,12.257c-3.667,6.634-2.475,14.969-1.24,22.068
			C573.454,139.649,578.272,138.3,577.723,135.148L577.723,135.148z"/>
	</g>
</g>
<g>
	<g>
		<path fill="#231F20" d="M646.25,60.812c1.614,24.584,6.095,48.866,7.812,73.438c0.224,3.198,5.225,3.22,5,0
			c-1.718-24.572-6.199-48.854-7.812-73.438C651.04,57.612,646.039,57.592,646.25,60.812L646.25,60.812z"/>
	</g>
</g>
<g>
	<g>
		<path fill="#231F20" d="M645.324,62.971c6.7-4.919,17.213-3.303,21.793,3.774c6.891,10.646-7.096,21.691-15.907,24.469
			c0.642,1.523,1.284,3.046,1.926,4.569c6.628-2.811,14.221-3.445,21.12-1.31c8.225,2.545,10.773,10.547,9.072,18.399
			c-3.117,14.387-26.183,16.03-37.705,17.315c-3.167,0.353-3.202,5.357,0,5c14.76-1.646,41.271-4.391,42.995-23.719
			c0.815-9.137-2.209-17.417-11.167-21.1c-8.605-3.538-18.439-2.465-26.839,1.097c-2.628,1.114-0.739,5.41,1.926,4.569
			c12.705-4.006,25.517-16.685,19.426-30.823c-4.54-10.54-20.545-12.887-29.165-6.558C640.231,60.54,642.721,64.883,645.324,62.971
			L645.324,62.971z"/>
	</g>
</g>
<g>
	<g>
		<path fill="#231F20" d="M708.33,91.857c-4.811-5.289-10.974-4.084-14.367,1.953c-3.249,5.78-3.69,14.205,0.609,19.521
			c5.043,6.236,13.402,8.726,19.465,2.546c6.077-6.193,5.69-16.768,0.935-23.514c-1.842-2.613-6.18-0.119-4.317,2.524
			c3.441,4.882,3.922,11.004,0.816,16.185c-1.121,1.869-3.039,3.368-5.249,3.564c-3.311,0.294-5.496-2.478-7.707-4.416
			c-3.142-2.754-2.136-8.626-1.03-12.049c1.321-4.087,3.992-6.427,7.311-2.778C706.969,97.783,710.494,94.236,708.33,91.857
			L708.33,91.857z"/>
	</g>
</g>
<g>
	<g>
		<path fill="#231F20" d="M727.589,91.398c-2.78,7.563-1.486,21.931,8.081,24.095c4.643,1.05,10.213-1.687,12.404-5.775
			c2.557-4.771,1.659-10.914,1.613-16.093c-0.028-3.223-5.028-3.225-5,0c0.032,3.629,0.389,7.306-0.181,10.911
			c-0.615,3.887-4.036,6.921-8.163,5.988c-6.187-1.4-5.489-13.562-3.933-17.796C733.526,89.694,728.692,88.398,727.589,91.398
			L727.589,91.398z"/>
	</g>
</g>
<g>
	<g>
		<path fill="#231F20" d="M760.536,121.085c-2.56-6.905-1.852-19.128,7.42-20.231c10.108-1.202,9.541,14.42,9.544,20.895
			c0.002,3.224,5.002,3.224,5,0c-0.005-10.127-0.738-26.424-14.544-25.895c-12.86,0.493-15.871,16.769-12.242,26.56
			C756.825,125.41,761.659,124.115,760.536,121.085L760.536,121.085z"/>
	</g>
</g>
<g>
	<g>
		<path fill="#231F20" d="M797.188,91.125c-9.456,0.872-13.459,15.297-9.079,22.632c5.035,8.433,19.68,11.932,28.494,8.841
			c3.022-1.06,1.722-5.891-1.329-4.821c-6.268,2.198-13.586,0.176-19.094-3.124c-3.313-1.985-4.739-4.448-4.682-8.266
			c0.049-3.308,1.566-9.882,5.691-10.263C800.37,95.831,800.399,90.829,797.188,91.125L797.188,91.125z"/>
	</g>
</g>
<g>
	<g>
		<path fill="#231F20" d="M818.398,106.973c12.041,1.834,31.837-10.798,20.596-23.804c-4.627-5.353-12.608-0.188-16.521,3.199
			c-4.263,3.69-7.576,9.461-7.151,15.259c0.781,10.647,14.832,12.432,23.014,12.941c10.24,0.638,21.461-0.158,31.39-2.908
			c3.103-0.86,1.784-5.684-1.329-4.821c-6.534,1.81-13.481,2.414-20.227,2.746c-7.667,0.377-16.664,0.549-23.686-3.023
			c-8.695-4.422-1.811-14.395,3.651-18.36c1.885-1.369,5.145-3.309,7.322-1.498c2.594,2.158,1.993,6.008,0.464,8.442
			c-2.924,4.654-10.87,7.817-16.195,7.005C816.574,101.671,815.219,106.489,818.398,106.973L818.398,106.973z"/>
	</g>
</g>
<g>
	<g>
		<path fill="#231F20" d="M72.448,168.295c-0.2,26.639-8.07,52.449-10.248,78.909c-0.265,3.215,4.737,3.19,5,0
			c2.178-26.463,10.048-52.256,10.248-78.909C77.472,165.07,72.472,165.072,72.448,168.295L72.448,168.295z"/>
	</g>
</g>
<g>
	<g>
		<path fill="#231F20" d="M69.464,178.182c1.779,0.655,0.5-1.211,2.267-1.831c1.184-0.415,2.609-0.012,3.766,0.288
			c2.962,0.769,5.714,2.429,8.199,4.168c2.575,1.803,6.219,5.236,5.549,8.575c-0.936,4.67-9.166,6.437-12.913,7.245
			c-3.151,0.679-1.815,5.499,1.329,4.821c6.326-1.364,15.108-4.271,16.569-11.557c1.206-6.012-4.726-11.229-9.199-14.213
			c-4.087-2.726-10.16-5.718-15.153-3.967c-4.37,1.533-6.973,9.364-1.745,11.29C71.167,184.121,72.463,179.287,69.464,178.182
			L69.464,178.182z"/>
	</g>
</g>
<g>
	<g>
		<path fill="#231F20" d="M99.904,198.375c-0.817-5.451-0.348-15.193,6.452-16.396c3.171-0.561,1.823-5.379-1.329-4.821
			c-9.893,1.75-11.148,14.514-9.944,22.546C95.559,202.884,100.377,201.527,99.904,198.375L99.904,198.375z"/>
	</g>
</g>
<g>
	<g>
		<path fill="#231F20" d="M120.489,189.816c0-0.342,0-0.683,0-1.025c0-1.468-1.145-2.36-2.5-2.5
			c-9.689-0.998-15.5,16.434-4.041,18.354c12.395,2.077,8.302-14.412,4.15-20.19c-1.863-2.593-6.203-0.101-4.317,2.524
			c1.481,2.061,6.092,10.815,2.839,12.725c-0.9,0.528-2.879-0.047-3.689-0.509c-0.806-0.459-0.471-2.05-0.319-2.731
			c0.54-2.411,2.636-5.455,5.377-5.172c-0.833-0.833-1.667-1.667-2.5-2.5c0,0.342,0,0.683,0,1.025
			C115.489,193.04,120.489,193.04,120.489,189.816L120.489,189.816z"/>
	</g>
</g>
<g>
	<g>
		<path fill="#231F20" d="M138.594,187.529c-5.165-6.842-13.785-3.314-17.125,3.504c-3.406,6.952,4.021,12.809,10.672,10.291
			c6.854-2.594,7.263-12.815,7.467-18.865c0.259-7.668-0.547-15.464-1.787-23.027c-0.521-3.176-5.338-1.824-4.821,1.329
			c1.503,9.168,2.515,19.077,1.045,28.297c-0.709,4.448-2.001,8.555-7.097,7.35c-3.944-0.932,3.233-11.782,7.329-6.356
			C136.194,192.592,140.539,190.105,138.594,187.529L138.594,187.529z"/>
	</g>
</g>
<g>
	<g>
		<path fill="#231F20" d="M140.426,177.282c-2.967,6.292-4.847,17.376,2.698,21.239c8.638,4.423,11.927-7.099,13.144-13.164
			c0.632-3.148-4.187-4.489-4.821-1.329c-0.534,2.663-1.573,11.262-5.661,10.209c-5.182-1.334-2.539-11.257-1.042-14.432
			C146.11,176.906,141.8,174.367,140.426,177.282L140.426,177.282z"/>
	</g>
</g>
<g>
	<g>
		<path fill="#231F20" d="M162.72,179.207c-8.459-1.516-10.751,9.05-6.264,14.595c3.986,4.927,12.41-0.144,16.085-2.852
			c2.566-1.891,0.076-6.233-2.524-4.317c-2.393,1.763-5.329,3.783-8.372,4.073c-3.374,0.322-3.447-7.249-0.254-6.678
			C164.543,184.593,165.89,179.775,162.72,179.207L162.72,179.207z"/>
	</g>
</g>
<g>
	<g>
		<path fill="#231F20" d="M175.952,150.874c-0.093,13.693-1.957,27.298-2.05,40.992c-0.022,3.225,4.978,3.223,5,0
			c0.093-13.693,1.957-27.298,2.05-40.992C180.974,147.649,175.974,147.651,175.952,150.874L175.952,150.874z"/>
	</g>
</g>
<g>
	<g>
		<path fill="#231F20" d="M168.441,187.876c3.896-2.864,7.982-4.881,12.725-5.897c3.152-0.675,1.815-5.495-1.329-4.821
			c-5.123,1.098-9.708,3.305-13.919,6.401C163.349,185.446,165.839,189.788,168.441,187.876L168.441,187.876z"/>
	</g>
</g>
<g>
	<g>
		<path fill="#231F20" d="M184.24,176.134c0.885,6.227-0.021,12.555-0.089,18.806c-0.035,3.226,4.965,3.222,5,0
			c0.074-6.748,0.866-13.414-0.089-20.136C188.609,171.623,183.792,172.981,184.24,176.134L184.24,176.134z"/>
	</g>
</g>
<g>
	<g>
		<path fill="#231F20" d="M186.65,173.87c3.224,0,3.224-5,0-5C183.426,168.87,183.426,173.87,186.65,173.87L186.65,173.87z"/>
	</g>
</g>
<g>
	<g>
		<path fill="#231F20" d="M192.315,176.854c-1.004,4.763-0.396,10.527,3.717,13.705c0.968,0.748,1.897,0.927,3.03,0.391
			c6.442-3.05,6.183-11.926,7.298-17.891c0.589-3.151-4.23-4.496-4.821-1.329c-0.808,4.326-0.348,12.7-5,14.903
			c1.01,0.13,2.02,0.261,3.03,0.391c-2.715-2.097-3.103-5.656-2.431-8.84C197.8,175.038,192.98,173.7,192.315,176.854
			L192.315,176.854z"/>
	</g>
</g>
<g>
	<g>
		<path fill="#231F20" d="M211.786,172.755c-1.012,4.391-1.038,8.933-2.05,13.322c-0.723,3.138,4.098,4.471,4.821,1.329
			c1.012-4.391,1.038-8.933,2.05-13.322C217.33,170.946,212.51,169.613,211.786,172.755L211.786,172.755z"/>
	</g>
</g>
<g>
	<g>
		<path fill="#231F20" d="M217.271,159.523c3.224,0,3.224-5,0-5C214.047,154.523,214.047,159.523,217.271,159.523L217.271,159.523z"
			/>
	</g>
</g>
<g>
	<g>
		<path fill="#231F20" d="M223.994,143.701c-0.091,14.376-1.959,28.665-2.05,43.041c-0.02,3.225,4.98,3.223,5,0
			c0.091-14.376,1.959-28.665,2.05-43.041C229.014,140.475,224.014,140.477,223.994,143.701L223.994,143.701z"/>
	</g>
</g>
<g>
	<g>
		<path fill="#231F20" d="M220.707,173.059c0.776-2.049,4.263-2.779,6.025-3.63c2.903-1.402,0.366-5.713-2.524-4.317
			c-3.325,1.606-6.849,2.73-8.322,6.618c-0.483,1.276,0.525,2.739,1.746,3.075C219.038,175.192,220.224,174.332,220.707,173.059
			L220.707,173.059z"/>
	</g>
</g>
<g>
	<g>
		<path fill="#231F20" d="M227.41,166.009c-1.713,3.597-0.855,8.165,2.719,10.429c4.905,3.107,8.079,0.454,11.455-3.3
			c-0.811,0.214-1.622,0.429-2.432,0.643c3.131,1.118,4.966,4.775,6.154,7.674c0.959,2.34,2.684,4.055,4.324,5.976
			c2.306,2.7,4.419,5.757,2.627,9.315c-1.089,2.163-3.619,3.477-5.659,4.558c-8.107,4.296-17.44,4.5-25.892,7.622
			c-2.998,1.107-1.702,5.941,1.329,4.821c10.801-3.99,23.997-3.59,32.752-12.127c5.093-4.967,3.312-11.715-0.734-16.644
			c-2.584-3.148-4.16-5.988-6.154-9.471c-1.715-2.996-4.158-5.381-7.418-6.546c-0.79-0.282-1.878,0.026-2.432,0.643
			c-0.455,0.495-0.898,1.001-1.328,1.518c-1.789,2.089-6.632,0.852-4.993-2.588C233.106,165.638,228.796,163.099,227.41,166.009
			L227.41,166.009z"/>
	</g>
</g>
</svg>
